<svg width="12" height="12" viewBox="0 0 12 12" fill="none" xmlns="http://www.w3.org/2000/svg">
<g clip-path="url(#clip0_7630_7916)">
<path d="M3.00011 4.24989C3.00011 4.58141 3.13181 4.89936 3.36623 5.13378C3.60065 5.3682 3.91859 5.49989 4.25011 5.49989C4.58163 5.49989 4.89958 5.3682 5.134 5.13378C5.36842 4.89936 5.50011 4.58141 5.50011 4.24989C5.50011 3.91837 5.36842 3.60043 5.134 3.36601C4.89958 3.13159 4.58163 2.99989 4.25011 2.99989C3.91859 2.99989 3.60065 3.13159 3.36623 3.36601C3.13181 3.60043 3.00011 3.91837 3.00011 4.24989ZM3.00311 7.68289C3.03058 8.47733 3.22891 9.25651 3.58461 9.96739C3.91235 10.5872 4.40445 11.1047 5.00695 11.4633C5.60945 11.8218 6.29905 12.0075 7.00011 11.9999H7.50011V9.24989C7.50235 8.78645 7.68744 8.34263 8.01515 8.01492C8.34285 7.68722 8.78667 7.50213 9.25011 7.49989H12.0001V6.99989C12.0077 6.29883 11.822 5.60923 11.4635 5.00673C11.1049 4.40423 10.5874 3.91213 9.96761 3.58439C9.25673 3.22869 8.47755 3.03036 7.68311 3.00289C6.95469 2.06201 6.01923 1.30166 4.94936 0.780857C3.87949 0.260056 2.70399 -0.00718062 1.51411 -0.000107303C1.31612 -0.00135841 1.11983 0.0364841 0.936487 0.111251C0.753148 0.186017 0.58637 0.296237 0.445717 0.435591C0.305062 0.574944 0.193297 0.740691 0.116832 0.923327C0.0403652 1.10596 0.000699997 1.3019 0.00011158 1.49989C-0.00835705 2.692 0.258178 3.87 0.779004 4.94235C1.29983 6.0147 2.06092 6.95251 3.00311 7.68289ZM10.9581 6.49989H9.82711C9.45579 5.67289 9.0196 4.87657 8.52261 4.11839C8.86781 4.1987 9.20229 4.31954 9.51911 4.47839C9.90014 4.6796 10.2288 4.96724 10.4786 5.31828C10.7285 5.66931 10.8927 6.07399 10.9581 6.49989ZM4.11861 8.52239C4.87679 9.01938 5.67311 9.45557 6.50011 9.82689V10.9579C6.07421 10.8925 5.66953 10.7283 5.3185 10.4784C4.96746 10.2285 4.67982 9.89992 4.47861 9.51889C4.31976 9.20207 4.19892 8.86759 4.11861 8.52239ZM1.00011 1.48589C1.00376 1.35573 1.05804 1.23212 1.15142 1.14136C1.24479 1.05059 1.36989 0.999842 1.50011 0.999893C4.08011 1.07339 5.82511 2.06189 7.50911 4.41089C7.97904 5.08749 8.39228 5.80176 8.74461 6.54639C8.19865 6.64807 7.69627 6.91267 7.30358 7.30536C6.91089 7.69805 6.64629 8.20043 6.54461 8.74639C5.79998 8.39406 5.08571 7.98082 4.40911 7.51089C2.06211 5.82489 1.07361 4.07989 1.00011 1.48589ZM8.93911 8.93939C8.65973 9.22165 8.50301 9.60275 8.50301 9.99989C8.50301 10.397 8.65973 10.7781 8.93911 11.0604C9.39261 11.5134 10.7501 11.7929 11.3131 11.8924L12.0161 12.0159L11.8926 11.3129C11.7926 10.7499 11.5136 9.39239 11.0606 8.93889C10.7747 8.66622 10.3948 8.51414 9.99976 8.51424C9.6047 8.51433 9.22486 8.66659 8.93911 8.93939ZM9.50011 9.99989C9.49994 9.93421 9.51279 9.86914 9.53794 9.80846C9.56309 9.74778 9.60002 9.69269 9.64661 9.64639C9.74038 9.55266 9.86753 9.5 10.0001 9.5C10.1327 9.5 10.2598 9.55266 10.3536 9.64639C10.5442 9.99052 10.6781 10.3631 10.7501 10.7499C10.3632 10.6776 9.99045 10.5436 9.64611 10.3529C9.59967 10.3066 9.56286 10.2516 9.53781 10.191C9.51275 10.1304 9.49994 10.0655 9.50011 9.99989Z" fill="white"/>
</g>
<defs>
<clipPath id="clip0_7630_7916">
<rect width="12" height="12" fill="white" transform="matrix(-1 0 0 1 12 0)"/>
</clipPath>
</defs>
</svg>
