<svg width="12" height="12" viewBox="0 0 12 12" fill="none" xmlns="http://www.w3.org/2000/svg">
<path d="M-1.14441e-05 11C-1.14441e-05 11.5515 0.448488 12 0.999989 12H4.07299C4.94199 12 5.77199 11.618 6.35099 10.952C7.92899 9.13452 9.34099 7.93202 10.1295 7.73452C11.301 7.44202 12.0005 6.64502 12.0005 5.60302C12.0005 4.71552 11.4865 4.29002 11.0735 3.94802C10.8295 3.74602 10.599 3.55502 10.4525 3.27052L9.00599 0.277018C8.88599 0.0280183 8.58749 -0.0754818 8.33849 0.0440182C8.08999 0.164018 7.98549 0.463018 8.10599 0.711518L9.55799 3.71752C9.80399 4.19552 10.1545 4.48602 10.4365 4.71952C10.8275 5.04302 11.0005 5.20352 11.0005 5.60402C11.0005 6.33402 10.395 6.63852 9.88699 6.76552C8.52549 7.10552 6.61449 9.12402 5.59599 10.2965C5.20749 10.744 4.65199 11 4.07299 11H2.03049C2.49249 11 2.91649 10.799 3.19349 10.448C3.99249 9.43652 4.51999 8.36202 4.98549 7.41452C5.29199 6.79052 5.58099 6.20102 5.91349 5.69402C6.30799 5.09102 6.36799 4.35752 6.07349 3.73202L4.45249 0.287018C4.33499 0.0365182 4.03649 -0.0694818 3.78699 0.0475182C3.53699 0.165018 3.42999 0.463018 3.54749 0.713018L5.16849 4.15752C5.31399 4.46602 5.27949 4.83552 5.07599 5.14602C4.71049 5.70552 4.40799 6.32152 4.08749 6.97352C3.62199 7.92102 3.14099 8.90052 2.40799 9.82852C2.32299 9.93652 2.18149 10.0005 2.02999 10.0005H0.999989C0.448488 10.0005 -1.14441e-05 10.4485 -1.14441e-05 11Z" fill="white"/>
</svg>
