<svg width="13" height="12" viewBox="0 0 13 12" fill="none" xmlns="http://www.w3.org/2000/svg">
<g clip-path="url(#clip0_7630_7920)">
<path d="M2.13 5.156L4.28 2.0705C4.51043 1.73989 4.81737 1.46988 5.17466 1.28349C5.53195 1.0971 5.92901 0.999836 6.332 1H8.25C8.75699 1.00172 9.25159 1.1568 9.66879 1.44487C10.086 1.73294 10.4063 2.14051 10.5875 2.614L11.6235 5.346C11.8934 5.52929 12.1144 5.77583 12.2672 6.06413C12.42 6.35243 12.4999 6.67372 12.5 7V7.75C12.4996 8.03804 12.3999 8.31713 12.2178 8.54027C12.0356 8.7634 11.7821 8.91693 11.5 8.975V9.25C11.5 9.71413 11.3156 10.1592 10.9874 10.4874C10.6592 10.8156 10.2141 11 9.75 11C9.28587 11 8.84075 10.8156 8.51256 10.4874C8.18437 10.1592 8 9.71413 8 9.25V9H5V9.25C5 9.71413 4.81563 10.1592 4.48744 10.4874C4.15925 10.8156 3.71413 11 3.25 11C2.78587 11 2.34075 10.8156 2.01256 10.4874C1.68437 10.1592 1.5 9.71413 1.5 9.25V8.975C1.21787 8.91693 0.964384 8.7634 0.782235 8.54027C0.600086 8.31713 0.50041 8.03804 0.5 7.75V7.5C0.500725 6.98981 0.657188 6.49199 0.948469 6.07312C1.23975 5.65424 1.65197 5.33428 2.13 5.156ZM5.1 2.642L3.458 5H7V2H6.332C6.0901 1.99974 5.85172 2.05799 5.6372 2.16978C5.42267 2.28156 5.23837 2.44358 5.1 2.642ZM9.65 2.9685C9.54145 2.68477 9.34968 2.44047 9.09985 2.26764C8.85002 2.0948 8.55378 2.00151 8.25 2H8V5H10.423L9.65 2.9685ZM9 9.25C9 9.44891 9.07902 9.63968 9.21967 9.78033C9.36032 9.92098 9.55109 10 9.75 10C9.94891 10 10.1397 9.92098 10.2803 9.78033C10.421 9.63968 10.5 9.44891 10.5 9.25V9H9V9.25ZM3.25 10C3.44891 10 3.63968 9.92098 3.78033 9.78033C3.92098 9.63968 4 9.44891 4 9.25V9H2.5V9.25C2.5 9.44891 2.57902 9.63968 2.71967 9.78033C2.86032 9.92098 3.05109 10 3.25 10ZM1.5 7.75C1.5 7.8163 1.52634 7.87989 1.57322 7.92678C1.62011 7.97366 1.6837 8 1.75 8H11.25C11.3163 8 11.3799 7.97366 11.4268 7.92678C11.4737 7.87989 11.5 7.8163 11.5 7.75V7C11.5 6.73478 11.3946 6.48043 11.2071 6.29289C11.0196 6.10536 10.7652 6 10.5 6H3C2.60218 6 2.22064 6.15804 1.93934 6.43934C1.65804 6.72064 1.5 7.10218 1.5 7.5V7.75Z" fill="white"/>
</g>
<defs>
<clipPath id="clip0_7630_7920">
<rect width="12" height="12" fill="white" transform="matrix(-1 0 0 1 12.5 0)"/>
</clipPath>
</defs>
</svg>
