<svg width="33" height="30" viewBox="0 0 33 30" fill="none" xmlns="http://www.w3.org/2000/svg">
<path d="M29.3936 1.80371C29.734 1.83846 30 2.12763 30 2.47949V28.2002H31.7324C32.1011 28.2005 32.4002 28.603 32.4004 29.0996C32.4004 29.5965 32.1012 29.9997 31.7324 30H0.667969C0.299053 29.9999 0 29.5966 0 29.0996C0.000161357 28.6028 0.299153 28.2002 0.667969 28.2002H3V21.3359L3.00391 21.2666C3.03851 20.9241 3.32543 20.6563 3.6748 20.6562H9.0752C9.44783 20.6564 9.7499 20.9608 9.75 21.3359V28.2002H13.125V13.5215C13.1251 13.1463 13.4272 12.8419 13.7998 12.8418H19.2002C19.5728 12.8419 19.8749 13.1463 19.875 13.5215V28.2002H23.25V2.47949L23.2539 2.41016C23.2884 2.06753 23.5754 1.7999 23.9248 1.7998H29.3252L29.3936 1.80371ZM4.34961 28.2002H8.40039V22.0156H4.34961V28.2002ZM14.4746 28.2002H18.5254V14.2012H14.4746V28.2002ZM24.5996 28.2002H28.6504V3.15918H24.5996V28.2002ZM5.40039 0C5.73163 0 6.00077 0.268418 6.00098 0.599609V2.40039H6.68652L6.83594 2.40332C8.37562 2.47564 9.60039 3.65521 9.60059 5.09961C9.60059 5.72091 9.37288 6.29274 8.99219 6.74902C10.0444 7.11509 10.8007 8.11833 10.8008 9.2998C10.8008 10.7443 9.6711 11.9236 8.25098 11.9961L8.1123 12H6.00098V13.7998L5.99707 13.8613C5.96632 14.1639 5.71103 14.4004 5.40039 14.4004C5.08979 14.4003 4.83445 14.1638 4.80371 13.8613L4.80078 13.7998V12H2.40039V2.40039H4.80078V0.599609C4.80099 0.268451 5.0692 5.28985e-05 5.40039 0ZM3.74414 10.6504H8.1123C8.85458 10.6504 9.45605 10.0454 9.45605 9.2998C9.45596 8.5543 8.85452 7.9502 8.1123 7.9502H3.74414V10.6504ZM3.77148 6.5293H6.68652C7.53843 6.52909 8.22852 5.88892 8.22852 5.09961C8.22831 4.31046 7.5383 3.67111 6.68652 3.6709H3.77148V6.5293Z" fill="url(#paint0_linear_7630_7267)"/>
<defs>
<linearGradient id="paint0_linear_7630_7267" x1="28.3125" y1="11.9159" x2="1.62941" y2="19.2014" gradientUnits="userSpaceOnUse">
<stop stop-color="#7775FF"/>
<stop offset="1" stop-color="#8CD5FF"/>
</linearGradient>
</defs>
</svg>
