<svg width="8" height="4" viewBox="0 0 8 4" fill="none" xmlns="http://www.w3.org/2000/svg">
<path d="M0.503401 0.0263257C0.569062 0.0262376 0.63409 0.0391527 0.694734 0.0643256C0.755378 0.0894986 0.810437 0.126431 0.856734 0.172992L3.4144 2.73033C3.49179 2.80773 3.58366 2.86913 3.68478 2.91103C3.7859 2.95292 3.89428 2.97448 4.00373 2.97448C4.11319 2.97448 4.22157 2.95292 4.32269 2.91103C4.42381 2.86913 4.51568 2.80773 4.59307 2.73033L7.14673 0.176326C7.19286 0.12857 7.24803 0.0904794 7.30903 0.0642749C7.37003 0.0380704 7.43564 0.0242774 7.50203 0.0237005C7.56842 0.0231236 7.63426 0.0357744 7.69571 0.0609148C7.75716 0.0860552 7.81299 0.123182 7.85993 0.170128C7.90688 0.217074 7.944 0.2729 7.96914 0.334349C7.99429 0.395797 8.00694 0.461637 8.00636 0.528026C8.00578 0.594416 7.99199 0.660026 7.96579 0.721028C7.93958 0.78203 7.90149 0.837202 7.85373 0.883326L5.30007 3.43733C4.95604 3.78072 4.48981 3.97358 4.00373 3.97358C3.51765 3.97358 3.05143 3.78072 2.7074 3.43733L0.149734 0.879992C0.0797621 0.810065 0.0321052 0.720954 0.0127938 0.623933C-0.00651756 0.526913 0.00338449 0.426344 0.041247 0.334953C0.0791095 0.243562 0.143231 0.165456 0.225497 0.110519C0.307763 0.0555809 0.404477 0.0262808 0.503401 0.0263257Z" fill="white"/>
</svg>
