<svg width="244" height="260" viewBox="0 0 244 260" fill="none" xmlns="http://www.w3.org/2000/svg">
<path d="M147.655 17.212L170.954 22.9694L171.197 23.0294L171.137 23.2721L163.58 53.8523C163.471 54.1274 164.017 54.3483 165.219 54.5148L165.585 55.1201L168.012 55.7198L168.377 56.3252L170.319 56.805L170.684 57.4103L172.14 57.7701C172.243 58.3964 172.85 58.7181 173.962 58.7353L174.328 59.3407L175.298 59.5806L175.664 60.1859L176.635 60.4258L177 61.0311L177.971 61.271C178.013 61.7964 178.458 62.0782 179.307 62.1163L179.673 62.7216L180.158 62.8416L181.374 64.1722L182.345 64.4121L182.711 65.0174L183.196 65.1374C183.177 65.5619 183.461 65.8036 184.047 65.8627L184.778 67.0733L185.263 67.1933C185.244 67.6178 185.528 67.8595 186.114 67.9186L188.061 70.4599L188.547 70.5798L190.739 74.2119L191.225 74.3319L192.138 75.8452L192.018 76.3306L193.846 79.3573L193.726 79.8427L195.068 82.7495L194.948 83.2349L195.313 83.8403L195.193 84.3257L195.559 84.931L195.439 85.4164L195.804 86.0218L195.684 86.5072L196.295 88.2032L196.055 89.174L196.421 89.7794L196.181 90.7502L196.546 91.3555C196.185 92.1246 196.226 92.6499 196.672 92.9317L196.312 94.3879L196.678 94.9932L196.078 97.4202L196.443 98.0256L195.244 102.88L195.609 103.485L194.89 106.397L194.284 106.763L193.205 111.131L192.599 111.497L192 113.924L191.394 114.289L191.034 115.745L190.429 116.111L190.189 117.082L189.584 117.447L189.344 118.418C188.819 118.46 188.537 118.905 188.499 119.754L187.168 120.971L186.928 121.941L186.323 122.307L186.203 122.792C185.778 122.773 185.537 123.057 185.478 123.643L184.267 124.374L184.147 124.859C183.723 124.84 183.481 125.124 183.422 125.71L182.211 126.441L182.091 126.927L180.275 128.023L180.155 128.508L173.194 132.711L172.708 132.591L170.892 133.687L170.407 133.568L168.893 134.481C168.975 134.845 169.36 135.026 170.047 135.024L170.412 135.629L171.383 135.869L171.749 136.474L172.234 136.594L172.6 137.2L173.085 137.32L173.45 137.925L173.936 138.045L174.301 138.65L174.787 138.77C174.768 139.195 175.051 139.436 175.638 139.495L176.368 140.706L176.854 140.826L177.585 142.037L178.07 142.157L178.801 143.367L179.286 143.487L180.748 145.909L181.476 146.089L181.237 147.059L181.965 147.239L182.878 148.753L182.758 149.238L184.586 152.265L184.466 152.75L185.562 154.566L185.442 155.052C185.827 155.233 185.908 155.596 185.688 156.142L186.418 157.353L186.299 157.838L186.664 158.444L186.544 158.929L187.155 160.625L186.915 161.596L187.526 163.292L187.286 164.263C187.732 164.545 187.773 165.07 187.412 165.839L187.777 166.445C187.275 167.436 187.277 168.123 187.783 168.506L187.303 170.448L187.669 171.053L186.829 174.451L187.194 175.056L184.795 184.764L184.19 185.13L183.47 188.042L182.865 188.407L182.385 190.349L181.78 190.715L181.42 192.171C180.794 192.273 180.472 192.881 180.455 193.992L179.85 194.358L179.61 195.329C179.084 195.37 178.803 195.816 178.765 196.665L177.434 197.881L177.194 198.852L176.589 199.217L176.469 199.703L175.863 200.068L175.743 200.554C175.319 200.535 175.077 200.818 175.018 201.405L173.807 202.135L173.687 202.621L172.477 203.352L172.357 203.837L171.146 204.568L171.026 205.053L169.21 206.15L169.09 206.635L161.523 211.203L161.038 211.084L159.222 212.18L158.737 212.06L155.83 213.402L155.344 213.282C155.164 213.666 154.8 213.748 154.254 213.527L153.043 214.258L152.558 214.138L151.952 214.504L151.467 214.384L150.861 214.749L150.376 214.629L149.771 214.995L149.285 214.875L147.589 215.486L146.618 215.246L144.922 215.857L143.952 215.617L143.346 215.982L142.375 215.743L141.77 216.108L140.799 215.868L140.194 216.234C139.425 215.872 138.9 215.914 138.618 216.359L137.162 215.999L136.556 216.365L135.1 216.005C134.717 216.511 134.03 216.513 133.039 216.011L132.433 216.376L130.492 215.896L129.886 216.262L126.974 215.542L126.368 215.908L123.941 215.308L123.699 215.248L123.639 215.491L116.202 245.585L116.142 245.828L115.9 245.768L92.115 239.891L91.8723 239.831L91.9322 239.588L99.1289 210.464L99.1889 210.221L98.9462 210.161L87.782 207.403L87.5393 207.343L87.4793 207.585L80.0427 237.68L79.9828 237.923L79.7401 237.863L56.4409 232.106L56.1982 232.046L56.2581 231.803L63.6947 201.708L63.7547 201.465L63.512 201.405L30.5048 193.249L30.2621 193.189L30.322 192.947L35.7195 171.104L35.7795 170.861L36.0222 170.921L61.7484 177.278C61.9711 177.419 62.072 177.358 62.0511 177.095L91.1976 59.1429L91.2576 58.9002L91.0149 58.8403L65.2887 52.4832L65.046 52.4232L65.106 52.1805L70.5035 30.3375L70.5634 30.0948L70.8061 30.1548L103.328 38.1911L104.236 37.6429L111.193 9.48968L111.253 9.24698L111.495 9.30695L134.795 15.0643L135.037 15.1243L134.977 15.367L127.901 44.0056L127.841 44.2483L128.083 44.3082L139.248 47.067L139.49 47.1269L139.55 46.8842L146.747 17.7602L147.655 17.212ZM122.323 66.5767L122.203 67.0621L111.408 110.748L111.894 110.868L134.707 116.505L135.313 116.14L138.711 116.98L139.316 116.614L141.258 117.094L141.863 116.728L143.804 117.208C143.884 116.885 144.41 116.843 145.381 117.083L145.986 116.717L146.957 116.957L147.562 116.592L148.533 116.832L150.229 116.221L150.714 116.341L151.32 115.975L151.805 116.095L152.41 115.73L152.896 115.849L153.501 115.484L153.987 115.604L155.803 114.508L156.288 114.628L158.709 113.166L158.829 112.68L160.645 111.584C160.805 110.937 161.047 110.653 161.371 110.733L161.491 110.248L162.096 109.882L162.216 109.397L162.821 109.031L162.941 108.546L163.547 108.181C163.543 106.806 163.865 106.199 164.512 106.359L164.992 104.417L165.597 104.052L167.276 97.2562L166.911 96.6509L167.51 94.2239C167.267 93.8203 167.225 93.2949 167.385 92.6477L167.019 92.0424L167.259 91.0716L166.648 89.3755L166.768 88.8901L166.037 87.6794L166.157 87.194L163.719 82.4712L163.234 82.3513L162.503 81.1406C161.856 80.9806 161.572 80.7389 161.652 80.4153L161.166 80.2953L160.801 79.69L160.316 79.57L159.95 78.9647L158.979 78.7248L157.763 77.3942C156.389 77.3979 155.781 77.0762 155.941 76.429L154.485 76.0692L154.12 75.4638L152.178 74.984L151.813 74.3787L148.415 73.5391L148.049 72.9337L122.809 66.6966L122.323 66.5767ZM106.011 132.591L105.891 133.076L93.0567 185.014L93.5421 185.134L118.298 191.251L118.903 190.886L123.757 192.085L124.362 191.72L126.789 192.32L127.395 191.954L129.336 192.434C129.496 191.787 130.183 191.785 131.398 192.428C131.478 192.105 132.003 192.063 132.974 192.303L133.579 191.937L134.55 192.177L135.155 191.812L136.126 192.052L136.731 191.686L137.702 191.926L139.398 191.315L139.884 191.435L140.489 191.07L140.975 191.19L143.881 189.848L144.367 189.968L149.815 186.679L149.935 186.193L151.145 185.462C151.305 184.815 151.547 184.531 151.871 184.611L151.991 184.126L153.201 183.395L153.441 182.424L154.772 181.208L155.132 179.752L155.737 179.386L156.217 177.445L156.822 177.079L157.782 173.196C158.509 173.032 158.589 172.709 158.022 172.225L158.627 171.86L158.262 171.254L159.341 166.886L158.976 166.281L159.335 164.824C159.092 164.421 159.05 163.895 159.21 163.248L158.599 161.552L158.719 161.067L158.353 160.461L158.473 159.976L158.108 159.371L158.228 158.885L157.131 157.069L157.251 156.584L155.179 152.466L154.693 152.346L153.962 151.136L153.477 151.016L152.746 149.805C152.099 149.645 151.815 149.403 151.895 149.08L151.41 148.96L151.044 148.354L150.559 148.234L150.193 147.629L149.223 147.389L148.006 146.059C146.956 146.142 146.51 145.861 146.67 145.213L145.699 144.973L145.334 144.368L143.878 144.008L143.512 143.403L141.571 142.923L141.205 142.318L138.778 141.718L138.413 141.113L134.044 140.033L133.679 139.428L106.496 132.711L106.011 132.591Z" fill="#434343" stroke="#434343"/>
</svg>
