<svg width="1248" height="1248" viewBox="0 0 1248 1248" fill="none" xmlns="http://www.w3.org/2000/svg">
<path d="M579.15 36.1734C419.055 47.8734 270.367 124.216 166.92 247.651C57.4274 378.398 9.65241 550.388 35.6849 719.551C44.6549 777.953 62.3024 834.406 88.2374 887.933C149.955 1015.37 257.01 1117.74 387.562 1174.19C582.172 1258.14 809.25 1231.33 978.412 1104.19C1001.32 1087.03 1018.97 1071.43 1042.27 1048.13C1073.77 1016.73 1095.41 990.503 1117.84 956.476C1205.39 823.973 1236.2 663.488 1204.12 507.391C1167.56 329.843 1049.2 176.866 885.787 96.1359C817.537 62.4009 746.557 42.8034 669.24 36.5634C649.642 35.0034 598.747 34.8084 579.15 36.1734ZM665.632 129.188C760.5 136.988 853.125 173.063 929.175 231.953C1075.23 344.956 1147.28 528.548 1117.25 710.776C1096.39 837.331 1026.58 952.088 923.325 1029.7C897.292 1049.2 874.185 1063.34 843.862 1078.35C787.117 1106.24 732.322 1121.64 666.412 1128.27C647.107 1130.12 594.36 1129.83 573.787 1127.69C479.895 1117.94 395.947 1085.18 321.262 1029.11C300.69 1013.71 286.845 1001.52 267.637 982.313C152.782 867.263 101.497 706.193 128.31 545.026C141.375 466.538 173.16 392.536 221.715 327.601C248.332 291.916 285.772 254.671 322.042 227.468C421.395 153.076 540.637 118.951 665.632 129.188Z" fill="white"/>
<path d="M598.163 196.658C522.405 201.338 449.67 225.225 387.075 265.98C312.195 314.73 253.598 385.905 221.52 467.123C193.928 536.933 184.373 610.74 193.635 682.988C198.218 719.063 206.798 752.018 220.448 786.825C232.343 817.05 244.725 840.743 263.738 869.213C317.46 949.845 395.655 1008.93 488.865 1039.45C566.183 1064.8 651.203 1067.53 729.788 1047.15C898.95 1003.37 1024.73 863.753 1050.08 691.763C1053.78 666.998 1054.46 656.858 1054.37 627.413C1054.37 605.963 1053.88 594.263 1052.61 583.538C1046.37 529.523 1033.21 484.38 1010 437.288C941.85 298.545 804.863 207.188 649.838 196.95C636.383 196.073 609.863 195.878 598.163 196.658ZM630.045 360.848C642.525 364.163 653.153 367.088 653.543 367.478C653.933 367.965 649.838 385.223 644.378 405.99C638.918 426.758 634.628 443.82 634.823 444.015C635.408 444.405 672.263 453.278 672.458 452.985C672.555 452.888 677.04 435.923 682.5 415.35C687.96 394.68 692.543 377.715 692.64 377.618C693.03 377.228 738.563 389.318 739.343 390C739.733 390.39 735.735 407.258 730.373 427.635C725.01 447.915 720.525 465.368 720.33 466.343C720.135 467.708 722.183 468.878 730.763 472.29C780.878 491.985 808.568 517.92 814.223 550.485C815.978 560.43 814.808 578.663 811.785 590.265C803.985 620.295 786.143 638.82 756.893 647.498L752.798 648.668L758.258 651.983C776.1 662.708 788.385 674.895 795.113 688.643C801.353 701.415 802.815 707.85 802.815 722.475C802.815 760.988 781.268 803.108 752.895 819.975C736.223 829.823 721.5 833.528 695.955 834.308C675.87 834.893 663.975 834.015 640.77 830.115C632.483 828.75 625.658 827.775 625.463 827.97C625.268 828.165 620.588 845.423 615.128 866.288C609.668 887.25 604.793 904.703 604.403 905.19C603.818 905.775 558.188 894.758 557.018 893.685C556.92 893.588 561.405 876.233 566.963 855.075C572.52 833.918 576.81 816.27 576.42 815.88C576.03 815.49 571.35 814.125 565.988 812.76C560.625 811.395 552.533 809.153 547.95 807.885C543.465 806.52 539.663 805.545 539.468 805.643C539.37 805.838 534.788 822.998 529.328 843.863C523.868 864.825 519.09 882.278 518.7 882.668C517.92 883.545 472.875 872.138 471.803 870.87C471.51 870.48 475.8 853.028 481.358 832.163C486.818 811.2 491.4 793.65 491.4 793.065C491.4 791.798 491.108 791.7 435.825 777.075C412.23 770.835 396.435 766.155 396.533 765.473C396.728 764.888 402.09 752.603 408.525 738.27L420.323 712.043L437.58 716.82C457.568 722.378 464.003 722.963 469.268 719.648C471.218 718.478 473.655 716.04 474.825 714.188C477.263 710.19 533.325 497.738 533.325 492.375C533.325 482.625 526.013 473.07 515.678 469.268C512.753 468.098 502.808 465.368 493.545 463.028C484.283 460.688 476.873 458.25 477.068 457.763C477.263 457.178 480.188 445.965 483.6 432.608C488.183 415.058 490.23 408.525 491.303 408.525C492.083 408.525 506.123 412.035 522.503 416.423C573.3 429.878 585.39 432.9 586.073 432.12C586.463 431.73 591.24 414.18 596.7 393.12C602.258 372.158 606.938 354.9 607.035 354.9C607.23 354.9 617.565 357.533 630.045 360.848Z" fill="white"/>
<path d="M620.49 501.541C620.295 502.126 614.835 522.796 608.4 547.463C601.965 572.131 596.407 592.996 596.212 593.776C595.335 596.603 635.505 606.353 656.175 608.498C692.64 612.106 713.992 600.796 720.135 574.568C726.57 547.171 707.07 525.818 662.61 511.388C644.28 505.538 621.075 499.981 620.49 501.541Z" fill="white"/>
<path d="M583.05 643.695C583.05 643.89 576.907 667.193 569.4 695.663C561.99 724.035 556.14 747.63 556.53 747.923C557.505 748.898 584.805 756.21 597.87 759.038C617.175 763.133 628.777 764.595 643.987 764.693C676.65 764.985 694.2 755.625 702.097 733.59C705.022 725.595 705.12 711.36 702.292 704.34C694.785 685.328 674.602 670.605 639.6 658.613C626.145 654.03 583.05 642.72 583.05 643.695Z" fill="white"/>
</svg>
