<svg width="16" height="16" viewBox="0 0 16 16" fill="none" xmlns="http://www.w3.org/2000/svg">
<path d="M14.4885 2.16637C14.2509 1.94235 13.8666 1.94523 13.6314 2.17097L10.636 5.07433C9.77839 4.36659 8.13944 3.42791 6.08591 5.0369C5.77619 5.20333 4.69602 5.47419 3.70805 5.95734C3.05101 6.27811 1.98546 6.68352 1.96485 6.69389C1.62906 6.86492 1.41146 7.17014 1.35085 7.55252C1.13871 8.89488 2.91221 10.9231 4.43781 12.3881C5.55125 13.4575 6.70409 14 7.86481 14C8.86005 14 9.84318 13.5825 10.6329 12.8235C11.8167 11.6861 11.5089 10.6609 11.598 10.1086C13.1745 8.21112 12.2229 6.69484 11.4907 5.8892L14.4915 2.98065C14.7273 2.75433 14.7249 2.38981 14.4867 2.16637H14.4885ZM10.2136 6.27849C11.284 7.2949 11.5155 8.07637 10.9476 8.98625L7.36361 5.5811C8.32188 5.04151 9.14378 5.26149 10.2136 6.27849ZM9.77287 12.0132C9.20433 12.5592 8.54487 12.8477 7.86602 12.8477C7.47386 12.8477 7.07261 12.7509 6.6659 12.5592C6.71742 12.5235 6.76773 12.4883 6.8138 12.4544C7.23263 12.1445 7.90239 11.526 7.93087 11.4996C8.1709 11.2778 8.17514 10.9127 7.94178 10.6853C7.70843 10.4572 7.32415 10.4532 7.08473 10.6743C7.07806 10.6801 6.43619 11.2744 6.07009 11.545C5.92523 11.6522 5.73006 11.7766 5.6058 11.8543C5.50398 11.7673 5.40275 11.6758 5.30032 11.5773C4.74269 11.0417 4.29416 10.5666 3.93413 10.1491C4.08505 10.0881 4.24931 10.019 4.39054 9.95218C4.96999 9.67749 5.93311 9.08549 5.97372 9.06073C6.25496 8.88739 6.33496 8.53093 6.15252 8.2643C5.97069 7.99767 5.5955 7.92165 5.31426 8.09441C5.30456 8.10017 4.36811 8.67605 3.84988 8.92194C3.64319 9.01984 3.36135 9.13041 3.188 9.19664C2.55763 8.28791 2.49642 7.81742 2.53703 7.71261C2.77462 7.62162 3.64259 7.28358 4.26325 6.98067C5.07666 6.58274 5.68406 6.57333 6.33018 6.22781L10.3766 10.0718C10.273 10.6114 10.6196 11.2001 9.77287 12.0132Z" fill="white"/>
</svg>
