<svg width="16" height="16" viewBox="0 0 16 16" fill="none" xmlns="http://www.w3.org/2000/svg">
<path d="M2.17333 6.87483L5.04 2.76083C5.34724 2.32002 5.75649 1.96001 6.23288 1.71148C6.70927 1.46296 7.23868 1.33328 7.776 1.3335H10.3333C11.0093 1.33579 11.6688 1.54257 12.2251 1.92666C12.7813 2.31075 13.2083 2.85418 13.45 3.4855L14.8313 7.12816C15.1912 7.37254 15.4859 7.70127 15.6896 8.08567C15.8933 8.47006 15.9999 8.89846 16 9.3335V10.3335C15.9995 10.7175 15.8666 11.0897 15.6237 11.3872C15.3808 11.6847 15.0428 11.8894 14.6667 11.9668V12.3335C14.6667 12.9523 14.4208 13.5458 13.9832 13.9834C13.5457 14.421 12.9522 14.6668 12.3333 14.6668C11.7145 14.6668 11.121 14.421 10.6834 13.9834C10.2458 13.5458 10 12.9523 10 12.3335V12.0002H6V12.3335C6 12.9523 5.75417 13.5458 5.31658 13.9834C4.879 14.421 4.2855 14.6668 3.66667 14.6668C3.04783 14.6668 2.45434 14.421 2.01675 13.9834C1.57917 13.5458 1.33333 12.9523 1.33333 12.3335V11.9668C0.957166 11.8894 0.619179 11.6847 0.376313 11.3872C0.133448 11.0897 0.000546455 10.7175 0 10.3335V10.0002C0.000966072 9.3199 0.209583 8.65615 0.597959 8.09765C0.986333 7.53916 1.53595 7.11253 2.17333 6.87483ZM6.13333 3.52283L3.944 6.66683H8.66667V2.66683H7.776C7.45346 2.66648 7.13563 2.74415 6.8496 2.8932C6.56356 3.04225 6.31782 3.25827 6.13333 3.52283ZM12.2 3.95816C12.0553 3.57985 11.7996 3.25412 11.4665 3.02368C11.1334 2.79324 10.7384 2.66885 10.3333 2.66683H10V6.66683H13.2307L12.2 3.95816ZM11.3333 12.3335C11.3333 12.5987 11.4387 12.8531 11.6262 13.0406C11.8138 13.2281 12.0681 13.3335 12.3333 13.3335C12.5985 13.3335 12.8529 13.2281 13.0404 13.0406C13.228 12.8531 13.3333 12.5987 13.3333 12.3335V12.0002H11.3333V12.3335ZM3.66667 13.3335C3.93188 13.3335 4.18624 13.2281 4.37377 13.0406C4.56131 12.8531 4.66667 12.5987 4.66667 12.3335V12.0002H2.66667V12.3335C2.66667 12.5987 2.77202 12.8531 2.95956 13.0406C3.1471 13.2281 3.40145 13.3335 3.66667 13.3335ZM1.33333 10.3335C1.33333 10.4219 1.36845 10.5067 1.43096 10.5692C1.49348 10.6317 1.57826 10.6668 1.66667 10.6668H14.3333C14.4217 10.6668 14.5065 10.6317 14.569 10.5692C14.6315 10.5067 14.6667 10.4219 14.6667 10.3335V9.3335C14.6667 8.97987 14.5262 8.64074 14.2761 8.39069C14.0261 8.14064 13.687 8.00016 13.3333 8.00016H3.33333C2.8029 8.00016 2.29419 8.21088 1.91912 8.58595C1.54405 8.96102 1.33333 9.46973 1.33333 10.0002V10.3335Z" fill="white"/>
</svg>
