<svg width="12" height="12" viewBox="0 0 12 12" fill="none" xmlns="http://www.w3.org/2000/svg">
<g clip-path="url(#clip0_2278_14813)">
<path d="M0 6C0 7.18669 0.351894 8.34673 1.01118 9.33342C1.67047 10.3201 2.60754 11.0892 3.7039 11.5433C4.80026 11.9974 6.00666 12.1162 7.17054 11.8847C8.33443 11.6532 9.40353 11.0818 10.2426 10.2426C11.0818 9.40353 11.6532 8.33443 11.8847 7.17054C12.1162 6.00666 11.9974 4.80026 11.5433 3.7039C11.0892 2.60754 10.3201 1.67047 9.33342 1.01118C8.34673 0.351894 7.18669 0 6 0C4.40923 0.00172054 2.88411 0.634414 1.75926 1.75926C0.634414 2.88411 0.00172054 4.40923 0 6ZM7.2675 3.1465L9.0605 4.9395C9.19982 5.07879 9.31033 5.24416 9.38573 5.42617C9.46112 5.60817 9.49993 5.80325 9.49993 6.00025C9.49993 6.19725 9.46112 6.39233 9.38573 6.57433C9.31033 6.75634 9.19982 6.92171 9.0605 7.061L7.2675 8.8535L7.255 8.8655C7.20822 8.91316 7.15237 8.95096 7.09074 8.97668C7.02911 9.0024 6.96295 9.01551 6.89617 9.01524C6.82939 9.01498 6.76334 9.00133 6.70191 8.97512C6.64049 8.94891 6.58495 8.91066 6.53855 8.86262C6.49215 8.81459 6.45585 8.75775 6.43178 8.69546C6.40771 8.63316 6.39637 8.56668 6.39841 8.49993C6.40046 8.43318 6.41585 8.36752 6.44369 8.30681C6.47153 8.24611 6.51125 8.1916 6.5605 8.1465L8.207 6.5L3 6.5035C2.86739 6.5035 2.74022 6.45082 2.64645 6.35705C2.55268 6.26329 2.5 6.13611 2.5 6.0035C2.5 5.87089 2.55268 5.74372 2.64645 5.64995C2.74022 5.55618 2.86739 5.5035 3 5.5035L8.2065 5.5L6.5605 3.8535C6.51275 3.80738 6.47465 3.7522 6.44845 3.6912C6.42225 3.6302 6.40845 3.56459 6.40788 3.4982C6.4073 3.43181 6.41995 3.36597 6.44509 3.30452C6.47023 3.24308 6.50736 3.18725 6.5543 3.1403C6.60125 3.09336 6.65708 3.05623 6.71852 3.03109C6.77997 3.00595 6.84581 2.9933 6.9122 2.99388C6.97859 2.99445 7.0442 3.00825 7.1052 3.03445C7.1662 3.06065 7.22138 3.09875 7.2675 3.1465Z" fill="#DEFF58"/>
</g>
<defs>
<clipPath id="clip0_2278_14813">
<rect width="12" height="12" fill="white"/>
</clipPath>
</defs>
</svg>
