<svg width="16" height="16" viewBox="0 0 16 16" fill="none" xmlns="http://www.w3.org/2000/svg">
<g clip-path="url(#clip0_2205_8622)">
<path d="M12.1427 6.06533C12.4007 6.328 12.3967 6.75 12.1333 7.008L9.18267 9.90467C8.66067 10.4167 7.98867 10.672 7.316 10.672C6.65067 10.672 5.98533 10.4213 5.46533 9.91933L4.19933 8.67467C3.93667 8.41667 3.93333 7.99467 4.19133 7.732C4.44867 7.46867 4.872 7.46533 5.134 7.724L6.396 8.96467C6.91333 9.46467 7.73 9.462 8.25 8.95267L11.2 6.05667C11.462 5.798 11.8827 5.80267 12.1427 6.06533ZM16 8C16 12.4113 12.4113 16 8 16C3.58867 16 0 12.4113 0 8C0 3.58867 3.58867 0 8 0C12.4113 0 16 3.58867 16 8ZM14.6667 8C14.6667 4.324 11.676 1.33333 8 1.33333C4.324 1.33333 1.33333 4.324 1.33333 8C1.33333 11.676 4.324 14.6667 8 14.6667C11.676 14.6667 14.6667 11.676 14.6667 8Z" fill="white"/>
</g>
<defs>
<clipPath id="clip0_2205_8622">
<rect width="16" height="16" fill="white"/>
</clipPath>
</defs>
</svg>
