<svg width="16" height="16" viewBox="0 0 16 16" fill="none" xmlns="http://www.w3.org/2000/svg">
<g clip-path="url(#clip0_2161_7822)">
<path d="M10.8653 5.52533L11.8013 6.47533L7.93933 10.28C7.68133 10.538 7.342 10.6667 7.00133 10.6667C6.66067 10.6667 6.318 10.5367 6.05733 10.2767L4.20267 8.47933L5.13133 7.52133L6.99333 9.326L10.8653 5.52533ZM16 8C16 12.4113 12.4113 16 8 16C3.58867 16 0 12.4113 0 8C0 3.58867 3.58867 0 8 0C12.4113 0 16 3.58867 16 8ZM14.6667 8C14.6667 4.324 11.676 1.33333 8 1.33333C4.324 1.33333 1.33333 4.324 1.33333 8C1.33333 11.676 4.324 14.6667 8 14.6667C11.676 14.6667 14.6667 11.676 14.6667 8Z" fill="#777777"/>
</g>
<defs>
<clipPath id="clip0_2161_7822">
<rect width="16" height="16" fill="white"/>
</clipPath>
</defs>
</svg>
