<svg width="16" height="16" viewBox="0 0 16 16" fill="none" xmlns="http://www.w3.org/2000/svg">
<path fill-rule="evenodd" clip-rule="evenodd" d="M8 2C4.68629 2 2 4.68629 2 8C2 11.3137 4.68629 14 8 14C11.3137 14 14 11.3137 14 8C14 4.68629 11.3137 2 8 2ZM0.5 8C0.5 3.85786 3.85786 0.5 8 0.5C12.1421 0.5 15.5 3.85786 15.5 8C15.5 12.1421 12.1421 15.5 8 15.5C3.85786 15.5 0.5 12.1421 0.5 8ZM7.21265 5C7.21265 4.58579 7.54843 4.25 7.96265 4.25H8.03735C8.45157 4.25 8.78735 4.58579 8.78735 5V5.075C8.78735 5.48864 8.45246 5.82419 8.03883 5.825L7.96412 5.82515C7.76495 5.82554 7.57381 5.74669 7.43284 5.606C7.29187 5.4653 7.21265 5.27431 7.21265 5.07515V5ZM8 6.5C8.41421 6.5 8.75 6.83579 8.75 7.25V11C8.75 11.4142 8.41421 11.75 8 11.75C7.58579 11.75 7.25 11.4142 7.25 11V7.25C7.25 6.83579 7.58579 6.5 8 6.5Z" fill="white"/>
</svg>
