<svg width="12" height="12" viewBox="0 0 12 12" fill="none" xmlns="http://www.w3.org/2000/svg">
<path fill-rule="evenodd" clip-rule="evenodd" d="M6 12C9.31371 12 12 9.31371 12 6C12 2.68629 9.31371 0 6 0C2.68629 0 0 2.68629 0 6C0 9.31371 2.68629 12 6 12ZM8.67286 7.66463C8.70586 7.80126 8.82341 7.89972 8.96386 7.89972C9.13132 7.89972 9.26959 7.76145 9.26359 7.59426C9.21614 6.24726 8.8515 5.16699 8.20486 4.36844L8.60768 3.96563C8.7675 3.80581 8.7675 3.54699 8.60768 3.38717C8.44786 3.22735 8.18904 3.22735 8.02923 3.38717L7.62668 3.78972C6.82786 3.1409 5.74595 2.7749 4.3965 2.72744C4.22932 2.72172 4.09105 2.85972 4.09077 3.0269C4.09077 3.16735 4.1895 3.2849 4.32586 3.3179C5.20159 3.52899 6.06559 3.9959 6.79595 4.62044L2.84714 8.56926C2.68732 8.72908 2.68732 8.9879 2.84714 9.14772C2.92705 9.22763 3.03177 9.26744 3.1365 9.26744C3.24123 9.26744 3.34595 9.22763 3.42586 9.14772L7.37414 5.1989C7.99677 5.92844 8.46232 6.79081 8.67286 7.66463Z" fill="white"/>
</svg>
