<svg width="23" height="24" viewBox="0 0 23 24" fill="none" xmlns="http://www.w3.org/2000/svg">
<path fill-rule="evenodd" clip-rule="evenodd" d="M11.5 4C7.26578 4 3.83329 7.58172 3.83329 12C3.83329 16.4183 7.26578 20 11.5 20C15.7341 20 19.1666 16.4183 19.1666 12C19.1666 7.58172 15.7341 4 11.5 4ZM1.91663 12C1.91663 6.47715 6.20723 2 11.5 2C16.7927 2 21.0833 6.47715 21.0833 12C21.0833 17.5228 16.7927 22 11.5 22C6.20723 22 1.91663 17.5228 1.91663 12ZM10.8996 6.04943C11.5978 5.93384 12.3128 6.02186 12.9662 6.30406C13.6196 6.58631 14.1853 7.05178 14.6008 7.6484C15.0167 8.24547 15.2656 8.95046 15.3211 9.68557C15.3767 10.4211 15.2361 11.1584 14.9152 11.8157C14.5944 12.473 14.1059 13.0247 13.503 13.4102C13.1772 13.6186 12.8249 13.774 12.4583 13.8727V14.0002C12.4583 14.5525 12.0292 15.0002 11.5 15.0002C10.9707 15.0002 10.5416 14.5525 10.5416 14.0002V12.9998C10.5416 12.4475 10.9707 11.9998 11.5 11.9998C11.8535 11.9998 12.2001 11.8978 12.5015 11.705C12.8028 11.5123 13.0468 11.2367 13.2074 10.9079C13.3679 10.5791 13.4381 10.2104 13.4104 9.84275C13.3826 9.47466 13.258 9.12235 13.0504 8.82426C12.8424 8.52571 12.5595 8.293 12.2331 8.15199C11.9065 8.01093 11.5492 7.96691 11.2 8.02472C10.8507 8.08256 10.5232 8.24016 10.2546 8.47969C9.98572 8.71944 9.78595 9.03158 9.67687 9.38229C9.5135 9.90761 8.97295 10.1953 8.46952 10.0248C7.9661 9.8543 7.69043 9.29025 7.85381 8.76493C8.07209 8.06307 8.47198 7.43848 9.00934 6.95928C9.54695 6.47985 10.2015 6.165 10.8996 6.04943ZM10.4939 17C10.4939 16.4477 10.923 16 11.4522 16H11.5477C12.077 16 12.506 16.4477 12.506 17V17.1C12.506 17.6515 12.0781 18.0989 11.5496 18.1L11.4541 18.1002C11.1996 18.1007 10.9554 17.9956 10.7752 17.808C10.5951 17.6204 10.4939 17.3658 10.4939 17.1002V17Z" fill="white"/>
</svg>
