<svg width="10" height="10" viewBox="0 0 10 10" fill="none" xmlns="http://www.w3.org/2000/svg">
<path d="M9.878 0.121997C9.79987 0.0438822 9.6939 0 9.58341 0C9.47293 0 9.36696 0.0438822 9.28883 0.121997L5 4.41082L0.711174 0.121997C0.633036 0.0438822 0.527072 0 0.416585 0C0.306098 0 0.200134 0.0438822 0.121997 0.121997C0.0438822 0.200134 0 0.306098 0 0.416585C0 0.527072 0.0438822 0.633036 0.121997 0.711174L4.41082 5L0.121997 9.28883C0.0438822 9.36696 0 9.47293 0 9.58341C0 9.6939 0.0438822 9.79987 0.121997 9.878C0.200134 9.95612 0.306098 10 0.416585 10C0.527072 10 0.633036 9.95612 0.711174 9.878L5 5.58918L9.28883 9.878C9.36696 9.95612 9.47293 10 9.58341 10C9.6939 10 9.79987 9.95612 9.878 9.878C9.95612 9.79987 10 9.6939 10 9.58341C10 9.47293 9.95612 9.36696 9.878 9.28883L5.58918 5L9.878 0.711174C9.95612 0.633036 10 0.527072 10 0.416585C10 0.306098 9.95612 0.200134 9.878 0.121997Z" fill="white"/>
</svg>
