<svg width="14" height="14" viewBox="0 0 14 14" fill="none" xmlns="http://www.w3.org/2000/svg">
<path fill-rule="evenodd" clip-rule="evenodd" d="M0.292893 0.292893C0.683417 -0.0976311 1.31658 -0.0976311 1.70711 0.292893L7.00002 5.5858L12.2929 0.292893C12.6835 -0.0976311 13.3166 -0.0976311 13.7071 0.292893C14.0977 0.683417 14.0977 1.31658 13.7071 1.70711L8.41423 7.00002L13.7071 12.2929C14.0976 12.6834 14.0976 13.3165 13.7071 13.7071C13.3165 14.0976 12.6834 14.0976 12.2929 13.7071L7.00002 8.41423L1.70711 13.7071C1.31658 14.0977 0.683417 14.0977 0.292893 13.7071C-0.0976311 13.3166 -0.0976311 12.6835 0.292893 12.2929L5.5858 7.00002L0.292893 1.70711C-0.0976311 1.31658 -0.0976311 0.683417 0.292893 0.292893Z" fill="white"/>
</svg>
