<svg width="20" height="16" viewBox="0 0 20 16" fill="none" xmlns="http://www.w3.org/2000/svg">
<path d="M15.8335 12.8333H5.00016C2.69898 12.8333 0.833496 10.9678 0.833496 8.66666C0.833496 6.4583 2.55152 4.65114 4.72392 4.50895C5.00388 3.91698 5.38127 3.3798 5.83423 2.91756M15.8335 12.8333L4.16683 1.16666M15.8335 12.8333L17.5002 14.5M8.3335 1.40823C8.86159 1.25106 9.42102 1.16666 10.0002 1.16666C12.9391 1.16666 15.3704 3.34002 15.7745 6.16718C15.7941 6.16684 15.8146 6.16666 15.8343 6.16666C17.6753 6.16666 19.1664 7.65905 19.1664 9.5C19.1664 10.2883 18.8935 11.0127 18.436 11.5833" stroke="#DA415C" stroke-width="1.5" stroke-linecap="round" stroke-linejoin="round"/>
</svg>
