<svg width="180" height="181" viewBox="0 0 180 181" fill="none" xmlns="http://www.w3.org/2000/svg">
<path d="M154.261 3.18848C123.204 7.26439 112.443 34.8385 110.944 48.1161C108.493 57.6883 109.31 73.8684 132.194 62.0112C155.078 50.1541 156.44 17.8556 154.261 3.18848Z" fill="black"/>
<path d="M115.154 0.322508C90.4403 17.1611 92.6913 44.0511 96.906 55.3913C98.7786 64.1656 106.161 76.8309 120.712 57.2977C135.262 37.7645 123.069 11.1754 115.154 0.322508Z" fill="black"/>
<path d="M89.5 29.1885C131.197 29.1885 165 62.991 165 104.688C165 146.386 131.197 180.188 89.5 180.188C47.8025 180.188 14 146.386 14 104.688C14 62.991 47.8025 29.1885 89.5 29.1885ZM48.0527 127.003C47.8246 125.924 46.7459 125.525 46.46 126.486C45.5867 129.423 45.2368 134.356 47.6084 140.707C49.7436 146.425 53.4053 150.514 56.4971 153.027C57.4619 153.812 58.1781 152.601 57.4736 151.495C52.4446 143.603 49.4022 133.39 48.0527 127.003ZM65.7812 111.914C65.9195 111.018 64.6498 110.59 63.8604 111.326C60.7602 114.218 57.208 119.616 58.0234 127.105C58.7771 134.027 63.5794 139.102 67.7861 142.068C68.772 142.763 70.1924 141.827 69.6719 140.879C64.4716 131.413 64.6773 119.051 65.7812 111.914ZM34.293 115.225C34.2133 114.077 32.6678 113.887 32.126 115.028C30.8422 117.732 29.9454 121.855 31.2734 127.04C32.4202 131.517 35.0401 134.918 37.6455 137.256C38.7118 138.213 40.3041 137.053 39.6709 135.849C36.0971 129.056 34.6764 120.75 34.293 115.225ZM51.9707 81.2637C52.2274 80.1536 50.7464 79.5282 49.8594 80.4346C46.8426 83.5185 43.3841 89.2641 43.0254 98.0674C42.6999 106.059 45.6173 112.827 48.6201 117.37C49.4091 118.563 51.3178 117.922 51.0146 116.608C48.1514 104.207 50.0247 89.6804 51.9707 81.2637ZM41.7246 76.5576C42.183 75.6147 41.5484 74.6911 40.749 75.249C38.2035 77.0271 34.8101 80.7456 32.7881 87.3291C30.9585 93.2861 31.4557 98.8793 32.4531 102.8C32.7483 103.96 34.0424 103.494 34.1396 102.251C34.8851 92.7187 38.8327 82.5067 41.7246 76.5576ZM69.5254 74.2285C69.9319 73.382 68.5537 72.6297 67.5518 73.2061C64.1441 75.1671 59.9326 79.1868 58.3672 86.1846C56.9461 92.5369 58.9011 98.4592 61.2461 102.611C61.8623 103.702 63.838 103.511 63.7188 102.406C62.5928 91.9765 66.4433 80.647 69.5254 74.2285Z" fill="black"/>
</svg>
