<svg width="24" height="27" viewBox="0 0 24 27" fill="none" xmlns="http://www.w3.org/2000/svg">
<path d="M18.3008 13.3253C18.4141 13.2863 18.5367 13.2863 18.6501 13.3253L22.1111 14.5181C22.6614 14.7071 23.1402 15.0705 23.4793 15.5566C23.8183 16.0428 24.0005 16.627 24 17.2263V20.148C24 24.4664 18.9173 26.8515 18.6996 26.9509C18.6291 26.9832 18.5528 27 18.4756 27C18.3983 27 18.3218 26.9833 18.2512 26.9509C18.0336 26.8515 12.9508 24.4664 12.9508 20.148V17.2263C12.9503 16.627 13.1323 16.0428 13.4713 15.5566C13.8103 15.0705 14.2891 14.7072 14.8393 14.5181L18.3008 13.3253ZM15.0421 0C15.6324 0.745892 16.3827 2.03422 16.7111 3.47092C17.7107 2.10275 19.3428 0.85448 21.8724 0.552221C22.1668 2.35578 22.0301 6.11023 19.4953 8.02337C20.6885 9.53563 21.515 11.3718 21.8351 13.3857L18.6478 12.2871C18.5163 12.2418 18.374 12.2418 18.2425 12.2871L14.2261 13.6713C13.5877 13.8907 13.0324 14.3125 12.6391 14.8766C12.2458 15.4408 12.0345 16.1189 12.0351 16.8143V20.2048C12.0351 22.6694 13.4617 24.5911 14.9415 25.9218C13.7155 26.4126 12.384 26.6825 10.9917 26.6825C4.92116 26.6825 4.34366e-05 21.5685 0 15.2603C3.31021e-05 8.95202 4.92115 3.83807 10.9917 3.83805C11.3686 3.83805 11.7411 3.85786 12.1082 3.89635C12.4341 2.53921 13.274 1.11018 15.0421 0ZM18.506 18.0894C17.8991 18.0894 17.407 18.5847 17.407 19.1956C17.4071 19.6539 17.684 20.0471 18.0785 20.215L17.752 21.7151C17.6936 21.9834 17.8966 22.2375 18.1695 22.2375H18.8994C19.1768 22.2375 19.3807 21.9755 19.3144 21.7044L18.948 20.2086C19.3347 20.0374 19.6048 19.6482 19.6049 19.1956C19.6049 18.5847 19.1128 18.0894 18.506 18.0894ZM5.15831 18.6826C5.13996 18.4556 4.89504 18.3734 4.81748 18.5848C4.69796 18.9107 4.64094 19.3644 4.79704 19.9197C4.93611 20.4143 5.13592 20.7767 5.34969 21.035C5.51153 21.2306 5.71626 21.0521 5.62409 20.8192C5.33082 20.0779 5.20733 19.29 5.15831 18.6826ZM7.05056 17.1183C7.04396 16.8901 6.81388 16.8113 6.73501 17.0239C6.609 17.3638 6.52771 17.855 6.62157 18.4947C6.72169 19.177 6.91865 19.7643 7.13002 20.1765C7.24049 20.392 7.44884 20.2951 7.40315 20.0592C7.20611 19.0415 7.08248 18.239 7.05056 17.1183ZM3.14701 17.0896C3.13924 16.8548 2.96171 16.8083 2.90377 17.0335C2.77467 17.5358 2.67829 18.2553 2.78318 18.8453C2.8405 19.1676 2.94647 19.4564 3.0724 19.7053C3.20057 19.9585 3.48666 19.7975 3.42499 19.5235C3.23993 18.7012 3.16892 17.7547 3.14701 17.0896ZM5.22015 11.8767C5.25529 11.6384 5.0291 11.5259 4.91227 11.7367C4.66542 12.1823 4.42811 12.8837 4.39922 13.8717C4.37513 14.696 4.53522 15.4236 4.74185 15.9933C4.83893 16.2609 5.13227 16.149 5.10083 15.8662C4.94276 14.4483 5.06766 12.9087 5.22015 11.8767ZM6.93814 11.2682C6.98277 11.029 6.77021 10.9199 6.65504 11.1361C6.45714 11.5078 6.27243 12.0566 6.22375 12.8027C6.17696 13.5201 6.3012 14.1512 6.46776 14.637C6.55454 14.8901 6.82434 14.7966 6.80221 14.5286C6.70937 13.4039 6.73736 12.3432 6.93814 11.2682ZM3.59414 11.2613C3.66367 11.036 3.46095 10.8872 3.30619 11.0689C3.01584 11.4099 2.71207 11.9536 2.58286 12.7403C2.47646 13.3882 2.55457 13.9772 2.69579 14.4507C2.77421 14.7133 3.08134 14.6052 3.08211 14.3285C3.08487 13.2228 3.34678 12.0623 3.59414 11.2613Z" fill="white"/>
</svg>
