<svg width="28" height="24" viewBox="0 0 28 24" fill="none" xmlns="http://www.w3.org/2000/svg">
<g clip-path="url(#clip0_4932_15591)">
<path fill-rule="evenodd" clip-rule="evenodd" d="M4.29808 15.1969C3.63397 14.5246 3.50556 13.1902 3.95502 11.6265C4.41824 10.0155 5.44099 8.35144 6.83523 6.94188C8.37164 5.38744 10.2355 4.27594 11.949 3.89335C13.2716 3.60085 14.3999 3.77357 14.9943 4.3753C15.6593 5.04852 15.7877 6.38285 15.3382 7.9466C14.876 9.55768 13.8532 11.2217 12.459 12.6313C10.9216 14.1857 9.05776 15.2972 7.34523 15.6798C6.91779 15.7745 6.51418 15.8209 6.1427 15.8209C5.34928 15.8209 4.70627 15.6082 4.29808 15.1969ZM18.0668 10.7767L21.9452 9.47202C21.647 6.92766 20.5229 4.57251 18.7046 2.73264L17.5057 1.58213C14.476 -1.29367 8.7257 -0.0911617 4.3054 4.38363C-0.101122 8.84451 -1.29356 14.6435 1.51326 17.7161L2.67452 18.9604C4.88421 21.1983 7.78734 22.3163 10.6896 22.3163C12.8337 22.3163 14.9784 21.7055 16.8436 20.4844C16.2624 19.5242 15.8745 18.4133 15.8745 17.1583V13.8464C15.8738 13.1672 16.0853 12.505 16.4788 11.9539C16.8724 11.4028 17.4281 10.9909 18.0668 10.7767ZM2.94694 16.5638C5.1392 18.7812 10.053 17.549 13.6826 13.8755C17.3113 10.2012 18.5276 5.22493 16.339 3.00749C15.5978 2.25813 14.5457 1.90249 13.3377 1.90249C10.9721 1.90249 8.00657 3.26378 5.60334 5.69573C1.97464 9.3701 0.758354 14.3463 2.94694 16.5638ZM26.1875 11.9341L22.8663 10.7833C22.7575 10.7457 22.64 10.7457 22.5312 10.7833L19.2095 11.9341C18.6815 12.1165 18.2223 12.4671 17.897 12.9361C17.5717 13.4051 17.397 13.9688 17.3975 14.5469V17.3658C17.3975 21.5321 22.2746 23.8331 22.4835 23.9289C22.5513 23.9602 22.6246 23.9763 22.6987 23.9763C22.7729 23.9763 22.8462 23.9602 22.914 23.9289C23.1228 23.8331 28 21.5321 28 17.3658V14.5469C28.0005 13.9687 27.8256 13.405 27.5003 12.936C27.1749 12.4669 26.7155 12.1164 26.1875 11.9341ZM23.1522 17.4241C23.5233 17.2588 23.7824 16.8834 23.7824 16.4467C23.7824 15.8574 23.3104 15.3796 22.7281 15.3796C22.1457 15.3796 21.6736 15.8574 21.6736 16.4467C21.6736 16.8889 21.9393 17.2683 22.318 17.4302L22.0045 18.8777C21.9484 19.1365 22.1432 19.3815 22.405 19.3815H23.1057C23.3719 19.3815 23.5675 19.1287 23.5038 18.8672L23.1522 17.4241Z" fill="white"/>
</g>
<defs>
<clipPath id="clip0_4932_15591">
<rect width="28" height="24" fill="white"/>
</clipPath>
</defs>
</svg>
