<svg width="23" height="25" viewBox="0 0 23 25" fill="none" xmlns="http://www.w3.org/2000/svg">
<path d="M17.222 10.6259C17.3369 10.5849 17.4611 10.5849 17.576 10.6259L21.085 11.8798C21.6429 12.0784 22.1282 12.4603 22.472 12.9713C22.8158 13.4824 23.0005 14.0965 23 14.7265V17.7977C23 22.3368 17.8473 24.8438 17.6264 24.9483C17.5548 24.9824 17.4773 25 17.399 25C17.3207 25 17.2432 24.9824 17.1716 24.9483C16.9509 24.8439 11.798 22.3369 11.798 17.7977V14.7265C11.7974 14.0966 11.9821 13.4825 12.3258 12.9714C12.6694 12.4604 13.1546 12.0785 13.7124 11.8798L17.222 10.6259ZM11.6263 0C11.9776 0.492962 12.402 1.26204 12.6946 2.15264C13.4684 1.27007 14.5762 0.544664 16.121 0.337158C16.3189 1.70005 16.2627 4.35709 14.9339 6.10078C15.8684 7.09566 16.5786 8.31272 16.981 9.66707L13.1913 11.0211C12.5546 11.2479 12.0009 11.6839 11.6087 12.2671C11.2164 12.8504 11.0056 13.5513 11.0062 14.2702V17.7755C11.0062 18.8151 11.2432 19.7612 11.6238 20.6106C10.7039 20.9504 9.71199 21.1358 8.67767 21.1358C3.88513 21.1358 0 17.1596 0 12.2546C1.51653e-05 7.34968 3.88513 3.37342 8.67767 3.37342C8.90292 3.37342 9.12615 3.38224 9.34708 3.39949C9.5903 2.21829 10.2382 0.967935 11.6263 0ZM17.43 15.6337C16.8147 15.6337 16.316 16.1543 16.316 16.7964C16.316 17.2782 16.5966 17.6914 16.9966 17.8679L16.6655 19.4449C16.6063 19.7269 16.812 19.9939 17.0887 19.9939H17.8289C18.1102 19.9939 18.3169 19.7184 18.2496 19.4334L17.8782 17.8612C18.2702 17.6812 18.544 17.2722 18.544 16.7964C18.544 16.1543 18.0452 15.6337 17.43 15.6337ZM4.0525 14.8491C4.04581 14.7453 3.93207 14.7042 3.88336 14.7955C3.7346 15.0744 3.60965 15.5455 3.76415 16.1592C3.90326 16.7117 4.24139 17.1122 4.54323 17.3605C4.63742 17.4379 4.73844 17.3239 4.67893 17.2163C4.25421 16.4485 4.09212 15.4637 4.0525 14.8491ZM5.63736 13.1806C5.64452 13.0767 5.53501 13.0201 5.47203 13.1019C5.22475 13.4234 4.95196 14.0353 5.05898 14.914C5.15789 15.726 5.58958 16.3436 5.96017 16.7119C6.04702 16.7981 6.1623 16.6961 6.1135 16.5828C5.62589 15.4505 5.58038 14.0082 5.63736 13.1806ZM2.46046 13.5717C2.44787 13.4659 2.33593 13.4391 2.30388 13.5404C2.22795 13.7806 2.18828 14.1532 2.31455 14.6369C2.42357 15.0545 2.63188 15.3825 2.83277 15.6129C2.91498 15.7072 3.02222 15.6106 2.96959 15.4963C2.6726 14.8514 2.521 14.0808 2.46046 13.5717ZM3.96597 10.2836C3.98407 10.1774 3.87959 10.1175 3.81702 10.2042C3.60421 10.4993 3.36024 11.0492 3.33494 11.8916C3.31197 12.6564 3.51775 13.3041 3.72958 13.7388C3.78523 13.853 3.91987 13.7917 3.89851 13.666C3.69653 12.4792 3.82869 11.0891 3.96597 10.2836ZM3.05074 9.48281C3.09845 9.39067 3.02197 9.29532 2.93367 9.34737C2.65255 9.51311 2.28408 9.86891 2.08479 10.5177C1.90445 11.1048 1.98697 11.6666 2.11857 12.0635C2.15752 12.1809 2.30242 12.1405 2.3077 12.0166C2.34818 11.0668 2.74959 10.0641 3.05074 9.48281ZM5.98588 8.62424C6.02127 8.52266 5.9282 8.44559 5.8522 8.52027C5.5937 8.77433 5.26247 9.27409 5.09838 10.1C4.94943 10.8498 5.04526 11.5238 5.18222 11.9889C5.21822 12.1111 5.3611 12.0739 5.3608 11.9463C5.35776 10.7416 5.71753 9.39435 5.98588 8.62424Z" fill="white"/>
</svg>
