<svg width="24" height="24" viewBox="0 0 24 24" fill="none" xmlns="http://www.w3.org/2000/svg">
<path d="M3.59998 1.2C3.59998 0.537258 4.13723 0 4.79998 0H16.8C17.4627 0 18 0.537258 18 1.2V2.4C18 3.06274 17.4627 3.6 16.8 3.6H4.79998C4.13723 3.6 3.59998 3.06274 3.59998 2.4V1.2Z" fill="white"/>
<path fill-rule="evenodd" clip-rule="evenodd" d="M1.2 4.8C0.537305 4.8 0 5.33725 0 6V7.2C0 7.86275 0.537305 8.4 1.2 8.4H11.707C12.5272 7.92654 13.429 7.57872 14.3861 7.38285C14.3952 7.32323 14.4 7.26216 14.4 7.2V6C14.4 5.33725 13.8627 4.8 13.2 4.8H1.2Z" fill="white"/>
<path fill-rule="evenodd" clip-rule="evenodd" d="M10.0812 9.6H1.2C0.537305 9.6 0 10.1372 0 10.8V12C0 12.6627 0.537305 13.2 1.2 13.2H7.71211C8.20269 11.8122 9.02388 10.5806 10.0812 9.6Z" fill="white"/>
<path fill-rule="evenodd" clip-rule="evenodd" d="M7.38005 14.4H3.60002C2.93733 14.4 2.40002 14.9373 2.40002 15.6V16.8C2.40002 17.4628 2.93733 18 3.60002 18H7.38005C7.26199 17.4184 7.20002 16.8164 7.20002 16.2C7.20002 15.5836 7.26199 14.9816 7.38005 14.4Z" fill="white"/>
<path fill-rule="evenodd" clip-rule="evenodd" d="M7.71211 19.2H1.2C0.537305 19.2 0 19.7372 0 20.4V21.6C0 22.2627 0.537305 22.8 1.2 22.8H10.0812C9.02388 21.8194 8.20269 20.5878 7.71211 19.2Z" fill="white"/>
<path fill-rule="evenodd" clip-rule="evenodd" d="M16.2 24C20.5078 24 24 20.5078 24 16.2C24 11.8922 20.5078 8.4 16.2 8.4C11.8922 8.4 8.40002 11.8922 8.40002 16.2C8.40002 20.5078 11.8922 24 16.2 24ZM19.6905 15.4713C19.8642 14.4731 19.0912 13.9074 18.0194 13.4969L18.3919 12.146L17.5421 11.9117L17.1803 13.2285L17.0139 13.1812C16.9121 13.1522 16.811 13.1233 16.7095 13.0956C16.6436 13.0776 16.5774 13.0601 16.5104 13.0435L16.8728 11.7269L16.0002 11.4864L15.6378 12.8029L13.9046 12.3257L13.6576 13.2258C13.6576 13.2258 14.2998 13.3852 14.277 13.3968C14.6208 13.4981 14.6797 13.7212 14.6609 13.8882L14.2297 15.4189L13.6376 17.5734C13.5908 17.6752 13.476 17.8174 13.2409 17.7534C13.2507 17.7633 12.6158 17.5731 12.6158 17.5731L12.2017 18.5154L13.8829 19.0159L13.5129 20.3602L14.3571 20.5935L14.7271 19.2492C14.8632 19.2911 15.0002 19.3272 15.1329 19.3622C15.2326 19.3881 15.3296 19.4137 15.4215 19.4404L15.0514 20.7847L15.8968 21.0177L16.2668 19.6734C17.7219 20 18.8195 19.94 19.3059 18.674C19.6969 17.6643 19.3263 17.0576 18.5592 16.6304C19.1343 16.5338 19.5592 16.1978 19.6905 15.4713ZM15.7538 15.5368L15.7119 15.524L16.1592 13.9081C16.2022 13.9206 16.2566 13.9343 16.3191 13.95L16.3414 13.9556L16.3445 13.9565C16.9513 14.1114 18.2505 14.4431 18.0175 15.2929C17.7678 16.1875 16.2618 15.7015 15.7538 15.5368ZM14.9792 18.1579L15.0529 18.1813L15.0542 18.1818C15.681 18.3824 17.4532 18.9497 17.6909 18.0615C17.9354 17.2071 16.3439 16.7861 15.6287 16.5969L15.6265 16.5963L15.6134 16.5928C15.5403 16.5737 15.4774 16.5573 15.4269 16.5422L14.9792 18.1579Z" fill="white"/>
</svg>
