<svg width="20" height="20" viewBox="0 0 20 20" fill="none" xmlns="http://www.w3.org/2000/svg">
<path fill-rule="evenodd" clip-rule="evenodd" d="M10.1347 1.66699H14.8656C15.3049 1.66698 15.6838 1.66697 15.9959 1.69247C16.3253 1.71939 16.6529 1.77883 16.9682 1.93948C17.4381 2.17892 17.8211 2.56096 18.061 3.03183C18.2216 3.34715 18.2811 3.67483 18.308 4.00429C18.3335 4.31642 18.3335 4.69539 18.3335 5.13467V9.86564C18.3335 10.3049 18.3335 10.6839 18.308 10.996C18.2811 11.3255 18.2216 11.6532 18.061 11.9685C17.8212 12.439 17.4382 12.8218 16.9679 13.0614C16.6529 13.2219 16.3255 13.2813 15.9964 13.3082C15.6847 13.3337 15.3064 13.3337 14.868 13.3337H13.3333V14.8683C13.3333 15.3067 13.3333 15.6851 13.3078 15.9968C13.2809 16.3259 13.2215 16.6532 13.061 16.9683C12.8214 17.4385 12.4389 17.8215 11.9682 18.0614C11.6531 18.2219 11.3258 18.2813 10.9968 18.3082C10.6851 18.3337 10.3067 18.3337 9.86835 18.3337H5.13195C4.69354 18.3337 4.31508 18.3337 4.00326 18.3082C3.67417 18.2813 3.34662 18.2219 3.03146 18.0614C2.56059 17.8214 2.17856 17.4385 1.93911 16.9686C1.77847 16.6533 1.71903 16.3257 1.6921 15.9962C1.6666 15.6841 1.66661 15.3052 1.66663 14.866V10.1351C1.66661 9.69575 1.6666 9.3167 1.6921 9.00448C1.71901 8.67501 1.77842 8.3472 1.93911 8.03183C2.17879 7.56143 2.56106 7.17916 3.03147 6.93948C3.34683 6.77879 3.67464 6.71938 4.00411 6.69247C4.31633 6.66697 4.69538 6.66698 5.13469 6.66699L6.66663 6.66699L6.66663 5.13505C6.66661 4.69574 6.6666 4.3167 6.6921 4.00448C6.71901 3.67501 6.77842 3.3472 6.93911 3.03183C7.17879 2.56143 7.56106 2.17916 8.03147 1.93948C8.34683 1.77879 8.67464 1.71938 9.00411 1.69247C9.31633 1.66697 9.69538 1.66698 10.1347 1.66699ZM8.33329 6.66699L9.86559 6.66699C10.3049 6.66698 10.6838 6.66697 10.9959 6.69247C11.3253 6.71939 11.6529 6.77883 11.9682 6.93948C12.4381 7.17892 12.8211 7.56096 13.061 8.03183C13.2216 8.34699 13.2809 8.67455 13.3078 9.00364C13.3333 9.31546 13.3333 9.69393 13.3333 10.1323L13.3333 11.667H14.8359C15.3154 11.667 15.625 11.6663 15.8606 11.6471C16.0865 11.6286 16.1702 11.5973 16.2113 11.5763C16.3683 11.4964 16.4962 11.3685 16.576 11.2118C16.597 11.1706 16.6284 11.0867 16.6469 10.8603C16.6662 10.6242 16.6668 10.314 16.6668 9.8335V5.16681C16.6668 4.68635 16.6662 4.37612 16.6469 4.14001C16.6284 3.91362 16.597 3.82969 16.576 3.78848C16.4963 3.63215 16.3688 3.50462 16.2115 3.42449C16.1703 3.40348 16.0864 3.37209 15.8601 3.3536C15.6241 3.33431 15.3139 3.33366 14.8335 3.33366H10.1668C9.68634 3.33366 9.37601 3.33431 9.13979 3.3536C8.91325 3.3721 8.82927 3.40352 8.78812 3.42449C8.63131 3.50438 8.50402 3.63168 8.42412 3.78848C8.40315 3.82964 8.37174 3.91362 8.35323 4.14016C8.33394 4.37637 8.33329 4.6867 8.33329 5.16716V6.66699ZM4.13979 8.3536C3.91325 8.3721 3.82927 8.40352 3.78812 8.42449C3.63131 8.50438 3.50402 8.63168 3.42412 8.78848C3.40315 8.82964 3.37174 8.91362 3.35324 9.14016C3.33394 9.37637 3.33329 9.6867 3.33329 10.1672V14.8338C3.33329 15.3143 3.33394 15.6244 3.35323 15.8605C3.37172 16.0868 3.40311 16.1707 3.42412 16.2119C3.50425 16.3692 3.63178 16.4967 3.78812 16.5763C3.82913 16.5972 3.91291 16.6286 4.13901 16.6471C4.37479 16.6663 4.68451 16.667 5.16405 16.667H9.83625C10.3158 16.667 10.6253 16.6663 10.8609 16.6471C11.0867 16.6286 11.1704 16.5973 11.2115 16.5763C11.3681 16.4966 11.4959 16.3687 11.576 16.2117C11.5969 16.1706 11.6282 16.0869 11.6467 15.861C11.666 15.6254 11.6666 15.3158 11.6666 14.8362L11.6666 10.1644C11.6666 9.6849 11.666 9.37517 11.6467 9.13938C11.6282 8.91328 11.5969 8.8295 11.576 8.78848C11.4963 8.63215 11.3688 8.50462 11.2115 8.42449C11.1703 8.40348 11.0864 8.37209 10.8601 8.3536C10.6241 8.33431 10.3139 8.33366 9.83346 8.33366H5.16679C4.68634 8.33366 4.37601 8.33431 4.13979 8.3536Z" fill="#FCFCFC"/>
</svg>
