<svg width="11" height="10" viewBox="0 0 11 10" fill="none" xmlns="http://www.w3.org/2000/svg">
<g clip-path="url(#clip0_1204_3516)">
<path d="M4.61584 7.55084C5.10385 8.03916 5.8953 8.03941 6.38362 7.55141C6.38381 7.55121 6.38399 7.55103 6.38418 7.55084L7.72209 6.21293C7.87643 6.04225 7.86317 5.77875 7.69249 5.62441C7.53356 5.48072 7.29157 5.48098 7.13293 5.625L5.91377 6.84459L5.91668 0.41668C5.91667 0.186543 5.73012 0 5.50001 0C5.26989 0 5.08334 0.186543 5.08334 0.41666L5.07959 6.83666L3.86709 5.625C3.70428 5.4623 3.44042 5.4624 3.27772 5.62521C3.11502 5.78803 3.11512 6.05189 3.27793 6.21459L4.61584 7.55084Z" fill="black"/>
<path d="M10.0833 6.66669C9.85322 6.66669 9.66668 6.85323 9.66668 7.08335V8.75003C9.66668 8.98014 9.48014 9.16669 9.25002 9.16669H1.75C1.51988 9.16669 1.33334 8.98014 1.33334 8.75003V7.08337C1.33334 6.85325 1.1468 6.66671 0.91668 6.66671C0.686543 6.66669 0.5 6.85325 0.5 7.08337V8.75003C0.5 9.44038 1.05965 10 1.75 10H9.25C9.94035 10 10.5 9.44038 10.5 8.75003V7.08337C10.5 6.85325 10.3135 6.66669 10.0833 6.66669Z" fill="black"/>
</g>
<defs>
<clipPath id="clip0_1204_3516">
<rect width="10" height="10" fill="white" transform="translate(0.5)"/>
</clipPath>
</defs>
</svg>
