<svg width="24" height="24" viewBox="0 0 24 24" fill="none" xmlns="http://www.w3.org/2000/svg">
<path d="M24 16C24 19.309 21.309 22 18 22C17.267 22 16.544 21.859 15.845 21.58C14.767 22.501 13.426 23 12 23C9.834 23 7.863 21.842 6.802 19.997C3.585 19.892 1 17.242 1 14C1 10.691 3.691 8 7 8C7.553 8 8.096 8.075 8.62 8.223C9.848 6.82 11.621 6 13.5 6C16.228 6 18.646 7.71 19.584 10.228C22.177 10.931 24 13.267 24 16ZM22 16C22 14.04 20.59 12.386 18.646 12.068L18.007 11.964L17.84 11.338C17.318 9.373 15.532 8 13.499 8C12.02 8 10.635 8.736 9.792 9.97L9.328 10.65L8.571 10.325C8.072 10.11 7.543 10.001 6.999 10.001C4.793 10.001 2.999 11.795 2.999 14.001C2.999 16.207 4.793 18.001 6.999 18.001C7.036 18.001 8.037 17.907 8.037 17.907L8.319 18.568C8.949 20.046 10.393 21.001 11.999 21.001C13.107 21.001 14.142 20.542 14.909 19.709L15.434 19.139L16.118 19.506C16.729 19.834 17.362 20.001 17.999 20.001C20.205 20.001 21.999 18.207 21.999 16.001L22 16Z" fill="white"/>
<path d="M2.75257 5.39107L2.75189 5.39295L2.75007 5.39223M8.82089 3.34765L8.8202 3.34953L8.81838 3.34882L8.81905 3.34698L8.82089 3.34765ZM5.0633 1.97632L5.06262 1.97819L5.0608 1.97748L5.06147 1.97565L5.0633 1.97632Z" stroke="white" stroke-width="2" stroke-linecap="round" stroke-linejoin="round"/>
<path d="M12.935 15.7961C13.4504 15.5977 14.0291 15.8545 14.2276 16.3699L14.2283 16.3717C14.3251 16.6231 14.3162 16.9033 14.204 17.1482C14.0917 17.3929 13.8852 17.5824 13.6317 17.6731L13.6299 17.6738C13.1188 17.8565 12.5552 17.5978 12.3601 17.0913L12.3594 17.0894C12.1609 16.574 12.4178 15.9953 12.9332 15.7968L12.935 15.7961ZM16.6677 14.3585C17.1831 14.16 17.7618 14.4169 17.9603 14.9323L17.961 14.9341C18.0578 15.1855 18.0489 15.4657 17.9367 15.7106C17.8244 15.9553 17.618 16.1448 17.3645 16.2355L17.3626 16.2362C16.8515 16.4188 16.2879 16.1602 16.0928 15.6536L16.0921 15.6518C15.8936 15.1364 16.1505 14.5577 16.6659 14.3592L16.6677 14.3585Z" fill="white"/>
</svg>
