<svg width="6" height="6" viewBox="0 0 6 6" fill="none" xmlns="http://www.w3.org/2000/svg">
<path fill-rule="evenodd" clip-rule="evenodd" d="M4.12734 0.170324C4.26123 0.126819 4.40547 0.126819 4.53937 0.170324C4.63584 0.201669 4.70972 0.254794 4.76788 0.304164C4.82083 0.349112 4.87859 0.406882 4.9378 0.466108L5.53275 1.06106C5.59225 1.12054 5.6502 1.17848 5.69526 1.23155C5.74473 1.28983 5.79794 1.36381 5.82932 1.46039C5.87283 1.59431 5.87281 1.73854 5.82931 1.87241C5.79795 1.96894 5.74479 2.04287 5.69535 2.10112C5.65033 2.15415 5.59245 2.21202 5.53304 2.27141L5.52247 2.28198L1.90237 5.90207C1.83986 5.96459 1.75507 5.9997 1.66667 5.9997L0.333335 5.99971C0.244929 5.99971 0.160144 5.96459 0.0976318 5.90208C0.0351192 5.83957 0 5.75479 0 5.66638V4.33305C0 4.24464 0.0351189 4.15986 0.0976311 4.09734L2.7643 1.43068L3.72216 0.472812L3.72859 0.466384C3.78789 0.407067 3.84571 0.349236 3.89871 0.304247C3.95691 0.254845 4.03082 0.201684 4.12734 0.170324ZM3 2.13778L0.666667 4.47112V5.33304L1.52859 5.33304L3.86193 2.99971L3 2.13778ZM4.33333 2.5283L5.05691 1.80472C5.12494 1.73668 5.16226 1.69896 5.18711 1.66968C5.18809 1.66853 5.18901 1.66743 5.18988 1.66639C5.18899 1.66532 5.18804 1.6642 5.18704 1.66301C5.16179 1.63328 5.12372 1.59484 5.05383 1.52495L4.4739 0.945018C4.40429 0.87541 4.36605 0.837534 4.33646 0.812422C4.33538 0.811497 4.33434 0.810623 4.33334 0.809798C4.33233 0.810643 4.33126 0.81154 4.33014 0.812491C4.3005 0.837651 4.26219 0.875597 4.19249 0.945298L4.19084 0.946946L3.4714 1.66638L4.33333 2.5283Z" fill="#555555"/>
<path fill-rule="evenodd" clip-rule="evenodd" d="M4.12734 0.170324C4.26123 0.126819 4.40547 0.126819 4.53937 0.170324C4.63584 0.201669 4.70972 0.254794 4.76788 0.304164C4.82083 0.349112 4.87859 0.406882 4.9378 0.466108L5.53275 1.06106C5.59225 1.12054 5.6502 1.17848 5.69526 1.23155C5.74473 1.28983 5.79794 1.36381 5.82932 1.46039C5.87283 1.59431 5.87281 1.73854 5.82931 1.87241C5.79795 1.96894 5.74479 2.04287 5.69535 2.10112C5.65033 2.15415 5.59245 2.21202 5.53304 2.27141L5.52247 2.28198L1.90237 5.90207C1.83986 5.96459 1.75507 5.9997 1.66667 5.9997L0.333335 5.99971C0.244929 5.99971 0.160144 5.96459 0.0976318 5.90208C0.0351192 5.83957 0 5.75479 0 5.66638V4.33305C0 4.24464 0.0351189 4.15986 0.0976311 4.09734L2.7643 1.43068L3.72216 0.472812L3.72859 0.466384C3.78789 0.407067 3.84571 0.349236 3.89871 0.304247C3.95691 0.254845 4.03082 0.201684 4.12734 0.170324ZM3 2.13778L0.666667 4.47112V5.33304L1.52859 5.33304L3.86193 2.99971L3 2.13778ZM4.33333 2.5283L5.05691 1.80472C5.12494 1.73668 5.16226 1.69896 5.18711 1.66968C5.18809 1.66853 5.18901 1.66743 5.18988 1.66639C5.18899 1.66532 5.18804 1.6642 5.18704 1.66301C5.16179 1.63328 5.12372 1.59484 5.05383 1.52495L4.4739 0.945018C4.40429 0.87541 4.36605 0.837534 4.33646 0.812422C4.33538 0.811497 4.33434 0.810623 4.33334 0.809798C4.33233 0.810643 4.33126 0.81154 4.33014 0.812491C4.3005 0.837651 4.26219 0.875597 4.19249 0.945298L4.19084 0.946946L3.4714 1.66638L4.33333 2.5283Z" fill="black" fill-opacity="0.2"/>
<path fill-rule="evenodd" clip-rule="evenodd" d="M4.12734 0.170324C4.26123 0.126819 4.40547 0.126819 4.53937 0.170324C4.63584 0.201669 4.70972 0.254794 4.76788 0.304164C4.82083 0.349112 4.87859 0.406882 4.9378 0.466108L5.53275 1.06106C5.59225 1.12054 5.6502 1.17848 5.69526 1.23155C5.74473 1.28983 5.79794 1.36381 5.82932 1.46039C5.87283 1.59431 5.87281 1.73854 5.82931 1.87241C5.79795 1.96894 5.74479 2.04287 5.69535 2.10112C5.65033 2.15415 5.59245 2.21202 5.53304 2.27141L5.52247 2.28198L1.90237 5.90207C1.83986 5.96459 1.75507 5.9997 1.66667 5.9997L0.333335 5.99971C0.244929 5.99971 0.160144 5.96459 0.0976318 5.90208C0.0351192 5.83957 0 5.75479 0 5.66638V4.33305C0 4.24464 0.0351189 4.15986 0.0976311 4.09734L2.7643 1.43068L3.72216 0.472812L3.72859 0.466384C3.78789 0.407067 3.84571 0.349236 3.89871 0.304247C3.95691 0.254845 4.03082 0.201684 4.12734 0.170324ZM3 2.13778L0.666667 4.47112V5.33304L1.52859 5.33304L3.86193 2.99971L3 2.13778ZM4.33333 2.5283L5.05691 1.80472C5.12494 1.73668 5.16226 1.69896 5.18711 1.66968C5.18809 1.66853 5.18901 1.66743 5.18988 1.66639C5.18899 1.66532 5.18804 1.6642 5.18704 1.66301C5.16179 1.63328 5.12372 1.59484 5.05383 1.52495L4.4739 0.945018C4.40429 0.87541 4.36605 0.837534 4.33646 0.812422C4.33538 0.811497 4.33434 0.810623 4.33334 0.809798C4.33233 0.810643 4.33126 0.81154 4.33014 0.812491C4.3005 0.837651 4.26219 0.875597 4.19249 0.945298L4.19084 0.946946L3.4714 1.66638L4.33333 2.5283Z" fill="black" fill-opacity="0.2"/>
<path fill-rule="evenodd" clip-rule="evenodd" d="M4.12734 0.170324C4.26123 0.126819 4.40547 0.126819 4.53937 0.170324C4.63584 0.201669 4.70972 0.254794 4.76788 0.304164C4.82083 0.349112 4.87859 0.406882 4.9378 0.466108L5.53275 1.06106C5.59225 1.12054 5.6502 1.17848 5.69526 1.23155C5.74473 1.28983 5.79794 1.36381 5.82932 1.46039C5.87283 1.59431 5.87281 1.73854 5.82931 1.87241C5.79795 1.96894 5.74479 2.04287 5.69535 2.10112C5.65033 2.15415 5.59245 2.21202 5.53304 2.27141L5.52247 2.28198L1.90237 5.90207C1.83986 5.96459 1.75507 5.9997 1.66667 5.9997L0.333335 5.99971C0.244929 5.99971 0.160144 5.96459 0.0976318 5.90208C0.0351192 5.83957 0 5.75479 0 5.66638V4.33305C0 4.24464 0.0351189 4.15986 0.0976311 4.09734L2.7643 1.43068L3.72216 0.472812L3.72859 0.466384C3.78789 0.407067 3.84571 0.349236 3.89871 0.304247C3.95691 0.254845 4.03082 0.201684 4.12734 0.170324ZM3 2.13778L0.666667 4.47112V5.33304L1.52859 5.33304L3.86193 2.99971L3 2.13778ZM4.33333 2.5283L5.05691 1.80472C5.12494 1.73668 5.16226 1.69896 5.18711 1.66968C5.18809 1.66853 5.18901 1.66743 5.18988 1.66639C5.18899 1.66532 5.18804 1.6642 5.18704 1.66301C5.16179 1.63328 5.12372 1.59484 5.05383 1.52495L4.4739 0.945018C4.40429 0.87541 4.36605 0.837534 4.33646 0.812422C4.33538 0.811497 4.33434 0.810623 4.33334 0.809798C4.33233 0.810643 4.33126 0.81154 4.33014 0.812491C4.3005 0.837651 4.26219 0.875597 4.19249 0.945298L4.19084 0.946946L3.4714 1.66638L4.33333 2.5283Z" fill="black" fill-opacity="0.2"/>
</svg>
