<svg width="14" height="14" viewBox="0 0 14 14" fill="none" xmlns="http://www.w3.org/2000/svg">
<path d="M5.125 3.40001L7 1.60001M7 1.60001L8.875 3.40001M7 1.60001V7.60001M3.87514 5.80001C3.29272 5.80001 3.0015 5.80001 2.77179 5.89135C2.4655 6.01314 2.22202 6.24689 2.09515 6.54092C2 6.76145 2 7.04088 2 7.60001V10.48C2 11.1521 2 11.4879 2.13624 11.7446C2.25608 11.9704 2.44717 12.1543 2.68237 12.2693C2.9495 12.4 3.29937 12.4 3.99807 12.4H10.0022C10.7009 12.4 11.0503 12.4 11.3174 12.2693C11.5526 12.1543 11.744 11.9704 11.8639 11.7446C12 11.4881 12 11.1526 12 10.4819V7.60001C12 7.04088 11.9999 6.76145 11.9048 6.54092C11.7779 6.24689 11.5346 6.01314 11.2284 5.89135C10.9986 5.80001 10.7074 5.80001 10.125 5.80001" stroke="white" stroke-linecap="round" stroke-linejoin="round"/>
</svg>
