<svg width="20" height="20" viewBox="0 0 20 20" fill="none" xmlns="http://www.w3.org/2000/svg">
<path d="M7.5 6.66667H10.8333V4.16667H7.5C7.03917 4.16667 6.66667 3.79417 6.66667 3.33333C6.66667 2.8725 7.03917 2.5 7.5 2.5H15.8333C16.2933 2.5 16.6667 2.8725 16.6667 3.33333C16.6667 3.79417 16.2933 4.16667 15.8333 4.16667H12.5V6.66667H19.1667C19.6267 6.66667 20 7.03917 20 7.5C20 7.96083 19.6267 8.33333 19.1667 8.33333H12.5V11.6667H19.1667C19.6267 11.6667 20 12.0392 20 12.5C20 12.9608 19.6267 13.3333 19.1667 13.3333H7.5C7.04 13.3333 6.66667 13.7067 6.66667 14.1667C6.66667 15.0858 5.91917 15.8333 5 15.8333H1.66667C0.747501 15.8333 0 15.0858 0 14.1667C0 10.0308 3.36417 6.66667 7.5 6.66667ZM5 14.1667C5 12.7883 6.12167 11.6667 7.5 11.6667H10.8333V8.33333H7.5C4.28417 8.33333 1.66667 10.9508 1.66667 14.1667H5Z" fill="white"/>
</svg>
