<svg width="16" height="16" viewBox="0 0 16 16" fill="none" xmlns="http://www.w3.org/2000/svg">
<g clip-path="url(#clip0_6640_1478)">
<path d="M-5.53131e-05 14.6669C-5.53131e-05 15.4022 0.597945 16.0002 1.33328 16.0002H5.43061C6.58928 16.0002 7.69594 15.4909 8.46794 14.6029C10.5719 12.1795 12.4546 10.5762 13.5059 10.3129C15.0679 9.92285 16.0006 8.86019 16.0006 7.47085C16.0006 6.28752 15.3153 5.72019 14.7646 5.26419C14.4393 4.99485 14.1319 4.74019 13.9366 4.36085L12.0079 0.36952C11.8479 0.0375204 11.4499 -0.10048 11.1179 0.0588538C10.7866 0.218854 10.6473 0.61752 10.8079 0.948854L12.7439 4.95685C13.0719 5.59419 13.5393 5.98152 13.9153 6.29285C14.4366 6.72419 14.6673 6.93819 14.6673 7.47219C14.6673 8.44552 13.8599 8.85152 13.1826 9.02085C11.3673 9.47419 8.81928 12.1655 7.46128 13.7289C6.94328 14.3255 6.20261 14.6669 5.43061 14.6669H2.70728C3.32328 14.6669 3.88861 14.3989 4.25794 13.9309C5.32328 12.5822 6.02661 11.1495 6.64728 9.88619C7.05594 9.05419 7.44128 8.26819 7.88461 7.59219C8.41061 6.78819 8.49061 5.81019 8.09794 4.97619L5.93661 0.382854C5.77994 0.0488538 5.38194 -0.0924796 5.04928 0.0635204C4.71594 0.220187 4.57328 0.61752 4.72994 0.950854L6.89128 5.54352C7.08528 5.95485 7.03928 6.44752 6.76794 6.86152C6.28061 7.60752 5.87728 8.42885 5.44994 9.29819C4.82928 10.5615 4.18794 11.8675 3.21061 13.1049C3.09728 13.2489 2.90861 13.3342 2.70661 13.3342H1.33328C0.597945 13.3342 -5.53131e-05 13.9315 -5.53131e-05 14.6669Z" fill="white"/>
</g>
<defs>
<clipPath id="clip0_6640_1478">
<rect width="16" height="16" fill="white" transform="matrix(-1 0 0 1 16 0)"/>
</clipPath>
</defs>
</svg>
