<svg width="24" height="24" viewBox="0 0 24 24" fill="none" xmlns="http://www.w3.org/2000/svg">
<path d="M7.90039 6.6001C7.95544 6.60031 8 6.64558 8 6.70068V6.80029H8.7998C8.91026 6.80029 9 6.89003 9 7.00049H21C21.5523 7.00049 22 7.4482 22 8.00049V16.0005C22 16.5528 21.5523 17.0005 21 17.0005H19C19 17.1109 18.9103 17.2007 18.7998 17.2007H17.2002C17.0897 17.2007 17 17.1109 17 17.0005H3C2.44772 17.0005 2 16.5528 2 16.0005V8.00049C2 7.4482 2.44772 7.00049 3 7.00049H6C6 6.89003 6.08974 6.80029 6.2002 6.80029H7V6.70068C7 6.64558 7.04456 6.60031 7.09961 6.6001H7.90039ZM4.5 9.00049C4.22386 9.00049 4 9.22435 4 9.50049V14.5005C4 14.7766 4.22386 15.0005 4.5 15.0005H11.5C11.7761 15.0005 12 14.7766 12 14.5005V9.50049C12 9.22435 11.7761 9.00049 11.5 9.00049H4.5Z" fill="white"/>
</svg>
