<svg width="24" height="24" viewBox="0 0 24 24" fill="none" xmlns="http://www.w3.org/2000/svg">
<path fill-rule="evenodd" clip-rule="evenodd" d="M4 3.86957C4 2.28475 5.23424 1 6.75676 1H17.7838C19.3063 1 20.5405 2.28475 20.5405 3.86957V7.69565C20.7943 7.69565 21 7.90978 21 8.17391V11.5217C21 11.7859 20.7943 12 20.5405 12V18.2174V20.1304C20.5405 21.7153 19.3063 23 17.7838 23H6.75676C5.23424 23 4 21.7153 4 20.1304V18.2174V3.86957ZM18.7027 3.86957V18.2174C18.7027 18.7457 18.2913 19.1739 17.7838 19.1739H6.75676C6.24925 19.1739 5.83784 18.7457 5.83784 18.2174V3.86957C5.83784 3.83655 5.83944 3.80392 5.84258 3.77177C5.88964 3.28943 6.28097 2.91304 6.75676 2.91304H17.7838C18.2913 2.91304 18.7027 3.34129 18.7027 3.86957Z" fill="white"/>
</svg>
