<svg width="24" height="24" viewBox="0 0 24 24" fill="none" xmlns="http://www.w3.org/2000/svg">
<path d="M11 7.01562L13.084 7.02441L13.0762 9.02441L11 9.01562V15.0156L12 15.0195L12.0088 12.9502L13 12.9531L13.0078 11L14.9033 11.0078L14.8955 13.0078L14.0391 13.0039L14.0312 15.0576L13.083 15.0537L13.0762 17.0039L14.1426 17.0088L14.1367 18.7041L15.1426 18.708L15.1357 20.3359L16.1426 20.3408L16.1357 22.0088L14 22L14.0059 20.4043L13 20.4004L13.0059 18.7021L12 18.6992L12.0059 17.0195L11 17.0156V22H9V9.00781L7 9L7.00781 7L9 7.00781V2H11V7.01562Z" fill="white"/>
</svg>
