<svg width="16" height="17" viewBox="0 0 16 17" fill="none" xmlns="http://www.w3.org/2000/svg">
<path fill-rule="evenodd" clip-rule="evenodd" d="M4.87081 5.67202L5.09952 7.7304L4.6367 7.76735C3.9913 7.81887 3.4643 8.30402 3.35968 8.94296C3.11855 10.4156 3.11855 11.9176 3.35968 13.3902C3.4643 14.0291 3.9913 14.5143 4.6367 14.5658L5.63412 14.6454C7.20888 14.7711 8.79116 14.7711 10.3659 14.6454L11.3633 14.5658C12.0087 14.5143 12.5357 14.0291 12.6404 13.3902C12.8815 11.9176 12.8815 10.4156 12.6404 8.94296C12.5357 8.30402 12.0087 7.81887 11.3633 7.76735L10.9005 7.73039L11.1292 5.67202C11.1561 5.42937 11.1561 5.18448 11.1292 4.94183L11.114 4.80523C10.953 3.3563 9.81392 2.20986 8.36607 2.03953C8.12285 2.01091 7.87712 2.01091 7.6339 2.03953C6.18604 2.20986 5.04698 3.3563 4.88598 4.80523L4.87081 4.94183C4.84385 5.18448 4.84385 5.42937 4.87081 5.67202ZM8.24923 3.03268C8.08364 3.0132 7.91633 3.0132 7.75074 3.03268C6.76499 3.14865 5.98948 3.92918 5.87987 4.91566L5.86469 5.05226C5.84588 5.22151 5.84588 5.39233 5.86469 5.56159L6.09722 7.65439C7.36443 7.57312 8.63554 7.57311 9.90275 7.65438L10.1353 5.56159C10.1541 5.39233 10.1541 5.22151 10.1353 5.05226L10.1201 4.91566C10.0105 3.92918 9.23498 3.14865 8.24923 3.03268ZM8 10.1666C7.44771 10.1666 7 10.6143 7 11.1666C7 11.7189 7.44771 12.1666 8 12.1666C8.55228 12.1666 9 11.7189 9 11.1666C9 10.6143 8.55228 10.1666 8 10.1666Z" fill="white"/>
</svg>
