<svg width="24" height="24" viewBox="0 0 24 24" fill="none" xmlns="http://www.w3.org/2000/svg">
<path d="M11.8333 21L15 17.3077M15 17.3077L11.8333 13.6154M15 17.3077H12.1111C10.1167 17.3077 7.5 14.5525 7.5 11.1538C7.5 7.75517 5.88325 5 3.88889 5H2M2 18.3077H3.88889C4.70183 18.3077 6.45202 17.8495 7.05556 17.0769" stroke="white" stroke-width="2" stroke-linecap="round" stroke-linejoin="round"/>
<path d="M23 17.7C23 19.3569 21.6569 20.7 20 20.7C18.3431 20.7 17 19.3569 17 17.7C17 16.0432 18.3431 14.7 20 14.7C21.6569 14.7 23 16.0432 23 17.7Z" fill="white"/>
</svg>
