<svg width="24" height="24" viewBox="0 0 24 24" fill="none" xmlns="http://www.w3.org/2000/svg">
<path d="M19 2C20.6569 2 22 3.34315 22 5V19C22 20.6051 20.7394 21.9158 19.1543 21.9961L19 22H5L4.8457 21.9961C3.31166 21.9184 2.08163 20.6883 2.00391 19.1543L2 19V5C2 3.34315 3.34315 2 5 2H19ZM4 19C4 19.5523 4.44772 20 5 20H19C19.5523 20 20 19.5523 20 19V13H4V19ZM17 16C17.5523 16 18 16.4477 18 17C18 17.5523 17.5523 18 17 18H16C15.4477 18 15 17.5523 15 17C15 16.4477 15.4477 16 16 16H17ZM5 4C4.44771 4 4 4.44772 4 5V11H20V5C20 4.44771 19.5523 4 19 4H5ZM8 6C8.55228 6 9 6.44772 9 7C9 7.55228 8.55228 8 8 8H7C6.44772 8 6 7.55228 6 7C6 6.44772 6.44772 6 7 6H8Z" fill="white"/>
</svg>
