<svg width="24" height="24" viewBox="0 0 24 24" fill="none" xmlns="http://www.w3.org/2000/svg">
<path d="M19 2C20.6569 2 22 3.34315 22 5V19C22 20.6051 20.7394 21.9158 19.1543 21.9961L19 22H5L4.8457 21.9961C3.31166 21.9184 2.08163 20.6883 2.00391 19.1543L2 19V5C2 3.34315 3.34315 2 5 2H19ZM4 19C4 19.5523 4.44772 20 5 20H19C19.5523 20 20 19.5523 20 19V13H13.7305C13.3845 13.5973 12.7399 14 12 14C11.2601 14 10.6155 13.5973 10.2695 13H4V19ZM5 4C4.44771 4 4 4.44772 4 5V11H10.2695C10.6155 10.4027 11.2601 10 12 10C12.7399 10 13.3845 10.4027 13.7305 11H20V5C20 4.44771 19.5523 4 19 4H5Z" fill="white"/>
</svg>
