<svg width="24" height="24" viewBox="0 0 24 24" fill="none" xmlns="http://www.w3.org/2000/svg">
<g clip-path="url(#clip0_53_1058)">
<path d="M17 6H7C6.44772 6 6 6.44772 6 7V17C6 17.5523 6.44772 18 7 18H17C17.5523 18 18 17.5523 18 17V7C18 6.44772 17.5523 6 17 6Z" stroke="#DEFF58" stroke-width="1.5"/>
<path d="M6 2H3.081C2.7943 2 2.51934 2.11389 2.31662 2.31662C2.11389 2.51934 2 2.7943 2 3.081V6" stroke="#DEFF58" stroke-width="1.5" stroke-miterlimit="10" stroke-linecap="round"/>
<path d="M6 22H3.081C2.7943 22 2.51934 21.8861 2.31662 21.6834C2.11389 21.4807 2 21.2057 2 20.919V18" stroke="#DEFF58" stroke-width="1.5" stroke-miterlimit="10" stroke-linecap="round"/>
<path d="M18 2H20.919C21.2057 2 21.4807 2.11389 21.6834 2.31662C21.8861 2.51934 22 2.7943 22 3.081V6" stroke="#DEFF58" stroke-width="1.5" stroke-miterlimit="10" stroke-linecap="round"/>
<path d="M18 22H20.919C21.2057 22 21.4807 21.8861 21.6834 21.6834C21.8861 21.4807 22 21.2057 22 20.919V18" stroke="#DEFF58" stroke-width="1.5" stroke-miterlimit="10" stroke-linecap="round"/>
</g>
<defs>
<clipPath id="clip0_53_1058">
<rect width="24" height="24" fill="white"/>
</clipPath>
</defs>
</svg>
