<svg width="12" height="12" viewBox="0 0 12 12" fill="none" xmlns="http://www.w3.org/2000/svg">
<path d="M12 1.72295C11.975 1.20795 11.73 0.727951 11.33 0.402951C10.615 -0.182049 9.52503 -0.102049 8.84003 0.582951L8.00503 1.41795C7.60003 1.14795 7.12003 0.997951 6.62003 0.997951C5.95003 0.997951 5.32503 1.25795 4.85003 1.72795L3.33503 3.24295C3.14003 3.43795 3.14003 3.75295 3.33503 3.94795C3.53003 4.14295 3.84503 4.14295 4.04003 3.94795L5.55503 2.43295C6.00003 1.98795 6.70503 1.89295 7.26503 2.14795L1.03503 8.38795C0.690034 8.73295 0.500034 9.18795 0.500034 9.67295C0.500034 9.98795 0.580034 10.288 0.730034 10.558L0.150034 11.138C-0.0449658 11.333 -0.0449658 11.648 0.150034 11.843C0.250034 11.943 0.375034 11.988 0.505034 11.988C0.635034 11.988 0.760034 11.938 0.860034 11.843L1.44003 11.263C1.70503 11.413 2.01003 11.493 2.32503 11.493C2.81003 11.493 3.27003 11.303 3.61003 10.958L11.465 3.09795C11.83 2.73295 12.02 2.23295 11.995 1.71795L12 1.72295ZM2.90003 10.253C2.59003 10.563 2.05003 10.563 1.74003 10.253C1.58503 10.098 1.50003 9.89295 1.50003 9.67295C1.50003 9.45295 1.58503 9.24795 1.74003 9.09295L8.04003 2.79795L9.20003 3.95795L2.90003 10.253ZM10.76 2.39295L9.90503 3.24795L8.74503 2.08795L9.54503 1.28795C9.73003 1.10295 9.97003 1.00795 10.205 1.00795C10.385 1.00795 10.555 1.06295 10.695 1.17795C10.88 1.32795 10.985 1.53795 11 1.77295C11.01 2.00295 10.925 2.23295 10.76 2.39295Z" fill="#C8C8C8"/>
</svg>