<svg width="24" height="24" viewBox="0 0 24 24" fill="none" xmlns="http://www.w3.org/2000/svg">
<g clip-path="url(#clip0_3228_7425)">
<path d="M14 2.53801C14 1.57301 14.538 0.690007 15.444 0.244007C16.015 -0.0369926 16.672 -0.0459926 17.289 0.113007C20.562 0.955007 23.158 3.59801 23.933 6.89601C24.102 7.61601 23.939 8.35501 23.487 8.92601C22.938 9.61901 22.041 10.001 20.962 10.001H17C15.343 10.001 14 8.65801 14 7.00101V2.53801ZM16 7.00001C16 7.55201 16.448 8.00001 17 8.00001H20.962C21.405 8.00001 21.763 7.88201 21.92 7.68401C21.995 7.59001 22.016 7.48101 21.986 7.35201C21.369 4.72501 19.273 2.62901 16.646 2.01401C16.604 2.00401 16.564 2.00001 16.526 2.00001C16.377 2.00001 16.265 2.06801 16.206 2.11501C16.075 2.21901 16 2.37301 16 2.53801V7.00001ZM14 12H12V5.25101C12 4.31301 11.575 3.44201 10.834 2.86201C10.122 2.30401 9.21603 2.10701 8.35303 2.32101C3.37303 3.55201 -0.137966 8.17401 0.00403399 13.312C0.163034 19.044 4.95603 23.837 10.689 23.996C10.792 23.999 10.894 24 10.997 24C11.74 24 12.48 23.926 13.2 23.78C13.741 23.67 14.091 23.142 13.981 22.601C13.871 22.059 13.343 21.708 12.802 21.82C12.131 21.956 11.434 22.013 10.745 21.997C6.05503 21.867 2.13403 17.946 2.00403 13.256C1.88803 9.05201 4.76003 5.27001 8.83303 4.26301C9.19103 4.17501 9.47003 4.33401 9.60203 4.43701C9.85203 4.63201 10 4.93701 10 5.25101V13C10 13.552 10.448 14 11 14H14C14.552 14 15 13.552 15 13C15 12.448 14.552 12 14 12Z" fill="white"/>
<path d="M19.99 12.5682C20.3142 12.6482 20.5207 12.9748 20.4402 13.2996L20.3669 13.5916L20.9734 13.741L21.0466 13.4481C21.1272 13.1235 21.4618 12.9307 21.7859 13.0106C22.1101 13.0905 22.3166 13.4171 22.2361 13.742L22.156 14.0623C23.3767 14.553 24.0936 15.8582 23.7742 17.1473C23.62 17.7694 23.2504 18.2819 22.7654 18.6317C23.5484 19.2575 23.9483 20.2913 23.6941 21.3172C23.344 22.7299 21.8826 23.5855 20.4451 23.2313L19.9167 23.1004L19.8445 23.3943C19.764 23.7191 19.4294 23.9117 19.1052 23.8318C18.7809 23.7519 18.5745 23.4253 18.655 23.1004L18.7273 22.8074L18.1208 22.658L18.0486 22.952C17.968 23.2765 17.6334 23.4692 17.3093 23.3895C16.985 23.3095 16.7786 22.9829 16.8591 22.658L16.9324 22.3572C15.9494 22.037 15.3585 21.0266 15.6072 20.0223L16.9109 14.7567C17.1598 13.7521 18.1559 13.1318 19.1755 13.3055L19.2507 13.0057C19.3312 12.681 19.6658 12.4883 19.99 12.5682ZM16.7957 20.3152C16.6968 20.7143 16.9504 21.1296 17.3669 21.2322L20.7341 22.0623C21.5234 22.2568 22.3155 21.7866 22.5046 21.0233C22.6935 20.2602 22.2125 19.4766 21.4236 19.282L17.3035 18.2664L16.7957 20.3152ZM19.0339 14.5037C18.6174 14.4012 18.1992 14.6515 18.1003 15.0506L17.5925 17.0975L20.8142 17.8924C21.6035 18.0869 22.3956 17.6167 22.5847 16.8533C22.7737 16.0902 22.2928 15.3066 21.5037 15.1121L19.0339 14.5037Z" fill="white" stroke="white" stroke-width="0.3"/>
</g>
<defs>
<clipPath id="clip0_3228_7425">
<rect width="24" height="24" fill="white"/>
</clipPath>
</defs>
</svg>
