<svg width="31" height="30" viewBox="0 0 31 30" fill="none" xmlns="http://www.w3.org/2000/svg">
<path d="M6.43359 0.131669C7.66831 -0.186336 9.94198 -0.0784426 11.5879 2.18245C13.7462 2.08951 16.9344 2.30264 19.917 3.243C22.9712 4.20601 25.9329 5.97328 27.2334 9.08186L27.2939 9.2303L27.2959 9.23421L27.3418 9.35823C27.543 9.92327 27.7618 10.8516 27.8369 11.9783C28.0554 11.9606 28.2873 11.894 28.4883 11.7508C28.811 11.5208 29.1914 10.9949 29.1914 9.76643C29.1917 9.42552 29.4676 9.14933 29.8086 9.14925C30.1496 9.14925 30.4265 9.42546 30.4268 9.76643C30.4268 11.2562 29.9512 12.2248 29.2051 12.7567C28.7632 13.0716 28.2756 13.1966 27.8379 13.2157C27.7774 13.9803 27.6045 14.8195 27.4062 15.5955C29.1593 17.0969 30.2715 19.3252 30.2715 21.8143C30.2714 26.335 26.6067 29.9997 22.0859 29.9998C18.1534 29.9998 14.8694 27.2265 14.0811 23.5291C13.9319 23.5537 13.7828 23.5625 13.6445 23.5604C13.3788 23.5564 13.0952 23.5191 12.8213 23.4686C12.5111 23.4114 12.1914 23.3317 11.8926 23.2508V24.9334C11.8926 25.3428 11.5607 25.6745 11.1514 25.6746H6.14746C5.73803 25.6746 5.4053 25.3428 5.40527 24.9334V19.8026C4.81155 19.3148 4.2933 18.6463 3.88281 18.0135C3.50983 17.4385 3.20642 16.8603 2.99609 16.408H0.741211C0.331908 16.4079 2.3298e-05 16.0762 0 15.6668V9.89046C1.84113e-05 9.48112 0.331904 9.14939 0.741211 9.14925H2.97363C3.22464 8.53725 3.61897 7.75319 4.1416 7.01741C4.68793 6.24838 5.41514 5.47192 6.3125 5.03694C6.28277 4.44794 6.23408 3.70757 6.16211 3.01546C6.11877 2.59874 6.0681 2.20603 6.01074 1.87776C5.95856 1.57919 5.90604 1.36761 5.86133 1.243L5.84277 1.19515C5.708 0.878018 5.7853 0.321487 6.31348 0.164872L6.43359 0.131669ZM22.0859 14.8641C18.2474 14.8641 15.1357 17.9758 15.1357 21.8143C15.1359 25.6527 18.2475 28.7645 22.0859 28.7645C25.9243 28.7644 29.036 25.6526 29.0361 21.8143C29.0361 17.9759 25.9243 14.8642 22.0859 14.8641ZM21.9316 16.3709C22.2727 16.371 22.5497 16.647 22.5498 16.9881V18.2235H22.8584L22.9697 18.2264C24.1122 18.2843 25.0215 19.2297 25.0215 20.3866C25.0214 20.8331 24.8843 21.2471 24.6523 21.5916C25.2429 21.9412 25.6387 22.5851 25.6387 23.3211C25.6385 24.3952 24.7951 25.2722 23.7344 25.326L23.6309 25.3289H22.5498V26.5643C22.5496 26.9053 22.2727 27.1814 21.9316 27.1815C21.5906 27.1815 21.3137 26.9053 21.3135 26.5643V25.3289H19.4609V18.2235H21.3135V16.9881C21.3135 16.647 21.5905 16.3709 21.9316 16.3709ZM10.7207 3.09847C9.59576 1.41056 8.10007 1.14673 7.14551 1.25472C7.17593 1.38703 7.20312 1.52609 7.22754 1.66585C7.29162 2.03268 7.34569 2.45641 7.39062 2.8885C7.48054 3.75339 7.53691 4.68222 7.56348 5.32503V5.38753C7.55135 5.67793 7.37244 5.91953 7.12988 6.03108L7.07617 6.05257C6.36498 6.31511 5.70433 6.95122 5.14941 7.73225C4.67069 8.40615 4.30923 9.13359 4.0918 9.67561L4.00781 9.89632C3.90099 10.19 3.62231 10.3844 3.31055 10.3846H1.23535V15.1727H3.31543C3.59641 15.1728 3.84877 15.3312 3.97461 15.575L3.99805 15.6248L4.07227 15.7918C4.25928 16.2056 4.55312 16.7761 4.91992 17.3416C5.34452 17.9962 5.83592 18.5973 6.33496 18.9608L6.36914 18.9871C6.53746 19.1255 6.64151 19.3343 6.6416 19.5614V24.4393H10.6572V22.5965C10.6575 22.1185 11.1023 21.7683 11.5625 21.8739L11.6074 21.8856L11.9531 21.9862C12.3085 22.0873 12.6898 22.1881 13.0459 22.2537C13.2826 22.2974 13.4918 22.3224 13.6631 22.325C13.7872 22.3269 13.8675 22.3123 13.915 22.3016C13.9056 22.1404 13.9004 21.9779 13.9004 21.8143C13.9004 17.2934 17.565 13.6287 22.0859 13.6287C23.639 13.6288 25.091 14.0611 26.3281 14.8123C26.4993 14.0644 26.6186 13.3286 26.627 12.7225L26.626 12.5594C26.5978 11.2229 26.3308 10.1642 26.1436 9.68245C25.0753 6.9881 22.4959 5.35186 19.5459 4.42171C16.6062 3.49479 13.4238 3.31168 11.3809 3.42952C11.1166 3.44477 10.8865 3.31902 10.7471 3.13558L10.7207 3.09847ZM20.6963 24.0926H23.6309C24.0572 24.0926 24.4031 23.7475 24.4033 23.3211C24.4033 22.8946 24.0574 22.5487 23.6309 22.5487H20.6963V24.0926ZM20.6963 21.3133H22.8584C23.3701 21.3133 23.7849 20.8982 23.7852 20.3866C23.7852 19.8748 23.3702 19.4598 22.8584 19.4598H20.6963V21.3133ZM9.57617 9.92171H7.72266V8.68538H9.57617V9.92171Z" fill="url(#paint0_linear_7630_7259)"/>
<defs>
<linearGradient id="paint0_linear_7630_7259" x1="26.5879" y1="11.9158" x2="1.32314" y2="18.3939" gradientUnits="userSpaceOnUse">
<stop stop-color="#7775FF"/>
<stop offset="1" stop-color="#8CD5FF"/>
</linearGradient>
</defs>
</svg>
