<svg width="18" height="18" viewBox="0 0 18 18" fill="none" xmlns="http://www.w3.org/2000/svg">
<g clip-path="url(#clip0_1281_1557)">
<path d="M14.3497 7.69871C14.2177 7.69871 14.0857 7.70771 13.9567 7.72571C13.7497 6.15371 13.446 5.14571 13.4318 5.09546C13.3575 4.85171 13.1648 4.66196 12.9188 4.59221C12.867 4.57721 11.8305 4.28621 10.32 4.07921C10.3395 3.94271 10.3492 3.80546 10.3492 3.66671C10.3492 2.05871 9.04875 0.751465 7.449 0.751465C5.84925 0.751465 4.5495 2.05871 4.5495 3.66671C4.5495 3.80546 4.56 3.94271 4.57875 4.07996C3.06975 4.28621 2.03175 4.57721 1.98 4.59221C1.734 4.66196 1.53975 4.85246 1.4655 5.09846C1.43625 5.19596 0.75 7.51871 0.75 10.6132C0.75 13.7332 1.437 16.0342 1.46625 16.1295C1.5405 16.374 1.73325 16.5637 1.98 16.6335C2.03925 16.65 3.4545 17.0475 5.39925 17.244C5.424 17.2462 5.4495 17.2477 5.475 17.2477C5.712 17.2477 5.937 17.136 6.0795 16.9425C6.23625 16.7287 6.26925 16.4482 6.165 16.2045C6.0885 16.0252 6.05025 15.8362 6.05025 15.6427C6.05025 14.8635 6.678 14.229 7.44975 14.229C8.2215 14.229 8.85 14.8635 8.85 15.6427C8.85 15.8362 8.811 16.0245 8.73525 16.203C8.631 16.4467 8.66325 16.7272 8.82075 16.941C8.9775 17.1555 9.23025 17.2687 9.50025 17.2432C11.4427 17.0467 12.8595 16.65 12.9188 16.6335C13.1648 16.5637 13.359 16.3732 13.4332 16.128C13.4482 16.0777 13.749 15.0645 13.956 13.4992C14.0865 13.5165 14.2185 13.5262 14.3505 13.5262C15.9503 13.5262 17.2507 12.219 17.2507 10.6125C17.2507 9.00596 15.9503 7.69796 14.3505 7.69796L14.3497 7.69871ZM14.3497 12.027C14.1142 12.027 13.881 11.967 13.6763 11.8522C13.455 11.7285 13.1865 11.724 12.9615 11.8447C12.7365 11.9625 12.588 12.1867 12.5648 12.4395C12.447 13.7362 12.231 14.7607 12.1012 15.294C11.724 15.3825 11.109 15.5145 10.35 15.6262C10.341 14.0272 9.0435 12.7297 7.44975 12.7297C5.856 12.7297 4.55925 14.028 4.55025 15.627C3.78975 15.5145 3.17475 15.3825 2.7975 15.294C2.613 14.535 2.25075 12.774 2.25075 10.614C2.25075 8.46971 2.613 6.69746 2.7975 5.93396C3.3435 5.80571 4.38675 5.58821 5.643 5.46671C5.895 5.44271 6.11775 5.29346 6.23475 5.06996C6.3525 4.84571 6.3495 4.57871 6.22725 4.35746C6.1095 4.14446 6.0495 3.91271 6.0495 3.66896C6.0495 2.88896 6.67725 2.25371 7.449 2.25371C8.22075 2.25371 8.84925 2.88896 8.84925 3.66896C8.84925 3.91271 8.79 4.14371 8.67225 4.35596C8.54925 4.57721 8.54625 4.84496 8.664 5.06846C8.781 5.29271 9.00375 5.44196 9.25575 5.46596C10.5142 5.58746 11.5567 5.80496 12.102 5.93396C12.231 6.46421 12.4478 7.48496 12.5648 8.78696C12.5872 9.03971 12.7365 9.26396 12.9608 9.38246C13.1858 9.50021 13.4558 9.49871 13.6763 9.37496C13.884 9.25871 14.1112 9.20021 14.349 9.20021C15.1208 9.20021 15.7493 9.83471 15.7493 10.6147C15.7493 11.3947 15.1208 12.0285 14.349 12.0285L14.3497 12.027Z" fill="#777777"/>
</g>
<defs>
<clipPath id="clip0_1281_1557">
<rect width="18" height="18" fill="white"/>
</clipPath>
</defs>
</svg>
