<svg width="16" height="16" viewBox="0 0 16 16" fill="none" xmlns="http://www.w3.org/2000/svg">
<path d="M10.6667 1H5.33333C4.4496 1.00106 3.60237 1.35259 2.97748 1.97748C2.35259 2.60237 2.00106 3.4496 2 4.33333V14.3333C2.00009 14.4546 2.03326 14.5735 2.09592 14.6773C2.15858 14.7811 2.24837 14.8659 2.35563 14.9225C2.46288 14.9791 2.58353 15.0053 2.70459 14.9984C2.82565 14.9915 2.94254 14.9517 3.04267 14.8833L4.44667 13.924L5.85067 14.8833C5.96159 14.9593 6.09289 14.9999 6.22733 14.9999C6.36177 14.9999 6.49307 14.9593 6.604 14.8833L8.004 13.924L9.404 14.8833C9.51499 14.9594 9.64642 15.0002 9.781 15.0002C9.91558 15.0002 10.047 14.9594 10.158 14.8833L11.558 13.9247L12.958 14.8827C13.0581 14.9508 13.1748 14.9905 13.2957 14.9973C13.4166 15.0041 13.5371 14.9779 13.6442 14.9214C13.7514 14.865 13.8411 14.7804 13.9038 14.6768C13.9664 14.5732 13.9997 14.4544 14 14.3333V4.33333C13.9989 3.4496 13.6474 2.60237 13.0225 1.97748C12.3976 1.35259 11.5504 1.00106 10.6667 1ZM12.6667 13.0667L11.9333 12.5653C11.8223 12.4891 11.6907 12.4483 11.556 12.4483C11.4213 12.4483 11.2897 12.4891 11.1787 12.5653L9.77867 13.5247L8.37867 12.5653C8.26767 12.4892 8.13625 12.4485 8.00167 12.4485C7.86709 12.4485 7.73566 12.4892 7.62467 12.5653L6.22467 13.5247L4.82467 12.5653C4.71381 12.4895 4.58264 12.449 4.44833 12.449C4.31403 12.449 4.18286 12.4895 4.072 12.5653L3.33333 13.0667V4.33333C3.33333 3.8029 3.54405 3.29419 3.91912 2.91912C4.29419 2.54405 4.8029 2.33333 5.33333 2.33333H10.6667C11.1971 2.33333 11.7058 2.54405 12.0809 2.91912C12.456 3.29419 12.6667 3.8029 12.6667 4.33333V13.0667Z" fill="white"/>
<path d="M10.6665 5.33325H5.33317C4.96498 5.33325 4.6665 5.63173 4.6665 5.99992C4.6665 6.36811 4.96498 6.66659 5.33317 6.66659H10.6665C11.0347 6.66659 11.3332 6.36811 11.3332 5.99992C11.3332 5.63173 11.0347 5.33325 10.6665 5.33325Z" fill="white"/>
<path d="M9.33317 8H5.33317C4.96498 8 4.6665 8.29848 4.6665 8.66667C4.6665 9.03486 4.96498 9.33333 5.33317 9.33333H9.33317C9.70136 9.33333 9.99984 9.03486 9.99984 8.66667C9.99984 8.29848 9.70136 8 9.33317 8Z" fill="white"/>
</svg>
