<svg width="24" height="24" viewBox="0 0 24 24" fill="none" xmlns="http://www.w3.org/2000/svg">
<path d="M13.6922 10.3077L8.84608 15.1538M3.8887 18.1113L7.97935 4.81674C8.34594 3.62531 8.52937 3.0293 8.84556 2.83175C9.11981 2.66039 9.45936 2.63174 9.75806 2.75568C10.1025 2.89859 10.382 3.4567 10.9397 4.572L13.5306 9.7539C13.6191 9.93089 13.6634 10.019 13.7225 10.0957C13.775 10.1637 13.8355 10.2251 13.9035 10.2775C13.9785 10.3353 14.0651 10.3786 14.2342 10.4631L19.4281 13.0601C20.5434 13.6177 21.1011 13.8968 21.244 14.2412C21.3679 14.5399 21.3397 14.8798 21.1683 15.154C20.9707 15.4703 20.3748 15.654 19.183 16.0207L5.88837 20.1113C4.95141 20.3996 4.48275 20.5437 4.16626 20.4275C3.8906 20.3263 3.67329 20.1092 3.57209 19.8335C3.45596 19.5172 3.6001 19.0487 3.8881 18.1127L3.8887 18.1113Z" stroke="#FCFCFC" stroke-width="2" stroke-linecap="round" stroke-linejoin="round"/>
</svg>
