<svg width="16" height="16" viewBox="0 0 16 16" fill="none" xmlns="http://www.w3.org/2000/svg">
<g clip-path="url(#clip0_6640_1445)">
<path d="M4.00003 5.66685C4.00003 6.10888 4.17562 6.5328 4.48818 6.84536C4.80074 7.15792 5.22467 7.33352 5.66669 7.33352C6.10872 7.33352 6.53265 7.15792 6.84521 6.84536C7.15777 6.5328 7.33336 6.10888 7.33336 5.66685C7.33336 5.22482 7.15777 4.8009 6.84521 4.48834C6.53265 4.17578 6.10872 4.00018 5.66669 4.00018C5.22467 4.00018 4.80074 4.17578 4.48818 4.48834C4.17562 4.8009 4.00003 5.22482 4.00003 5.66685ZM4.00403 10.2442C4.04065 11.3034 4.30509 12.3423 4.77936 13.2902C5.21634 14.1166 5.87248 14.8066 6.67581 15.2847C7.47914 15.7627 8.39861 16.0103 9.33336 16.0002H10V12.3335C10.003 11.7156 10.2498 11.1238 10.6867 10.6869C11.1237 10.25 11.7154 10.0032 12.3334 10.0002H16V9.33352C16.0101 8.39877 15.7626 7.47929 15.2845 6.67597C14.8065 5.87264 14.1164 5.2165 13.29 4.77952C12.3422 4.30525 11.3033 4.0408 10.244 4.00418C9.2728 2.74968 8.02552 1.73587 6.59903 1.04147C5.17253 0.347067 3.6052 -0.00924864 2.01869 0.000182451C1.7547 -0.00148569 1.49298 0.048971 1.24853 0.14866C1.00408 0.248348 0.781706 0.395308 0.594167 0.581113C0.406628 0.766918 0.257608 0.987913 0.155653 1.23143C0.0536976 1.47494 0.000812531 1.73619 2.67029e-05 2.00018C-0.0112648 3.58966 0.344115 5.16033 1.03855 6.59013C1.73298 8.01993 2.74777 9.27034 4.00403 10.2442ZM14.6107 8.66685H13.1027C12.6076 7.56417 12.026 6.50241 11.3634 5.49152C11.8236 5.59859 12.2696 5.75971 12.692 5.97152C13.2001 6.23979 13.6382 6.62331 13.9714 7.09136C14.3046 7.55941 14.5235 8.09898 14.6107 8.66685ZM5.49136 11.3635C6.50226 12.0262 7.56402 12.6078 8.6667 13.1028V14.6108C8.09882 14.5237 7.55925 14.3047 7.09121 13.9716C6.62316 13.6384 6.23964 13.2002 5.97136 12.6922C5.75956 12.2698 5.59844 11.8238 5.49136 11.3635ZM1.33336 1.98152C1.33822 1.80796 1.4106 1.64315 1.5351 1.52213C1.6596 1.40112 1.8264 1.33345 2.00003 1.33352C5.44003 1.43152 7.7667 2.74952 10.012 5.88152C10.6386 6.78365 11.1896 7.736 11.6594 8.72885C10.9314 8.86442 10.2616 9.21722 9.73799 9.74081C9.2144 10.2644 8.8616 10.9342 8.72603 11.6622C7.73318 11.1924 6.78083 10.6414 5.87869 10.0148C2.74936 7.76685 1.43136 5.44018 1.33336 1.98152ZM11.9187 11.9195C11.5462 12.2959 11.3372 12.804 11.3372 13.3335C11.3372 13.863 11.5462 14.3712 11.9187 14.7475C12.5234 15.3515 14.3334 15.7242 15.084 15.8568L16.0214 16.0215L15.8567 15.0842C15.7234 14.3335 15.3514 12.5235 14.7474 11.9188C14.3662 11.5553 13.8596 11.3525 13.3329 11.3526C12.8061 11.3528 12.2997 11.5558 11.9187 11.9195ZM12.6667 13.3335C12.6665 13.2459 12.6836 13.1592 12.7171 13.0783C12.7507 12.9974 12.7999 12.9239 12.862 12.8622C12.987 12.7372 13.1566 12.667 13.3334 12.667C13.5101 12.667 13.6797 12.7372 13.8047 12.8622C14.0589 13.321 14.2374 13.8178 14.3334 14.3335C13.8175 14.2371 13.3205 14.0584 12.8614 13.8042C12.7994 13.7425 12.7504 13.6691 12.717 13.5883C12.6835 13.5075 12.6665 13.4209 12.6667 13.3335Z" fill="white"/>
</g>
<defs>
<clipPath id="clip0_6640_1445">
<rect width="16" height="16" fill="white" transform="matrix(-1 0 0 1 16 0)"/>
</clipPath>
</defs>
</svg>
