<svg width="18" height="18" viewBox="0 0 18 18" fill="none" xmlns="http://www.w3.org/2000/svg">
<path d="M17.3333 9.00008C17.3333 9.46008 16.96 9.83342 16.5 9.83342H1.49996C1.03996 9.83342 0.666626 9.46008 0.666626 9.00008C0.666626 8.54008 1.03996 8.16675 1.49996 8.16675H16.5C16.96 8.16675 17.3333 8.54008 17.3333 9.00008ZM5.66663 15.6667H4.83329C3.45496 15.6667 2.33329 14.5451 2.33329 13.1667V12.3334C2.33329 11.8734 1.95996 11.5001 1.49996 11.5001C1.03996 11.5001 0.666626 11.8734 0.666626 12.3334V13.1667C0.666626 15.4642 2.53579 17.3334 4.83329 17.3334H5.66663C6.12663 17.3334 6.49996 16.9601 6.49996 16.5001C6.49996 16.0401 6.12663 15.6667 5.66663 15.6667ZM16.5 11.5001C16.04 11.5001 15.6666 11.8734 15.6666 12.3334V13.1667C15.6666 14.5451 14.545 15.6667 13.1666 15.6667H12.3333C11.8733 15.6667 11.5 16.0401 11.5 16.5001C11.5 16.9601 11.8733 17.3334 12.3333 17.3334H13.1666C15.4641 17.3334 17.3333 15.4642 17.3333 13.1667V12.3334C17.3333 11.8734 16.96 11.5001 16.5 11.5001ZM13.1666 0.666748H12.3333C11.8733 0.666748 11.5 1.04008 11.5 1.50008C11.5 1.96008 11.8733 2.33341 12.3333 2.33341H13.1666C14.545 2.33341 15.6666 3.45508 15.6666 4.83341V5.66675C15.6666 6.12675 16.04 6.50008 16.5 6.50008C16.96 6.50008 17.3333 6.12675 17.3333 5.66675V4.83341C17.3333 2.53591 15.4641 0.666748 13.1666 0.666748ZM1.49996 6.50008C1.95996 6.50008 2.33329 6.12675 2.33329 5.66675V4.83341C2.33329 3.45508 3.45496 2.33341 4.83329 2.33341H5.66663C6.12663 2.33341 6.49996 1.96008 6.49996 1.50008C6.49996 1.04008 6.12663 0.666748 5.66663 0.666748H4.83329C2.53579 0.666748 0.666626 2.53591 0.666626 4.83341V5.66675C0.666626 6.12675 1.03996 6.50008 1.49996 6.50008Z" fill="white"/>
</svg>
