<svg width="211" height="180" viewBox="0 0 211 180" fill="none" xmlns="http://www.w3.org/2000/svg">
<path d="M187.227 161.894C193.808 162.088 199.614 157.025 200.136 150.6L210.079 28.8415C210.606 22.3632 205.608 17.2516 198.963 17.4507L152 18.8281C145.64 19.0165 140.082 24.2841 139.587 30.5795L130.198 148.889C129.703 155.131 134.4 160.355 140.701 160.538L187.222 161.9L187.227 161.894Z" fill="#777777"/>
<path d="M183.864 161.798C190.428 161.991 196.218 156.934 196.74 150.52L206.656 28.9279C207.184 22.4603 202.196 17.3541 195.572 17.5478L148.739 18.9199C142.395 19.1082 136.853 24.3705 136.358 30.6551L126.996 148.803C126.501 155.034 131.187 160.253 137.472 160.436L183.864 161.792V161.798Z" fill="#BABABA"/>
<path d="M148.524 21.6047L151.257 21.5293C151.769 21.5132 152.188 21.836 152.29 22.3203L152.839 24.9514C153.098 26.1836 154.174 27.0122 155.476 26.9799L185.489 26.2051C186.829 26.1728 188.077 25.2689 188.545 23.999L189.546 21.2872C189.729 20.7868 190.219 20.4317 190.751 20.4209L195.352 20.2918C200.431 20.1465 204.235 24.0475 203.832 29.0031L193.937 150.455C193.539 155.368 189.121 159.236 184.09 159.091L137.687 157.784C132.866 157.649 129.277 153.662 129.654 148.873L139.038 30.5903C139.42 25.7639 143.66 21.7445 148.529 21.6047H148.524Z" fill="white"/>
<path d="M186.145 122.772H140.485C139.221 122.772 138.231 121.685 138.344 120.426L139.032 112.748C139.135 111.639 140.06 110.789 141.174 110.789H186.834C188.099 110.789 189.089 111.876 188.976 113.135L188.287 120.813C188.185 121.922 187.259 122.772 186.145 122.772Z" fill="black"/>
<path d="M188.093 96.5624H145.726C143.837 96.5624 142.352 94.916 142.503 92.9897L145.731 53.033C145.866 51.3165 147.27 49.9875 148.954 49.9875L191.321 48.9114C193.21 48.9114 194.695 50.5579 194.544 52.4841L191.316 93.517C191.181 95.2334 189.777 96.5624 188.093 96.5624Z" fill="white"/>
<path d="M163.439 81.3514H161.411L161.244 83.4445H163.273L163.439 81.3514Z" fill="#3A3A39"/>
<path d="M164.86 81.3514L164.693 83.4499H166.485L166.571 82.3684H167.604L167.685 81.3514H164.86Z" fill="#3A3A39"/>
<path d="M168.094 85.4407H166.711L166.565 87.2594L169.137 87.2755L169.057 88.7014L171.279 88.7122L171.645 84.1816L168.196 84.1763L168.094 85.4407Z" fill="#3A3A39"/>
<path d="M178.387 85.4622L178.263 87.0065H176.595L176.724 85.3708H178.392L178.65 82.1477H176.154L176.353 79.6942H178.849L178.656 82.1047H182.341L182.562 79.3767H180.733L180.873 77.6495H182.734L183.256 71.1874L172.021 71.2304L171.806 73.9046H169.019L169.24 71.1712H170.988L171.096 69.8314H172.037L172.565 63.2993L162.858 63.3693L162.686 65.5377L166.851 65.5108L166.721 67.0927L165.252 67.1034L165.123 68.6854L169.396 68.6638L169.191 71.2035L164.919 71.2196L164.435 77.2245H162.148L162.347 74.7224H160.313L160.006 78.575H161.637L161.502 80.2484H167.851L168.056 77.7141H171.779L171.483 81.3729H169.595L169.514 82.3737H173.453L173.307 84.1924H173.076L172.71 88.7229L181.927 88.7552L182.191 85.4784H178.381L178.387 85.4622ZM178.274 73.1136H180.593L180.41 75.3789H178.091L178.274 73.1136ZM168.271 73.5064H166.711L166.834 71.9729H168.395L168.271 73.5064ZM173.921 77.7518H171.795L171.962 75.6694H174.088L173.921 77.7518Z" fill="#3A3A39"/>
<path d="M172.463 91.7954L174.82 91.8061L174.981 89.7669L172.63 89.7561L172.463 91.7954Z" fill="#3A3A39"/>
<path d="M152.619 67.0873L149.261 67.1034L148.89 71.7685L152.248 71.7523L152.619 67.0873Z" fill="#3A3A39"/>
<path d="M154.755 74.4426L148.675 74.4588L148.347 78.5803L154.427 78.575L154.755 74.4426Z" fill="#3A3A39"/>
<path d="M175.384 53.7109L173.727 53.7271L173.463 57.0416L175.121 57.0254L175.384 53.7109Z" fill="#3A3A39"/>
<path d="M172.296 53.7432L170.596 53.7647L170.445 55.621L172.151 55.6049L172.296 53.7432Z" fill="#3A3A39"/>
<path d="M168.018 53.7917L163.617 53.8402L163.396 56.5951L167.792 56.552L168.018 53.7917Z" fill="#3A3A39"/>
<path d="M167.674 58.0479L166.528 58.0532L166.237 61.6744L171.989 61.626L172.226 58.6828L170.197 58.6989L170.09 60.0118L167.513 60.0333L167.674 58.0479Z" fill="#3A3A39"/>
<path d="M174.894 59.791L173.7 59.8018L173.555 61.6151L174.749 61.6097L174.894 59.791Z" fill="#3A3A39"/>
<path d="M165.516 58.064L163.278 58.0855L162.987 61.6959L165.226 61.6798L165.516 58.064Z" fill="#3A3A39"/>
<path d="M185.026 72.9092L187.405 72.9038L187.545 71.1713L185.166 71.182L185.026 72.9092Z" fill="#3A3A39"/>
<path d="M184.639 77.6441H187.022L187.243 74.9108L184.865 74.9161L184.639 77.6441Z" fill="#3A3A39"/>
<path d="M160.577 91.7414L163.132 91.7522L163.31 89.5838L160.754 89.5784L160.577 91.7414Z" fill="#3A3A39"/>
<path d="M165.613 85.4407L161.083 85.4299L160.868 88.1364L163.779 88.1418L163.865 87.2378L165.468 87.254L165.613 85.4407Z" fill="#3A3A39"/>
<path d="M177.504 91.8168L181.68 91.8383L181.809 90.2295L177.634 90.2134L177.504 91.8168Z" fill="#3A3A39"/>
<path d="M159.947 67.0443L159.802 68.8899L153.744 68.9168L153.518 71.7524L158.07 71.7363L157.967 72.9953L162.487 72.9792L162.961 67.1143L161.266 67.125L161.271 67.0389L159.947 67.0443Z" fill="#3A3A39"/>
<path d="M155.562 78.5747L158.774 78.5693L159.08 74.7275L155.868 74.7329L155.562 78.5747Z" fill="#3A3A39"/>
<path d="M176.67 66.9529L174.319 66.9637L174.615 63.2833L173.453 63.2941L172.925 69.8208L176.439 69.8047L176.67 66.9529Z" fill="#3A3A39"/>
<path d="M179.462 69.7939L179.694 66.9368L177.994 66.9475L177.768 69.7993L179.462 69.7939Z" fill="#3A3A39"/>
<path d="M184.139 82.1047L186.657 82.1101L186.877 79.3767H184.359L184.139 82.1047Z" fill="#3A3A39"/>
<path d="M183.649 87.6144L186.21 87.6198L186.388 85.4783L183.821 85.4729L183.649 87.6144Z" fill="#3A3A39"/>
<path d="M183.305 91.8438L185.871 91.8545L186.043 89.713L183.477 89.7076L183.305 91.8438Z" fill="#3A3A39"/>
<path d="M182.998 66.9205L182.767 69.7776L187.658 69.7561L187.889 66.8882L182.998 66.9205Z" fill="#3A3A39"/>
<path d="M153.889 67.0818L153.781 68.47L158.01 68.4485L158.123 67.0549L153.889 67.0818Z" fill="#3A3A39"/>
<path d="M162.24 53.8563L150.311 53.9855L149.375 65.753L161.293 65.6776L162.24 53.851V53.8563ZM159.178 63.4285L151.833 63.4823L152.415 56.2238L159.765 56.1485L159.183 63.4285H159.178Z" fill="#3A3A39"/>
<path d="M157.973 57.8003L153.927 57.838L153.609 61.8358L157.65 61.8035L157.973 57.8003Z" fill="#3A3A39"/>
<path d="M147.308 91.6769L159.205 91.7307L160.152 79.9255H148.244L147.308 91.6769ZM150.337 82.1854H157.677L157.096 89.4601L149.762 89.4332L150.337 82.1854Z" fill="#3A3A39"/>
<path d="M151.538 87.8082L155.568 87.819L155.891 83.8265L151.855 83.8212L151.538 87.8082Z" fill="#3A3A39"/>
<path d="M188.97 53.5604L176.778 53.6949L175.82 65.5916L188.002 65.5162L188.97 53.5604ZM185.839 63.2402L178.333 63.294L178.924 55.9548L186.436 55.8795L185.839 63.2402Z" fill="#3A3A39"/>
<path d="M77 64.7449L177 35L171.118 141L77 64.7449Z" fill="url(#paint0_linear_53_1385)" fill-opacity="0.6" style="mix-blend-mode:screen"/>
<path d="M184.612 57.5527L180.48 57.5904L180.151 61.6313L184.284 61.599L184.612 57.5527Z" fill="#3A3A39"/>
<path d="M171.155 90.2887L166.716 90.2672L166.824 88.922L164.575 88.9113L164.343 91.8222L167.303 91.8383V91.8329L171.031 91.8491L171.155 90.2887Z" fill="#3A3A39"/>
<path d="M80.8248 179.338C88.9927 179.575 96.2028 173.291 96.8538 165.316L109.197 14.1524C109.853 6.11374 103.644 -0.235428 95.401 0.0067016L37.0963 1.71775C29.2029 1.94912 22.3049 8.49199 21.6807 16.3047L10.0262 163.186C9.41281 170.934 15.2454 177.418 23.0689 177.649L80.8248 179.338Z" fill="#1E1E1D"/>
<path d="M76.6547 179.22C84.801 179.457 91.9896 173.178 92.6406 165.22L104.946 14.2547C105.603 6.22677 99.4095 -0.111638 91.1825 0.130492L33.0391 1.83616C25.1618 2.06753 18.2854 8.60502 17.6666 16.4016L6.04438 163.089C5.43099 170.826 11.2475 177.305 19.0494 177.531L76.6493 179.215L76.6547 179.22Z" fill="#3A3A39"/>
<path d="M32.7758 5.16682L36.171 5.06997C36.8059 5.05382 37.3279 5.45199 37.457 6.05462L38.1403 9.32068C38.4578 10.8488 39.7976 11.8765 41.4172 11.8334L78.6782 10.8703C80.3408 10.8273 81.8904 9.70809 82.4715 8.13156L83.7145 4.76865C83.9458 4.14987 84.5538 3.70866 85.2103 3.69252L90.9192 3.5311C97.2199 3.35354 101.944 8.19613 101.444 14.3462L89.1597 165.134C88.6647 171.235 83.1764 176.035 76.9349 175.857L19.3242 174.232C13.3355 174.066 8.88034 169.115 9.35384 163.17L20.9922 16.3209C21.4657 10.3322 26.7334 5.339 32.7758 5.16682Z" fill="#565656"/>
<g filter="url(#filter0_d_53_1385)">
<path d="M80.5128 114.16H27.664C25.2858 114.16 23.4079 112.116 23.6016 109.721L27.6748 59.8534C27.847 57.7172 29.6118 56.0761 31.7372 56.0761L84.586 55C86.9642 55 88.8421 57.0446 88.6484 59.439L84.5752 110.383C84.403 112.519 82.6382 114.16 80.5128 114.16Z" fill="white"/>
</g>
<path d="M50.0258 95.274H47.5077L47.2979 97.8729L49.8214 97.8783L50.0258 95.274Z" fill="#3A3A39"/>
<path d="M51.7904 95.274L51.5806 97.8783L53.8028 97.8837L53.9104 96.5385H55.1964L55.2986 95.274H51.7904Z" fill="#3A3A39"/>
<path d="M55.7993 100.354H54.0882L53.9053 102.613L57.1014 102.635L56.9991 104.405L59.7594 104.411L60.2114 98.7932L55.9284 98.7878L55.7993 100.354Z" fill="#3A3A39"/>
<path d="M68.5786 100.38L68.4226 102.296H66.351L66.5125 100.262H68.584L68.9068 96.2641H65.8022L66.0497 93.2187H69.1544L68.9122 96.2103H73.4912L73.7656 92.8205H71.4949L71.6671 90.679H73.9754L74.6265 82.6511L60.6798 82.7049L60.4108 86.0247L56.951 86.0355L57.2254 82.6349L59.3938 82.6242L59.5284 80.9669H60.696L61.347 72.8583L49.2944 72.9444L49.0791 75.6347L54.2499 75.6024L54.0939 77.5663L52.2699 77.5771L52.1138 79.5357L57.4191 79.5088L57.1663 82.6564L51.8609 82.678L51.2637 90.1356H48.4227L48.6702 87.0309H46.1467L45.7646 91.8143H47.7878L47.621 93.8913H55.4983L55.7511 90.7489H60.3731L60.0072 95.2902H57.6613L57.559 96.5331H62.4501L62.2671 98.7876H61.9819L61.53 104.41L72.9746 104.448L73.3028 100.38L68.5732 100.37L68.5786 100.38ZM68.4387 85.0455L71.3174 85.0347L71.0914 87.8542H68.2127L68.4387 85.0401V85.0455ZM56.0202 85.5351H54.0831L54.2338 83.6303H56.1708L56.0148 85.5351H56.0202ZM63.0312 90.8028H60.3946L60.6045 88.22H63.241L63.0312 90.8028Z" fill="#3A3A39"/>
<path d="M61.2285 108.242L64.1502 108.252L64.3547 105.723L61.433 105.713L61.2285 108.242Z" fill="#3A3A39"/>
<path d="M36.5903 77.5667L32.4256 77.5882L31.9629 83.3778L36.1275 83.3616L36.5903 77.5667Z" fill="#3A3A39"/>
<path d="M39.2426 86.7028L31.699 86.7189L31.29 91.8359L38.8337 91.8305L39.2426 86.7028Z" fill="#3A3A39"/>
<path d="M64.8548 60.9563L62.7994 60.9832L62.4712 65.094L64.5266 65.0725L64.8548 60.9563Z" fill="#3A3A39"/>
<path d="M61.0246 60.9995L58.9046 61.021L58.7217 63.3293L60.8363 63.3078L61.0246 60.9995Z" fill="#3A3A39"/>
<path d="M55.7079 61.0585L50.2466 61.1177L49.9722 64.5398L55.4335 64.4859L55.7079 61.0585Z" fill="#3A3A39"/>
<path d="M55.2825 66.3425L53.8566 66.3533L53.4961 70.8461L60.6362 70.7923L60.9322 67.1335L58.414 67.155L58.2795 68.7853L55.0834 68.8122L55.2825 66.3425Z" fill="#3A3A39"/>
<path d="M64.2471 68.5107L62.7674 68.5215L62.5845 70.776L64.0695 70.7652L64.2471 68.5107Z" fill="#3A3A39"/>
<path d="M52.6027 66.3638L49.8263 66.3907L49.4658 70.8781L52.2422 70.8566L52.6027 66.3638Z" fill="#3A3A39"/>
<path d="M76.8213 84.7983L79.7806 84.7875L79.9528 82.6353L76.9989 82.646L76.8213 84.7983Z" fill="#3A3A39"/>
<path d="M76.3477 90.6738H79.3016L79.576 87.2786L76.6221 87.284L76.3477 90.6738Z" fill="#3A3A39"/>
<path d="M46.4746 108.172L49.6438 108.188L49.859 105.497L46.6898 105.487L46.4746 108.172Z" fill="#3A3A39"/>
<path d="M52.7214 100.348L47.104 100.337L46.835 103.695L50.4454 103.711L50.5476 102.587L52.5438 102.603L52.7214 100.348Z" fill="#3A3A39"/>
<path d="M67.4858 108.269L72.6674 108.296L72.8288 106.299L67.6473 106.278L67.4858 108.269Z" fill="#3A3A39"/>
<path d="M45.689 77.5181L45.506 79.8049L37.9893 79.8371L37.7041 83.3561L43.3538 83.3346L43.23 84.9003L48.8421 84.8842L49.4285 77.5988L47.3247 77.6096L47.3355 77.5073L45.689 77.5181Z" fill="#3A3A39"/>
<path d="M40.2441 91.8254H44.2312L44.6132 87.0527L40.6262 87.0581L40.2441 91.8254Z" fill="#3A3A39"/>
<path d="M66.4472 77.3996L63.5309 77.4157L63.8968 72.8475L62.4548 72.8583L61.8037 80.9616L66.162 80.9454L66.4472 77.3996Z" fill="#3A3A39"/>
<path d="M69.9232 80.924L70.2084 77.3782L68.0991 77.3889L67.8086 80.9348L69.9232 80.924Z" fill="#3A3A39"/>
<path d="M75.7236 96.2157H78.8498L79.1296 92.8206L75.998 92.8259L75.7236 96.2157Z" fill="#3A3A39"/>
<path d="M75.1162 103.049L78.2962 103.06L78.5114 100.402L75.3314 100.397L75.1162 103.049Z" fill="#3A3A39"/>
<path d="M74.6904 108.301L77.8704 108.317L78.0856 105.659L74.9057 105.648L74.6904 108.301Z" fill="#3A3A39"/>
<path d="M74.3028 77.3566L74.0176 80.9079L80.0923 80.881L80.3829 77.3243L74.3028 77.3566Z" fill="#3A3A39"/>
<path d="M38.1667 77.5557L38.0322 79.2829L43.2837 79.256L43.4236 77.5288L38.1667 77.5557Z" fill="#3A3A39"/>
<path d="M48.5357 61.1394L33.7281 61.3008L32.5659 75.9093L47.3627 75.8178L48.5411 61.1394H48.5357ZM44.737 73.0253L35.6167 73.0898L36.3378 64.0772L45.4633 63.9858L44.7423 73.0253H44.737Z" fill="#3A3A39"/>
<path d="M43.2352 66.0356L38.2151 66.0841L37.8223 71.045L42.837 71.0074L43.2352 66.0356Z" fill="#3A3A39"/>
<path d="M29.9937 108.096L44.7635 108.166L45.9365 93.5093H31.1559L29.9937 108.096ZM33.7601 96.3126H42.8696L42.1486 105.341L33.0445 105.309L33.7601 96.3126Z" fill="#3A3A39"/>
<path d="M35.2451 103.297L40.2545 103.308L40.6527 98.3467L35.6433 98.3413L35.2451 103.297Z" fill="#3A3A39"/>
<path d="M81.7233 60.7734L66.5876 60.9402L65.3984 75.7101L80.5235 75.6187L81.7233 60.7788V60.7734ZM77.8385 72.7884L68.5192 72.853L69.2564 63.7436L78.581 63.6521L77.8439 72.7884H77.8385Z" fill="#3A3A39"/>
<path d="M76.3101 65.7288L71.177 65.7772L70.7734 70.792L75.9012 70.7489L76.3101 65.7288Z" fill="#3A3A39"/>
<path d="M59.6029 106.369L54.0931 106.347L54.2276 104.674L51.4351 104.663L51.1445 108.279L54.8195 108.295V108.285L59.4469 108.306L59.6029 106.369Z" fill="#3A3A39"/>
<path d="M23.2975 82.3343L23.1694 84.1693L89.2064 83.876L89.3344 82L23.2975 82.3343Z" fill="#FF5858"/>
<path style="mix-blend-mode:screen" d="M21 110.986L23.1635 84.1692L89.207 83.8749C88.4526 94.5308 87.8226 100.63 87.0681 111.286L21 110.986Z" fill="url(#paint1_linear_53_1385)"/>
<defs>
<filter id="filter0_d_53_1385" x="0.587891" y="32" width="113.074" height="107.16" filterUnits="userSpaceOnUse" color-interpolation-filters="sRGB">
<feFlood flood-opacity="0" result="BackgroundImageFix"/>
<feColorMatrix in="SourceAlpha" type="matrix" values="0 0 0 0 0 0 0 0 0 0 0 0 0 0 0 0 0 0 127 0" result="hardAlpha"/>
<feOffset dx="1" dy="1"/>
<feGaussianBlur stdDeviation="12"/>
<feColorMatrix type="matrix" values="0 0 0 0 0 0 0 0 0 0 0 0 0 0 0 0 0 0 0.12 0"/>
<feBlend mode="normal" in2="BackgroundImageFix" result="effect1_dropShadow_53_1385"/>
<feBlend mode="normal" in="SourceGraphic" in2="effect1_dropShadow_53_1385" result="shape"/>
</filter>
<linearGradient id="paint0_linear_53_1385" x1="165.971" y1="78.2653" x2="100.472" y2="68.3706" gradientUnits="userSpaceOnUse">
<stop stop-color="white" stop-opacity="0"/>
<stop offset="1" stop-color="#FF5858"/>
</linearGradient>
<linearGradient id="paint1_linear_53_1385" x1="61.9773" y1="112.244" x2="61.9773" y2="80.5311" gradientUnits="userSpaceOnUse">
<stop/>
<stop offset="1" stop-color="#FF5858"/>
</linearGradient>
</defs>
</svg>
