<svg width="16" height="16" viewBox="0 0 16 16" fill="none" xmlns="http://www.w3.org/2000/svg">
<path d="M15.8007 14.858L11.8253 10.8827C12.7667 9.73267 13.3333 8.26467 13.3333 6.66667C13.3333 2.99067 10.3427 0 6.66667 0C2.99067 0 0 2.99067 0 6.66667C0 10.3427 2.99067 13.3333 6.66667 13.3333C8.26533 13.3333 9.73333 12.7667 10.8827 11.8253L14.858 15.8007C14.988 15.9307 15.1587 15.996 15.3293 15.996C15.5 15.996 15.6707 15.9307 15.8007 15.8007C16.0613 15.54 16.0613 15.1187 15.8007 14.858ZM6.66667 12C3.726 12 1.33333 9.60733 1.33333 6.66667C1.33333 3.726 3.726 1.33333 6.66667 1.33333C9.60733 1.33333 12 3.726 12 6.66667C12 9.60733 9.60733 12 6.66667 12ZM9.134 5.134L7.60533 6.66267L9.134 8.19133C9.39467 8.452 9.39467 8.87333 9.134 9.134C9.004 9.264 8.83333 9.32933 8.66267 9.32933C8.492 9.32933 8.32133 9.264 8.19133 9.134L6.66267 7.60533L5.134 9.134C5.004 9.264 4.83333 9.32933 4.66267 9.32933C4.492 9.32933 4.32133 9.264 4.19133 9.134C3.93067 8.87333 3.93067 8.452 4.19133 8.19133L5.72 6.66267L4.19133 5.134C3.93067 4.87333 3.93067 4.452 4.19133 4.19133C4.452 3.93067 4.87333 3.93067 5.134 4.19133L6.66267 5.72L8.19133 4.19133C8.452 3.93067 8.87333 3.93067 9.134 4.19133C9.39467 4.452 9.39467 4.87333 9.134 5.134Z" fill="#B7B7B7"/>
</svg>
