<svg width="14" height="14" viewBox="0 0 14 14" fill="none" xmlns="http://www.w3.org/2000/svg">
<path d="M6.0127 7.98722L8.83962 5.1603M11.7314 3.43508L9.34522 11.1903C9.13137 11.8853 9.02437 12.2329 8.83993 12.3482C8.67995 12.4481 8.48187 12.4648 8.30764 12.3925C8.10673 12.3092 7.94366 11.9836 7.61837 11.333L6.10698 8.31024C6.05536 8.207 6.02952 8.1556 5.99504 8.11086C5.96444 8.07117 5.92913 8.0354 5.88943 8.00481C5.84572 7.97111 5.79517 7.94584 5.69654 7.89653L2.66679 6.38165C2.0162 6.05636 1.69087 5.89356 1.60751 5.69265C1.53521 5.51841 1.5517 5.32015 1.65166 5.16017C1.76691 4.9757 2.11456 4.86854 2.80978 4.65462L10.565 2.26841C11.1115 2.10024 11.3849 2.01622 11.5695 2.084C11.7303 2.14303 11.8571 2.26968 11.9161 2.43048C11.9839 2.615 11.8998 2.88826 11.7318 3.43427L11.7314 3.43508Z" stroke="#FCFCFC" stroke-linecap="round" stroke-linejoin="round"/>
</svg>
