<svg width="24" height="24" viewBox="0 0 24 24" fill="none" xmlns="http://www.w3.org/2000/svg">
<path d="M19.6667 20L22 17M22 17L19.6667 14M22 17H18.8889C16.7411 17 15 14.7614 15 12C15 9.23858 13.2589 7 11.1111 7H9M19.6667 4L22 7M22 7L19.6667 10M22 7L18.8889 7C18.0134 7 17.2055 7.37194 16.5556 7.99963" stroke="white" stroke-width="2" stroke-linecap="round" stroke-linejoin="round"/>
<path d="M7 7.20001C7 8.85687 5.65685 10.2 4 10.2C2.34315 10.2 1 8.85687 1 7.20001C1 5.54316 2.34315 4.20001 4 4.20001C5.65685 4.20001 7 5.54316 7 7.20001Z" fill="white"/>
</svg>
