<svg width="12" height="11" viewBox="0 0 12 11" fill="none" xmlns="http://www.w3.org/2000/svg">
<path d="M5.86523 1.06348C5.92026 0.951989 6.07974 0.951991 6.13477 1.06348L7.33301 3.49219C7.45682 3.74306 7.69678 3.9168 7.97363 3.95703L10.6533 4.34668C10.7764 4.36456 10.8254 4.51576 10.7363 4.60254L8.79688 6.49316C8.59674 6.68839 8.50552 6.96954 8.55273 7.24512L9.01074 9.91504C9.03145 10.0373 8.90286 10.1308 8.79297 10.0732L6.39551 8.8125C6.1479 8.68234 5.8521 8.68234 5.60449 8.8125L3.20703 10.0732C3.09714 10.1308 2.96855 10.0373 2.98926 9.91504L3.44727 7.24512C3.49448 6.96954 3.40326 6.68839 3.20312 6.49316L1.26367 4.60254C1.17464 4.51576 1.22365 4.36456 1.34668 4.34668L4.02637 3.95703C4.30322 3.9168 4.54318 3.74306 4.66699 3.49219L5.86523 1.06348Z" stroke="#B7B7B7" stroke-width="0.7"/>
</svg>
