<svg width="16" height="15" viewBox="0 0 16 15" fill="none" xmlns="http://www.w3.org/2000/svg">
<path d="M7.77539 1.01953C7.86709 0.833721 8.13291 0.833719 8.22461 1.01953L10.0107 4.63867C10.12 4.85998 10.331 5.01329 10.5752 5.04883L14.5703 5.62988C14.7751 5.65997 14.8563 5.91113 14.708 6.05566L11.8184 8.87402C11.6417 9.04627 11.5609 9.2939 11.6025 9.53711L12.2842 13.5156C12.3192 13.7199 12.1053 13.8757 11.9219 13.7793L8.34863 11.9014C8.13022 11.7866 7.86978 11.7866 7.65137 11.9014L4.07812 13.7793C3.89472 13.8757 3.68079 13.7199 3.71582 13.5156L4.39746 9.53711C4.43909 9.2939 4.35833 9.04627 4.18164 8.87402L1.29199 6.05566C1.14372 5.91113 1.22494 5.65997 1.42969 5.62988L5.4248 5.04883C5.66902 5.01329 5.88004 4.85998 5.98926 4.63867L7.77539 1.01953Z" stroke="#777777" stroke-width="0.5"/>
</svg>
