<svg width="69" height="60" viewBox="0 0 69 60" fill="none" xmlns="http://www.w3.org/2000/svg">
<g id="Frame 483435">
<path id="Vector 3" d="M47 27.3103L52.5404 34.1881C53.3084 35.1414 54.745 35.1873 55.5722 34.2849L65 24" stroke="#DA9841" stroke-width="6" stroke-linecap="round"/>
<path id="Subtract" fill-rule="evenodd" clip-rule="evenodd" d="M52.6291 42C51.4904 42 50.4517 42.6168 49.8078 43.5559C45.4832 49.8628 38.2248 54 30 54C16.7452 54 6 43.2548 6 30C6 16.7452 16.7452 6 30 6C40.3451 6 49.1614 12.5453 52.5337 21.7207C53.0185 23.0398 54.2262 24 55.6317 24C57.579 24 59.044 22.208 58.4189 20.3637C54.405 8.5222 43.1977 0 30 0C13.4315 0 0 13.4315 0 30C0 46.5685 13.4315 60 30 60C40.5635 60 49.8518 54.5403 55.197 46.2888C56.4473 44.3587 54.9287 42 52.6291 42Z" fill="#DA9841"/>
<path id="Subtract_2" fill-rule="evenodd" clip-rule="evenodd" d="M33 17.5C33 15.8431 31.6569 14.5 30 14.5C28.3431 14.5 27 15.8431 27 17.5V32C27 33.6569 28.3431 35 30 35C31.6569 35 33 33.6569 33 32V17.5ZM33 42C33 40.3431 31.6569 39 30 39C28.3431 39 27 40.3431 27 42V43C27 44.6569 28.3431 46 30 46C31.6569 46 33 44.6569 33 43V42Z" fill="#DA9841"/>
</g>
</svg>
