<svg width="69" height="60" viewBox="0 0 69 60" fill="none" xmlns="http://www.w3.org/2000/svg">
<g id="Frame 483435">
<path id="Union" fill-rule="evenodd" clip-rule="evenodd" d="M27.006 53.8151C28.6501 54.0197 30 55.3431 30 57C30 58.6569 28.653 60.0158 27.0042 59.8523C11.8422 58.3491 0 45.5575 0 30C0 13.4315 13.4315 0 30 0C45.0379 0 57.4915 11.0644 59.6642 25.4965L62.8986 21.2163C63.8976 19.8944 65.7789 19.6326 67.1008 20.6315C68.4227 21.6304 68.6845 23.5118 67.6856 24.8337L58.8814 36.4843C57.7261 38.0132 55.453 38.0817 54.2077 36.6251L44.5145 25.2875C43.4378 24.0281 43.5859 22.1344 44.8453 21.0578C46.1046 19.9811 47.9983 20.1291 49.075 21.3885L53.8042 26.92C52.2925 15.1198 42.2113 6 30 6C16.7452 6 6 16.7452 6 30C6 42.2409 15.1641 52.3414 27.006 53.8151Z" fill="#808080"/>
</g>
</svg>
