<svg width="15" height="15" viewBox="0 0 15 15" fill="none" xmlns="http://www.w3.org/2000/svg">
<path d="M7.5 0C3.36437 0 0 3.36437 0 7.5C0 11.6356 3.36437 15 7.5 15C11.6356 15 15 11.6356 15 7.5C15 3.36437 11.6356 0 7.5 0ZM9.81687 8.93313C10.0612 9.1775 10.0612 9.5725 9.81687 9.81687C9.695 9.93875 9.535 10 9.375 10C9.215 10 9.055 9.93875 8.93313 9.81687L7.5 8.38375L6.06687 9.81687C5.945 9.93875 5.785 10 5.625 10C5.465 10 5.305 9.93875 5.18313 9.81687C4.93875 9.5725 4.93875 9.1775 5.18313 8.93313L6.61625 7.5L5.18313 6.06687C4.93875 5.8225 4.93875 5.4275 5.18313 5.18313C5.4275 4.93875 5.8225 4.93875 6.06687 5.18313L7.5 6.61625L8.93313 5.18313C9.1775 4.93875 9.5725 4.93875 9.81687 5.18313C10.0612 5.4275 10.0612 5.8225 9.81687 6.06687L8.38375 7.5L9.81687 8.93313Z" fill="white"/>
</svg>
