<svg width="33" height="30" viewBox="0 0 33 30" fill="none" xmlns="http://www.w3.org/2000/svg">
<path d="M5.72559 11.5859C6.25324 11.1983 6.94901 11.607 6.94922 12.2617C6.94922 12.5484 6.80517 12.8145 6.57715 12.9883C4.52303 14.5521 3.19639 17.0238 3.19629 19.8047C3.19631 24.5329 7.02961 28.3661 11.7578 28.3662C14.6632 28.3662 17.2306 26.919 18.7783 24.7061C18.9494 24.4615 19.224 24.3048 19.5225 24.3047C20.161 24.3047 20.5702 24.9727 20.2129 25.502C18.3812 28.2154 15.2781 30 11.7578 30L11.4951 29.9961C6.07376 29.8587 1.70397 25.4897 1.56641 20.0684L1.56348 19.8047C1.56358 16.4317 3.20153 13.4415 5.72559 11.5859ZM27.124 21.0684C27.443 20.7494 27.9603 20.7494 28.2793 21.0684L31.5469 24.3359L31.6025 24.3975C31.6099 24.4065 31.6152 24.4175 31.6221 24.4268C31.638 24.448 31.6525 24.4698 31.666 24.4922C31.6782 24.5123 31.6889 24.5328 31.6992 24.5537C31.7116 24.5788 31.7228 24.6039 31.7324 24.6299C31.7401 24.6506 31.747 24.6713 31.7529 24.6924C31.7603 24.7185 31.7658 24.7448 31.7705 24.7715C31.7742 24.7926 31.7773 24.8136 31.7793 24.835C31.7818 24.861 31.7832 24.8869 31.7832 24.9131C31.7832 24.9389 31.7817 24.9645 31.7793 24.9902C31.7773 25.0116 31.7742 25.0326 31.7705 25.0537C31.7658 25.0808 31.7594 25.1072 31.752 25.1338C31.7464 25.1536 31.7405 25.173 31.7334 25.1924C31.7232 25.2203 31.7116 25.2475 31.6982 25.2744C31.6885 25.294 31.6784 25.3131 31.667 25.332C31.6533 25.3549 31.6382 25.3767 31.6221 25.3984C31.615 25.4079 31.6101 25.4194 31.6025 25.4287L31.5469 25.4912L28.2793 28.7578C27.9603 29.0768 27.443 29.0768 27.124 28.7578C26.8053 28.4388 26.8051 27.9214 27.124 27.6025L28.793 25.9346H23.209C22.758 25.9344 22.3926 25.5682 22.3926 25.1172C22.3927 24.6662 22.758 24.3009 23.209 24.3008H29.2021L27.124 22.2236C26.8051 21.9047 26.8052 21.3874 27.124 21.0684ZM20.5547 0C26.5318 0.000198112 31.377 4.84603 31.377 10.8232C31.3768 16.8003 26.5317 21.6453 20.5547 21.6455C14.5775 21.6455 9.73162 16.8004 9.73145 10.8232C9.73145 4.84591 14.5774 0 20.5547 0ZM20.5547 1.63379C15.4796 1.63379 11.3652 5.74815 11.3652 10.8232C11.3654 15.8982 15.4797 20.0117 20.5547 20.0117C25.6295 20.0115 29.743 15.8981 29.7432 10.8232C29.7432 5.74827 25.6296 1.63399 20.5547 1.63379ZM20.3506 3.62598C20.8015 3.6262 21.1669 3.99144 21.167 4.44238V6.07617H21.5752L21.7227 6.08008C23.2328 6.1569 24.4334 7.40536 24.4336 8.93457C24.4336 9.5253 24.2532 10.0736 23.9463 10.5293C24.7269 10.9914 25.2508 11.8416 25.251 12.8145C25.251 14.2347 24.135 15.3946 22.7324 15.4658L22.5957 15.4697H20.7588V17.5117C20.7588 17.9628 20.3925 18.3281 19.9414 18.3281C19.4903 18.3281 19.125 17.9628 19.125 17.5117V15.4697H17.083V6.07617H19.5332V4.44238C19.5332 3.9913 19.8995 3.62598 20.3506 3.62598ZM18.7158 13.8359H22.5957C23.1596 13.8359 23.6172 13.3784 23.6172 12.8145C23.6169 12.2508 23.1594 11.7939 22.5957 11.7939H18.7158V13.8359ZM18.7158 10.1602H21.5752C22.2518 10.1601 22.7998 9.6112 22.7998 8.93457C22.7996 8.25814 22.2517 7.71005 21.5752 7.70996H18.7158V10.1602ZM3.84473 0.647461C4.16371 0.328508 4.68102 0.328497 5 0.647461C5.31898 0.966439 5.31895 1.48374 5 1.80273L2.92285 3.87988H8.91504C9.36585 3.88007 9.73121 4.24548 9.73145 4.69629C9.73145 5.14729 9.366 5.51348 8.91504 5.51367H3.33105L5 7.18262C5.31879 7.50162 5.31892 8.01897 5 8.33789C4.68106 8.65664 4.16367 8.65663 3.84473 8.33789L0.577148 5.07031L0.521484 5.00781C0.513755 4.99833 0.508216 4.98728 0.500977 4.97754C0.485395 4.95659 0.471322 4.93511 0.458008 4.91309C0.444847 4.89131 0.43282 4.86933 0.421875 4.84668C0.411321 4.82484 0.402049 4.80279 0.393555 4.78027C0.384887 4.7573 0.37664 4.73446 0.370117 4.71094C0.362859 4.68477 0.357142 4.65848 0.352539 4.63184C0.348999 4.61135 0.34572 4.59097 0.34375 4.57031C0.341268 4.54428 0.339833 4.51832 0.339844 4.49219C0.339854 4.46606 0.341248 4.44009 0.34375 4.41406C0.345798 4.39277 0.348824 4.3717 0.352539 4.35059C0.357114 4.32459 0.363013 4.29898 0.370117 4.27344C0.37682 4.24934 0.384602 4.22567 0.393555 4.20215C0.401591 4.18104 0.410073 4.16016 0.419922 4.13965C0.431802 4.1149 0.445443 4.09108 0.459961 4.06738C0.472652 4.04668 0.48627 4.02659 0.500977 4.00684C0.508069 3.99731 0.513923 3.98682 0.521484 3.97754L0.577148 3.91504L3.84473 0.647461Z" fill="url(#paint0_linear_7630_7265)"/>
<defs>
<linearGradient id="paint0_linear_7630_7265" x1="27.8161" y1="11.9159" x2="1.81614" y2="18.8051" gradientUnits="userSpaceOnUse">
<stop stop-color="#7775FF"/>
<stop offset="1" stop-color="#8CD5FF"/>
</linearGradient>
</defs>
</svg>
