<svg width="20" height="18" viewBox="0 0 20 18" fill="none" xmlns="http://www.w3.org/2000/svg">
<path fill-rule="evenodd" clip-rule="evenodd" d="M10.4067 2.08645C10.1478 1.97118 9.85181 1.97118 9.5929 2.08645C9.54788 2.1065 9.41444 2.18704 9.14275 2.57159C8.87409 2.95184 8.55965 3.49444 8.09546 4.29845L3.2449 12.6999C2.78037 13.5045 2.4675 14.0485 2.27245 14.4716C2.07521 14.8994 2.07213 15.0554 2.07731 15.1047C2.10691 15.3863 2.25479 15.6425 2.48424 15.8092C2.52418 15.8382 2.66061 15.9135 3.12934 15.9565C3.5929 15.9991 4.21997 16.0001 5.14851 16.0001H14.8514C15.78 16.0001 16.407 15.9991 16.8705 15.9565C17.3392 15.9135 17.4756 15.8382 17.5156 15.8092C17.7451 15.6424 17.893 15.3862 17.9226 15.1047C17.9278 15.0554 17.9247 14.8993 17.7275 14.4715C17.5325 14.0485 17.2197 13.5044 16.7552 12.6999L11.9054 4.29986C11.4409 3.49526 11.1262 2.95233 10.8574 2.57193C10.5856 2.18728 10.452 2.1066 10.4067 2.08645ZM8.77943 0.259364C9.55615 -0.0864545 10.4435 -0.0864546 11.2202 0.259364C11.7686 0.50353 12.1593 0.948735 12.4907 1.41769C12.8193 1.88272 13.1799 2.50729 13.6145 3.26007L18.5094 11.7383C18.9444 12.4917 19.3053 13.1167 19.5438 13.6342C19.7843 14.1558 19.9744 14.7168 19.9117 15.3137C19.8228 16.1597 19.3787 16.9277 18.6911 17.4272C18.2055 17.78 17.6248 17.8957 17.0533 17.9481C16.4873 18.0001 15.7675 18.0001 14.9002 18.0001H5.0997C4.23243 18.0001 3.51265 18.0001 2.94657 17.9481C2.37506 17.8957 1.79428 17.7801 1.30867 17.4272C0.620989 16.9276 0.177158 16.1595 0.0882639 15.3137C0.0255129 14.7167 0.21576 14.1557 0.456191 13.6342C0.694647 13.117 1.05531 12.4923 1.48999 11.7395L6.3878 3.2562C6.82136 2.50522 7.18125 1.88183 7.5093 1.41752C7.84046 0.948814 8.23104 0.503521 8.77943 0.259364ZM9.99997 5.00006C10.5523 5.00006 11 5.44777 11 6.00006V10.0001C11 10.5523 10.5523 11.0001 9.99997 11.0001C9.44769 11.0001 8.99997 10.5523 8.99997 10.0001V6.00006C8.99997 5.44777 9.44769 5.00006 9.99997 5.00006ZM8.95017 13.0001C8.95017 12.4478 9.39788 12.0001 9.95017 12.0001H10.0508C10.603 12.0001 11.0508 12.4478 11.0508 13.0001V13.1001C11.0508 13.6516 10.6042 14.099 10.0527 14.1001L9.95212 14.1003C9.68657 14.1008 9.43171 13.9956 9.24375 13.8081C9.05579 13.6205 8.95017 13.3658 8.95017 13.1003V13.0001Z" fill="white"/>
</svg>
