<svg width="24" height="24" viewBox="0 0 24 24" fill="none" xmlns="http://www.w3.org/2000/svg">
<path d="M12 24C18.6274 24 24 18.6274 24 12C24 5.37258 18.6274 0 12 0C5.37258 0 0 5.37258 0 12C0 18.6274 5.37258 24 12 24Z" fill="#00C4FF" fill-opacity="0.1"/>
<path d="M12 24C18.6274 24 24 18.6274 24 12C24 5.37258 18.6274 0 12 0C5.37258 0 0 5.37258 0 12C0 18.6274 5.37258 24 12 24Z" fill="#00C4FF" fill-opacity="0.1"/>
<path d="M12.25 18L8.26189 14.5816C7.9474 14.3121 7.91098 13.8386 8.18054 13.5241C8.45011 13.2096 8.92359 13.1732 9.23808 13.4427L11.5 15.3815L11.5 13.25L13 13.25L13 15.3815L15.2619 13.4427C15.5764 13.1732 16.0499 13.2096 16.3194 13.5241C16.589 13.8386 16.5526 14.3121 16.2381 14.5816L12.25 18Z" fill="#00C4FF"/>
<path d="M13 11.75L13 10.25L11.5 10.25L11.5 11.75L13 11.75Z" fill="#00C4FF"/>
<path d="M13 8.01219L13 8.75L11.5 8.75L11.5 8.01219C11.5 7.59798 11.8358 7.26219 12.25 7.26219C12.6642 7.26219 13 7.59798 13 8.01219Z" fill="#00C4FF"/>
</svg>
