<svg width="26" height="26" viewBox="0 0 26 26" fill="none" xmlns="http://www.w3.org/2000/svg">
<path d="M13 25C19.6274 25 25 19.6274 25 13C25 6.37258 19.6274 1 13 1C6.37258 1 1 6.37258 1 13C1 19.6274 6.37258 25 13 25Z" fill="#00C4FF" fill-opacity="0.1" stroke="#00C4FF"/>
<path fill-rule="evenodd" clip-rule="evenodd" d="M13 17.5L9.58165 14.57C9.31208 14.3389 9.28086 13.9331 9.51192 13.6635C9.74298 13.3939 10.1488 13.3627 10.4184 13.5938L12.3572 15.2556L12.3572 8.93902C12.3572 8.58398 12.645 8.29616 13 8.29616C13.3551 8.29616 13.6429 8.58398 13.6429 8.93902L13.6429 15.2556L15.5816 13.5938C15.8512 13.3627 16.2571 13.3939 16.4881 13.6635C16.7192 13.9331 16.6879 14.3389 16.4184 14.57L13 17.5Z" fill="#00C4FF"/>
</svg>
