<svg width="24" height="24" viewBox="0 0 24 24" fill="none" xmlns="http://www.w3.org/2000/svg">
<path d="M23.5 12C23.5 18.3513 18.3513 23.5 12 23.5C5.64873 23.5 0.5 18.3513 0.5 12C0.5 5.64873 5.64873 0.5 12 0.5C18.3513 0.5 23.5 5.64873 23.5 12Z" fill="url(#paint0_linear_217_1792)" fill-opacity="0.2" stroke="url(#paint1_linear_217_1792)"/>
<path d="M8 13.8571V10C8 9.14286 8.45 7 11.15 7C13.85 7 14.3 9.14286 14.3 10V13V16M14.3 16L11.6 13.8571M14.3 16L17 13.8571" stroke="url(#paint2_linear_217_1792)" stroke-width="1.3" stroke-linecap="round"/>
<defs>
<linearGradient id="paint0_linear_217_1792" x1="22.4348" y1="20.6087" x2="1.65172" y2="21.0183" gradientUnits="userSpaceOnUse">
<stop stop-color="#00C4FF"/>
<stop offset="1" stop-color="#DEFF58"/>
</linearGradient>
<linearGradient id="paint1_linear_217_1792" x1="22.4348" y1="20.6087" x2="1.65172" y2="21.0183" gradientUnits="userSpaceOnUse">
<stop stop-color="#00C4FF"/>
<stop offset="1" stop-color="#DEFF58"/>
</linearGradient>
<linearGradient id="paint2_linear_217_1792" x1="15.1511" y1="13.5031" x2="8.52596" y2="13.6196" gradientUnits="userSpaceOnUse">
<stop stop-color="#00C4FF"/>
<stop offset="1" stop-color="#DEFF58"/>
</linearGradient>
</defs>
</svg>
