<svg width="24" height="24" viewBox="0 0 24 24" fill="none" xmlns="http://www.w3.org/2000/svg">
<path d="M12 24C18.6274 24 24 18.6274 24 12C24 5.37258 18.6274 0 12 0C5.37258 0 0 5.37258 0 12C0 18.6274 5.37258 24 12 24Z" fill="#DEFF58" fill-opacity="0.2"/>
<path fill-rule="evenodd" clip-rule="evenodd" d="M12.2143 7.71423L15.6326 10.6443C15.9022 10.8753 15.9334 11.2812 15.7024 11.5507C15.4713 11.8203 15.0655 11.8515 14.7959 11.6204L12.8571 9.95864L12.8571 11.7857L11.5714 11.7857L11.5714 9.95864L9.63265 11.6204C9.36308 11.8515 8.95724 11.8203 8.72619 11.5507C8.49513 11.2812 8.52635 10.8753 8.79591 10.6443L12.2143 7.71423ZM11.5714 13.0714L11.5714 14.3571L12.8571 14.3571L12.8571 13.0714L11.5714 13.0714ZM11.5714 16.2752L11.5714 15.6428L12.8571 15.6428L12.8571 16.2752C12.8571 16.6303 12.5693 16.9181 12.2143 16.9181C11.8592 16.9181 11.5714 16.6303 11.5714 16.2752Z" fill="#DEFF58"/>
</svg>
