<svg width="26" height="26" viewBox="0 0 26 26" fill="none" xmlns="http://www.w3.org/2000/svg">
<path d="M13 25C19.6274 25 25 19.6274 25 13C25 6.37258 19.6274 1 13 1C6.37258 1 1 6.37258 1 13C1 19.6274 6.37258 25 13 25Z" fill="#DEFF58" fill-opacity="0.2" stroke="#DEFF58"/>
<path fill-rule="evenodd" clip-rule="evenodd" d="M13 8.29614L16.4184 11.2262C16.6879 11.4572 16.7191 11.8631 16.4881 12.1326C16.257 12.4022 15.8512 12.4334 15.5816 12.2024L13.6428 10.5405V16.8571C13.6428 17.2122 13.355 17.5 13 17.5C12.6449 17.5 12.3571 17.2122 12.3571 16.8571V10.5405L10.4184 12.2024C10.1488 12.4334 9.74295 12.4022 9.51189 12.1326C9.28083 11.8631 9.31205 11.4572 9.58162 11.2262L13 8.29614Z" fill="#DEFF58"/>
</svg>
