<svg width="24" height="24" viewBox="0 0 24 24" fill="none" xmlns="http://www.w3.org/2000/svg">
<path d="M12 24C18.6274 24 24 18.6274 24 12C24 5.37258 18.6274 0 12 0C5.37258 0 0 5.37258 0 12C0 18.6274 5.37258 24 12 24Z" fill="url(#paint0_linear_217_1797)" fill-opacity="0.2"/>
<path fill-rule="evenodd" clip-rule="evenodd" d="M8.3 11.4501L7 11.4501V12.6644L8.3 12.6644V11.4501ZM8.745 9.20132C8.5282 9.51104 8.40927 9.8612 8.35013 10.1644L7.03357 10.1644C7.09982 9.66442 7.2774 9.03096 7.68 8.45582C8.25721 7.63123 9.24782 7 10.8 7C12.3522 7 13.3428 7.63123 13.92 8.45582C14.4699 9.24134 14.6 10.1357 14.6 10.65V15.3043L16.2459 13.998C16.5271 13.7748 16.936 13.8219 17.1591 14.1031C17.3823 14.3843 17.3353 14.7931 17.0541 15.0163L13.95 17.4798L10.8459 15.0163C10.5647 14.7931 10.5177 14.3843 10.7409 14.1031C10.964 13.8219 11.3729 13.7748 11.6541 13.998L13.3 15.3043V10.65C13.3 10.3072 13.2051 9.70151 12.855 9.20132C12.5322 8.7402 11.9478 8.3 10.8 8.3C9.65218 8.3 9.06779 8.7402 8.745 9.20132ZM7 13.9501L8.3 13.9501V14.5071C8.3 14.8661 8.00899 15.1571 7.65 15.1571C7.29101 15.1571 7 14.8661 7 14.5071V13.9501Z" fill="url(#paint1_linear_217_1797)"/>
<defs>
<linearGradient id="paint0_linear_217_1797" x1="22.4348" y1="20.6087" x2="1.65172" y2="21.0183" gradientUnits="userSpaceOnUse">
<stop stop-color="#00C4FF"/>
<stop offset="1" stop-color="#DEFF58"/>
</linearGradient>
<linearGradient id="paint1_linear_217_1797" x1="14.8011" y1="14.1531" x2="8.17599" y2="14.2697" gradientUnits="userSpaceOnUse">
<stop stop-color="#00C4FF"/>
<stop offset="1" stop-color="#DEFF58"/>
</linearGradient>
</defs>
</svg>
