<svg width="16" height="17" viewBox="0 0 16 17" fill="none" xmlns="http://www.w3.org/2000/svg">
<path fill-rule="evenodd" clip-rule="evenodd" d="M7.02183 3.04104C6.85684 3.06508 6.69524 3.10839 6.54034 3.17006C5.61819 3.53721 5.07112 4.49187 5.22056 5.4731L5.24126 5.60897C5.2669 5.77733 5.31111 5.94233 5.37308 6.10095L5.98301 7.6621C7.44246 7.56286 8.90741 7.57145 10.3659 7.68789L11.3633 7.76751C12.0087 7.81904 12.5357 8.30419 12.6404 8.94313C12.8815 10.4157 12.8815 11.9177 12.6404 13.3903C12.5357 14.0293 12.0087 14.5144 11.3633 14.566L10.3659 14.6456C8.79116 14.7713 7.20888 14.7713 5.63412 14.6456L4.6367 14.566C3.9913 14.5144 3.4643 14.0293 3.35968 13.3903C3.11855 11.9177 3.11855 10.4157 3.35968 8.94313C3.4643 8.30419 3.9913 7.81904 4.6367 7.76751L4.94109 7.74321L4.44165 6.46485C4.3528 6.23745 4.28942 6.0009 4.25266 5.75954L4.23196 5.62367C4.01246 4.18244 4.81599 2.78026 6.17043 2.24099C6.39795 2.1504 6.63531 2.0868 6.87765 2.05149C8.32026 1.84129 9.71723 2.65386 10.2477 4.01174L10.2978 4.13976C10.3866 4.36716 10.45 4.60371 10.4868 4.84507L10.581 5.46375C10.6087 5.64574 10.4836 5.81575 10.3016 5.84347L9.9721 5.89366C9.7901 5.92138 9.6201 5.79631 9.59238 5.61431L9.49815 4.99564C9.47251 4.82728 9.4283 4.66228 9.36633 4.50366L9.31631 4.37565C8.95512 3.45115 8.00401 2.89793 7.02183 3.04104ZM8 10.1667C7.44771 10.1667 7 10.6145 7 11.1667C7 11.719 7.44771 12.1667 8 12.1667C8.55228 12.1667 9 11.719 9 11.1667C9 10.6145 8.55228 10.1667 8 10.1667Z" fill="white"/>
</svg>
