<svg width="31" height="30" viewBox="0 0 31 30" fill="none" xmlns="http://www.w3.org/2000/svg">
<path d="M15.4785 0C19.7708 0 23.3137 3.19786 23.8604 7.34082H28.4043L28.5361 7.34375C29.8849 7.4124 30.957 8.52774 30.957 9.89355C30.957 10.2101 30.8973 10.5123 30.792 10.792C30.7938 10.8114 30.7978 10.8307 30.7979 10.8506V30H0V12.6064C0 12.5513 0.00931006 12.4983 0.0224609 12.4473H0V7.34082H7.09766C7.64429 3.198 11.1865 0.000200382 15.4785 0ZM29.5215 12.1875C29.221 12.3341 28.8885 12.4254 28.5361 12.4434L28.4043 12.4473H1.25391C1.26707 12.4983 1.27637 12.5513 1.27637 12.6064V17.5527H8.93652L9.10059 17.5576C10.7868 17.6432 12.1279 19.0377 12.1279 20.7451V21.0635L12.124 21.2285C12.0411 22.8601 10.7322 24.1682 9.10059 24.251L8.93652 24.2549H1.27637V28.7236H29.5215V12.1875ZM1.27637 22.9785H6.38281V18.8301H1.27637V22.9785ZM7.65918 22.9785H8.93652C9.99392 22.9783 10.8506 22.1209 10.8506 21.0635V20.7451C10.8506 19.7206 10.046 18.8833 9.03418 18.832L8.93652 18.8301H7.65918V22.9785ZM23.9326 8.61719C23.9161 9.5086 23.7641 10.3664 23.4922 11.1699H28.4043C29.1093 11.1699 29.6807 10.5986 29.6807 9.89355C29.6806 9.18857 29.1093 8.61723 28.4043 8.61719H23.9326ZM15.4785 1.27637C11.513 1.27659 8.29808 4.49148 8.29785 8.45703C8.29785 9.41695 8.48734 10.3329 8.8291 11.1699H13.085V5.10645H15V3.83008C15 3.47768 15.2853 3.19161 15.6377 3.19141C15.9902 3.19141 16.2764 3.47756 16.2764 3.83008V5.10645H16.5957L16.7109 5.10938C17.8912 5.1694 18.8301 6.14568 18.8301 7.34082C18.83 7.80226 18.688 8.22996 18.4482 8.58594C19.0585 8.94699 19.4677 9.61164 19.4678 10.3721C19.4678 10.6548 19.411 10.9243 19.3086 11.1699H22.1289C22.4707 10.3329 22.6602 9.41693 22.6602 8.45703C22.6599 4.49135 19.4442 1.27637 15.4785 1.27637ZM14.3613 11.1699H17.3936C17.8342 11.1699 18.1914 10.8127 18.1914 10.3721C18.1913 9.93158 17.8341 9.57427 17.3936 9.57422H14.3613V11.1699ZM1.27637 8.61719V11.1699H7.46582C7.19391 10.3664 7.04093 9.50862 7.02441 8.61719H1.27637ZM14.3613 8.29785H16.5957C17.1243 8.29779 17.5525 7.86939 17.5527 7.34082C17.5527 6.81207 17.1244 6.38287 16.5957 6.38281H14.3613V8.29785Z" fill="url(#paint0_linear_7630_7261)"/>
<defs>
<linearGradient id="paint0_linear_7630_7261" x1="27.0512" y1="11.9159" x2="1.40181" y2="18.6072" gradientUnits="userSpaceOnUse">
<stop stop-color="#7775FF"/>
<stop offset="1" stop-color="#8CD5FF"/>
</linearGradient>
</defs>
</svg>
