<svg width="18" height="18" viewBox="0 0 18 18" fill="none" xmlns="http://www.w3.org/2000/svg">
<path fill-rule="evenodd" clip-rule="evenodd" d="M14.25 12.4898C13.2158 12.4898 13.125 12.4009 13.125 11.3878C13.125 10.3746 13.2158 10.2857 14.25 10.2857C15.2842 10.2857 15.375 10.3746 15.375 11.3878C15.375 12.4009 15.2842 12.4898 14.25 12.4898ZM15.75 2.93878H3.75C3.108 2.93878 2.51025 2.65886 2.088 2.20114C2.49975 1.75518 3.08925 1.46939 3.75 1.46939H17.25C17.664 1.46939 18 1.14024 18 0.734694C18 0.329143 17.664 0 17.25 0H3.75C1.67925 0 0 1.64498 0 3.67347V11.0204C0 13.0489 1.67925 14.6939 3.75 14.6939H9.75C10.164 14.6939 10.5 14.3647 10.5 13.9592C10.5 13.5536 10.164 13.2245 9.75 13.2245H3.75C2.50725 13.2245 1.5 12.2378 1.5 11.0204V3.67347C1.5 3.67347 1.5015 3.67273 1.50375 3.672C2.1435 4.14074 2.9295 4.40816 3.75 4.40816H15.75C16.164 4.40816 16.5 4.73731 16.5 5.14286V8.81633C16.5 9.22188 16.836 9.55102 17.25 9.55102C17.664 9.55102 18 9.22188 18 8.81633V5.14286C18 3.92547 16.9927 2.93878 15.75 2.93878ZM13.65 13.5918C13.3601 13.5918 13.125 13.8221 13.125 14.1061V17.4857C13.125 17.7697 13.3601 18 13.65 18H14.85C15.1399 18 15.375 17.7697 15.375 17.4857V14.1061C15.375 13.8221 15.1399 13.5918 14.85 13.5918H13.65Z" fill="white"/>
</svg>
