<svg width="24" height="24" viewBox="0 0 24 24" fill="none" xmlns="http://www.w3.org/2000/svg">
<path d="M12 21.2111C7.175 21.2111 3.096 20.2801 2.925 20.2411C2.597 20.1651 2.33 19.9301 2.213 19.6161C2.163 19.4831 1 16.3061 1 12.0001C1 7.73006 2.163 4.52206 2.212 4.38806C2.329 4.07106 2.597 3.83506 2.926 3.75906C3.097 3.71906 7.186 2.78906 12 2.78906H19.803C20.355 2.78906 20.803 3.23706 20.803 3.78906C20.803 4.34106 20.355 4.78906 19.803 4.78906H12C8.405 4.78906 5.174 5.34706 3.923 5.59406C3.871 5.76806 3.81 5.98306 3.745 6.23506C5.231 6.52806 8.571 7.09906 12 7.09906C16.584 7.09906 21.093 6.03406 21.138 6.02306C21.395 5.96206 21.669 6.00406 21.896 6.14506C22.123 6.28506 22.284 6.50906 22.344 6.76806C22.69 8.24906 23 9.76406 23 12.0011C23 16.2711 21.837 19.4791 21.788 19.6131C21.671 19.9301 21.403 20.1661 21.074 20.2421C20.903 20.2821 16.814 21.2111 12 21.2111ZM3.921 18.4061C5.17 18.6521 8.403 19.2111 12 19.2111C15.597 19.2111 18.826 18.6531 20.077 18.4061C20.382 17.3851 21 14.9501 21 11.9991C21 10.4321 20.836 9.27706 20.61 8.18006C18.974 8.50906 15.548 9.09706 12 9.09706C8.345 9.09706 4.877 8.50006 3.327 8.19106C3.144 9.27406 3 10.5761 3 11.9991C3 14.9871 3.616 17.3971 3.921 18.4061Z" fill="white"/>
<path d="M17.47 14.2695C18.0223 14.2695 18.47 13.8218 18.47 13.2695C18.47 12.7172 18.0223 12.2695 17.47 12.2695C16.9177 12.2695 16.47 12.7172 16.47 13.2695C16.47 13.8218 16.9177 14.2695 17.47 14.2695Z" fill="white"/>
</svg>
