<svg width="24" height="19" viewBox="0 0 24 19" fill="none" xmlns="http://www.w3.org/2000/svg">
<path d="M19.5 1V8M16 4.5H23" stroke="white" stroke-width="2" stroke-linecap="round"/>
<circle cx="4.8" cy="10.8" r="0.8" fill="white"/>
<circle cx="11.3" cy="10.8" r="0.8" fill="white"/>
<path d="M6.68302 11.0336C6.68302 12.8772 5.31049 14.2672 3.74151 14.2672C2.17253 14.2672 0.8 12.8772 0.8 11.0336C0.8 9.19004 2.17253 7.8 3.74151 7.8C5.31049 7.8 6.68302 9.19004 6.68302 11.0336Z" stroke="white" stroke-width="1.6"/>
<path d="M13.2 11.0336C13.2 12.8772 11.8275 14.2672 10.2585 14.2672C8.68949 14.2672 7.31697 12.8772 7.31697 11.0336C7.31697 9.19004 8.68949 7.8 10.2585 7.8C11.8275 7.8 13.2 9.19004 13.2 11.0336Z" stroke="white" stroke-width="1.6"/>
<path fill-rule="evenodd" clip-rule="evenodd" d="M17.5 2.4409C14.1634 1.92874 9.30409 1.6718 4.54364 2.75958C3.39885 3.02116 2.54112 3.95995 2.38024 5.12114C2.32965 5.4863 2.28022 5.8882 2.23462 6.32061C2.78355 6.11342 3.37853 6.00004 3.99998 6.00004C4.09475 6.00004 4.1889 6.00268 4.28237 6.00788C4.30801 5.79389 4.33446 5.58945 4.36132 5.39561C4.40842 5.05566 4.65654 4.78533 4.98916 4.70932C8.12066 3.99377 11.3231 3.90083 14.0448 4.07693C14.239 3.17557 15.0406 2.50004 16 2.50004H17.5V2.4409ZM19.9908 9.93938C20.0512 12.3966 19.8036 14.4185 19.5379 15.691C19.4882 15.9287 19.3201 16.1158 19.0921 16.1903C16.9563 16.8884 14.3393 17.0742 11.7641 16.9754C9.20073 16.877 6.74773 16.4997 4.97737 16.1183C4.84913 16.0907 4.73365 16.0356 4.63671 15.9599C4.4282 15.9864 4.21569 16 3.99998 16C3.42288 16 2.86861 15.9023 2.35284 15.7224L2.35757 15.7528C2.5389 16.9153 3.41813 17.8283 4.55615 18.0734C6.41933 18.4748 8.98888 18.8703 11.6874 18.9739C14.3741 19.077 17.2583 18.8939 19.7135 18.0914C20.6247 17.7935 21.3003 17.0354 21.4956 16.0998C21.9101 14.1152 22.264 10.6207 21.7295 6.50004H21.5V8.00004C21.5 8.93528 20.8581 9.72058 19.9908 9.93938Z" fill="white"/>
</svg>
