<svg width="24" height="24" viewBox="0 0 24 24" fill="none" xmlns="http://www.w3.org/2000/svg">
<path d="M20.5034 14.14C19.9968 14.14 19.6001 14.0433 19.3134 13.85C19.0334 13.6567 18.8301 13.4367 18.7034 13.19H18.5634V14H17.7934V7H18.5834V9.88H18.7234C18.8034 9.72667 18.9168 9.58333 19.0634 9.45C19.2101 9.31 19.4001 9.19667 19.6334 9.11C19.8734 9.01667 20.1634 8.97 20.5034 8.97C20.9301 8.97 21.3168 9.07333 21.6634 9.28C22.0168 9.48 22.2968 9.77 22.5034 10.15C22.7101 10.5233 22.8134 10.97 22.8134 11.49V11.62C22.8134 12.14 22.7068 12.59 22.4934 12.97C22.2868 13.35 22.0068 13.64 21.6534 13.84C21.3068 14.04 20.9234 14.14 20.5034 14.14ZM20.2934 13.44C20.8001 13.44 21.2101 13.28 21.5234 12.96C21.8434 12.6333 22.0034 12.18 22.0034 11.6V11.51C22.0034 10.93 21.8434 10.48 21.5234 10.16C21.2101 9.83333 20.8001 9.67 20.2934 9.67C19.7934 9.67 19.3801 9.83333 19.0534 10.16C18.7334 10.48 18.5734 10.93 18.5734 11.51V11.6C18.5734 12.18 18.7334 12.6333 19.0534 12.96C19.3801 13.28 19.7934 13.44 20.2934 13.44Z" fill="white"/>
<path d="M13.9404 14.0899C13.5871 14.0899 13.2604 14.0132 12.9604 13.8599C12.6671 13.7065 12.4337 13.4799 12.2604 13.1799C12.0937 12.8732 12.0104 12.5032 12.0104 12.0699V9.10986H12.8004V12.0099C12.8004 12.4965 12.9204 12.8499 13.1604 13.0699C13.4071 13.2899 13.7371 13.3999 14.1504 13.3999C14.6171 13.3999 15.0004 13.2465 15.3004 12.9399C15.6004 12.6332 15.7504 12.1765 15.7504 11.5699V9.10986H16.5404V13.9999H15.7704V13.1699H15.6304C15.5237 13.4032 15.3404 13.6165 15.0804 13.8099C14.8204 13.9965 14.4404 14.0899 13.9404 14.0899Z" fill="white"/>
<path d="M6.03484 16.0002V9.11021H6.80484V9.92021H6.94484C7.0715 9.67355 7.27484 9.45355 7.55484 9.26021C7.8415 9.06688 8.23817 8.97021 8.74484 8.97021C9.16484 8.97021 9.54817 9.07355 9.89484 9.28021C10.2482 9.48021 10.5282 9.76688 10.7348 10.1402C10.9482 10.5135 11.0548 10.9635 11.0548 11.4902V11.6202C11.0548 12.1402 10.9515 12.5902 10.7448 12.9702C10.5382 13.3502 10.2582 13.6402 9.90484 13.8402C9.55817 14.0402 9.1715 14.1402 8.74484 14.1402C8.40484 14.1402 8.11484 14.0935 7.87484 14.0002C7.6415 13.9135 7.4515 13.8002 7.30484 13.6602C7.15817 13.5202 7.04484 13.3769 6.96484 13.2302H6.82484V16.0002H6.03484ZM8.53484 13.4402C9.0415 13.4402 9.4515 13.2802 9.76484 12.9602C10.0848 12.6335 10.2448 12.1802 10.2448 11.6002V11.5102C10.2448 10.9302 10.0848 10.4802 9.76484 10.1602C9.4515 9.83355 9.0415 9.67021 8.53484 9.67021C8.03484 9.67021 7.6215 9.83355 7.29484 10.1602C6.97484 10.4802 6.81484 10.9302 6.81484 11.5102V11.6002C6.81484 12.1802 6.97484 12.6335 7.29484 12.9602C7.6215 13.2802 8.03484 13.4402 8.53484 13.4402Z" fill="white"/>
<path d="M1 13.9999V12.9799L4.11 9.90986V9.79986H1.1V9.10986H4.94V10.1299L1.82 13.1999V13.3199H5.02V13.9999H1Z" fill="white"/>
</svg>
