<svg width="22" height="9" viewBox="0 0 22 9" fill="none" xmlns="http://www.w3.org/2000/svg">
<path d="M19.5035 7.14C18.9968 7.14 18.6001 7.04333 18.3135 6.85C18.0335 6.65667 17.8301 6.43667 17.7035 6.19H17.5635V7H16.7935V0H17.5835V2.88H17.7235C17.8035 2.72667 17.9168 2.58333 18.0635 2.45C18.2101 2.31 18.4001 2.19667 18.6335 2.11C18.8735 2.01667 19.1635 1.97 19.5035 1.97C19.9301 1.97 20.3168 2.07333 20.6635 2.28C21.0168 2.48 21.2968 2.77 21.5035 3.15C21.7101 3.52333 21.8135 3.97 21.8135 4.49V4.62C21.8135 5.14 21.7068 5.59 21.4935 5.97C21.2868 6.35 21.0068 6.64 20.6535 6.84C20.3068 7.04 19.9235 7.14 19.5035 7.14ZM19.2935 6.44C19.8001 6.44 20.2101 6.28 20.5235 5.96C20.8435 5.63333 21.0035 5.18 21.0035 4.6V4.51C21.0035 3.93 20.8435 3.48 20.5235 3.16C20.2101 2.83333 19.8001 2.67 19.2935 2.67C18.7935 2.67 18.3801 2.83333 18.0535 3.16C17.7335 3.48 17.5735 3.93 17.5735 4.51V4.6C17.5735 5.18 17.7335 5.63333 18.0535 5.96C18.3801 6.28 18.7935 6.44 19.2935 6.44Z" fill="white"/>
<path d="M12.9404 7.08986C12.587 7.08986 12.2604 7.0132 11.9604 6.85986C11.667 6.70653 11.4337 6.47986 11.2604 6.17986C11.0937 5.8732 11.0104 5.5032 11.0104 5.06986V2.10986H11.8004V5.00986C11.8004 5.49653 11.9204 5.84986 12.1604 6.06986C12.407 6.28986 12.737 6.39986 13.1504 6.39986C13.617 6.39986 14.0004 6.24653 14.3004 5.93986C14.6004 5.6332 14.7504 5.17653 14.7504 4.56986V2.10986H15.5404V6.99986H14.7704V6.16986H14.6304C14.5237 6.4032 14.3404 6.61653 14.0804 6.80986C13.8204 6.99653 13.4404 7.08986 12.9404 7.08986Z" fill="white"/>
<path d="M5.03485 9.00022V2.11021H5.80485V2.92021H5.94485C6.07152 2.67355 6.27485 2.45355 6.55485 2.26021C6.84152 2.06688 7.23819 1.97021 7.74485 1.97021C8.16485 1.97021 8.54818 2.07355 8.89485 2.28021C9.24818 2.48021 9.52818 2.76688 9.73485 3.14021C9.94818 3.51355 10.0549 3.96355 10.0549 4.49021V4.62021C10.0549 5.14021 9.95152 5.59022 9.74485 5.97022C9.53818 6.35022 9.25818 6.64022 8.90485 6.84022C8.55818 7.04022 8.17152 7.14022 7.74485 7.14022C7.40485 7.14022 7.11485 7.09355 6.87485 7.00022C6.64152 6.91355 6.45152 6.80021 6.30485 6.66021C6.15818 6.52022 6.04485 6.37688 5.96485 6.23021H5.82485V9.00022H5.03485ZM7.53485 6.44021C8.04152 6.44021 8.45152 6.28022 8.76485 5.96022C9.08485 5.63355 9.24485 5.18021 9.24485 4.60021V4.51021C9.24485 3.93021 9.08485 3.48021 8.76485 3.16021C8.45152 2.83355 8.04152 2.67021 7.53485 2.67021C7.03485 2.67021 6.62152 2.83355 6.29485 3.16021C5.97485 3.48021 5.81485 3.93021 5.81485 4.51021V4.60021C5.81485 5.18021 5.97485 5.63355 6.29485 5.96022C6.62152 6.28022 7.03485 6.44021 7.53485 6.44021Z" fill="white"/>
<path d="M0 6.99986V5.97986L3.11 2.90986V2.79986H0.1V2.10986H3.94V3.12986L0.82 6.19986V6.31986H4.02V6.99986H0Z" fill="white"/>
</svg>
