<svg width="24" height="24" viewBox="0 0 24 24" fill="none" xmlns="http://www.w3.org/2000/svg">
<g clip-path="url(#clip0_2898_7364)">
<path d="M17.275 12.6026C18.4104 11.9172 19.2826 10.8056 19.6235 9.42619C20.2734 6.79605 18.7448 4.11548 16.1758 3.22696L16.4076 2.28894C16.5326 1.78314 16.2125 1.26494 15.6962 1.13738C15.18 1.00981 14.6554 1.31928 14.5304 1.82507L14.3032 2.7447L12.426 2.28084L12.6532 1.36121C12.7782 0.855414 12.4581 0.337211 11.9419 0.209649C11.4256 0.0820859 10.901 0.39155 10.776 0.897346L10.5488 1.81698C8.47446 1.30441 6.3876 2.53538 5.88539 4.56777L3.15845 15.6033C2.65624 17.6357 3.92956 19.697 6.00387 20.2096L5.77662 21.1292C5.65164 21.635 5.97175 22.1532 6.48798 22.2808C7.00421 22.4083 7.52884 22.0989 7.65382 21.5931L7.88107 20.6734L9.75827 21.1373L9.53102 22.0569C9.40604 22.5627 9.72615 23.0809 10.2424 23.2085C10.7586 23.3361 11.2832 23.0266 11.4082 22.5208L11.6355 21.6012L13.0434 21.9491C15.8873 22.6518 18.767 20.9532 19.4555 18.1667C19.9918 15.9964 19.0501 13.8024 17.275 12.6026ZM7.76259 5.03163C8.01255 4.02004 9.06181 3.40111 10.0943 3.65624L15.2566 4.93186C17.0681 5.37949 18.1849 7.18744 17.7463 8.96233C17.3077 10.7372 15.4774 11.8169 13.6659 11.3693L6.62636 9.62978L7.76259 5.03163ZM13.4979 20.1098L6.45836 18.3703C5.4259 18.1152 4.78568 17.0788 5.03565 16.0672L6.17187 11.469L15.0886 13.6724C16.9001 14.12 18.0169 15.928 17.5783 17.7029C17.1397 19.4777 15.3093 20.5574 13.4979 20.1098Z" fill="black"/>
</g>
<defs>
<clipPath id="clip0_2898_7364">
<rect width="24" height="24" fill="white"/>
</clipPath>
</defs>
</svg>
