<svg width="24" height="24" viewBox="0 0 24 24" fill="none" xmlns="http://www.w3.org/2000/svg">
<g clip-path="url(#clip0_2898_7372)">
<path d="M12 0C5.383 0 0 5.383 0 12C0 18.617 5.383 24 12 24C18.617 24 24 18.617 24 12C24 5.383 18.617 0 12 0ZM12 22C6.486 22 2 17.514 2 12C2 6.486 6.486 2 12 2C17.514 2 22 6.486 22 12C22 17.514 17.514 22 12 22Z" fill="black"/>
<path d="M14.5293 5.10444C14.917 5.20022 15.1616 5.59072 15.0663 5.97648L14.948 6.45525C16.5481 7.06773 17.4909 8.76729 17.0775 10.4409C16.8718 11.2732 16.3679 11.9543 15.7072 12.4038C16.7604 13.2011 17.3058 14.5607 16.9726 15.9094C16.5246 17.7216 14.654 18.8218 12.8104 18.3664L12.051 18.1788L11.9388 18.6329C11.8435 19.0187 11.4451 19.2503 11.0575 19.1545C10.67 19.0586 10.4262 18.6684 10.5215 18.2827L10.6337 17.8286L9.70178 17.5983L9.58957 18.0524C9.49426 18.4381 9.09674 18.6699 8.70919 18.5742C8.32157 18.4784 8.07691 18.0879 8.17224 17.7022L8.28609 17.2414C6.99559 16.8565 6.21332 15.5461 6.53469 14.2455L8.24062 7.34184C8.562 6.04129 9.8648 5.24509 11.1861 5.50554L11.2997 5.04574C11.395 4.65998 11.7934 4.42837 12.181 4.52416C12.5685 4.62003 12.8123 5.01028 12.717 5.39597L12.6048 5.85008L13.5367 6.08037L13.649 5.62625C13.7443 5.24055 14.1418 5.00876 14.5293 5.10444ZM7.95202 14.5957C7.81281 15.1591 8.16895 15.7416 8.74994 15.8854L13.1546 16.9738C14.2229 17.2375 15.2979 16.5999 15.5552 15.5591C15.8124 14.5183 15.1581 13.4534 14.0898 13.1892L8.6328 11.8407L7.95202 14.5957ZM10.9647 6.92252C10.3836 6.77916 9.79717 7.1287 9.65795 7.69207L8.97717 10.4471L13.2595 11.5053C14.328 11.7692 15.4039 11.1318 15.6611 10.0909C15.9182 9.05 15.2631 7.98475 14.1947 7.72067L10.9647 6.92252Z" fill="black" stroke="black" stroke-width="0.25"/>
</g>
<defs>
<clipPath id="clip0_2898_7372">
<rect width="24" height="24" fill="white"/>
</clipPath>
</defs>
</svg>
