<svg width="24" height="24" viewBox="0 0 24 24" fill="none" xmlns="http://www.w3.org/2000/svg">
<g clip-path="url(#clip0_2884_7345)">
<path d="M6.686 17C7.09 17 7.531 16.95 7.997 16.848C9.864 16.436 11.896 15.239 13.572 13.565C15.092 12.046 16.207 10.254 16.711 8.51999C17.201 6.83599 17.061 5.39799 16.336 4.67399C15.688 4.02599 14.458 3.83999 13.016 4.15499C11.148 4.56699 9.116 5.76299 7.441 7.43799C5.921 8.95699 4.806 10.749 4.301 12.483C3.811 14.167 3.951 15.604 4.675 16.328C5.119 16.771 5.82 17 6.686 17ZM8.854 8.85199C10.267 7.43999 11.94 6.43999 13.445 6.10799C13.762 6.03799 14.069 6.00199 14.333 6.00199C14.714 6.00199 14.883 6.06699 14.905 6.06899C15.215 6.53699 14.965 9.34699 12.158 12.151C10.745 13.563 9.071 14.564 7.567 14.896C6.614 15.104 6.148 14.953 6.106 14.935C5.796 14.467 6.047 11.656 8.854 8.85199ZM20.38 2.90499L19.073 1.66599C15.77 -1.43201 9.501 -0.137013 4.682 4.68199C-0.123003 9.48599 -1.423 15.731 1.637 19.041L2.903 20.381C5.312 22.791 8.476 23.995 11.641 23.995C14.806 23.995 17.97 22.79 20.379 20.381C22.714 18.047 23.999 14.943 23.999 11.643C23.999 8.34299 22.715 5.23899 20.38 2.90499ZM6.096 6.09699C8.715 3.47799 11.949 2.01199 14.528 2.01199C15.845 2.01199 16.993 2.39499 17.8 3.20199C20.187 5.58999 18.861 10.949 14.904 14.906C10.947 18.862 5.59 20.189 3.2 17.801C0.812997 15.413 2.139 10.054 6.096 6.09699ZM18.966 18.968C15.782 22.152 11.029 22.814 7.179 20.978C10.128 20.765 13.474 19.164 16.319 16.32C19.164 13.476 20.77 10.133 20.985 7.18699C21.642 8.56299 22 10.074 22 11.643C22 14.41 20.923 17.011 18.966 18.967V18.968Z" fill="black"/>
</g>
<defs>
<clipPath id="clip0_2884_7345">
<rect width="24" height="24" fill="white"/>
</clipPath>
</defs>
</svg>
