<svg width="24" height="24" viewBox="0 0 24 24" fill="none" xmlns="http://www.w3.org/2000/svg">
<path d="M21.651 8.751C20.788 7.054 19.074 6 17.178 6H14.999L16.153 3.23C16.465 2.483 17.19 2 18 2H21C21.553 2 22 1.553 22 1C22 0.447 21.553 0 21 0H18C16.38 0 14.931 0.966 14.308 2.461L12.834 6H6.82099C4.92499 6 3.21199 7.054 2.34899 8.75C1.46599 10.482 0.998993 12.446 0.998993 14.429C0.998993 17.267 1.94799 20.013 3.67199 22.164C4.60799 23.331 6.02299 24 7.55299 24H16.446C17.976 24 19.391 23.331 20.327 22.163C22.051 20.013 23 17.267 23 14.429C23 12.447 22.533 10.483 21.651 8.751ZM6.82099 8H17.178C18.317 8 19.348 8.635 19.868 9.658C20.073 10.06 20.244 10.481 20.395 10.91C20.133 10.836 19.879 10.722 19.651 10.56C18.663 9.855 17.334 9.856 16.347 10.56C15.546 11.13 14.45 11.129 13.651 10.56C12.663 9.855 11.334 9.856 10.347 10.56C9.54599 11.13 8.44999 11.129 7.65099 10.56C6.66299 9.855 5.33399 9.856 4.34699 10.56C4.11899 10.722 3.86499 10.837 3.60299 10.911C3.75399 10.482 3.92599 10.061 4.13099 9.659C4.65099 8.637 5.68199 8.002 6.81999 8.002L6.82099 8ZM18.766 20.913C18.22 21.594 17.353 22 16.446 22H15.361C16.976 19.507 16.999 17.122 16.999 17C16.999 16.447 16.552 16 15.999 16C15.446 16 14.999 16.447 14.999 17C14.999 17.027 14.967 19.66 12.837 22H7.55399C6.64699 22 5.77999 21.594 5.23399 20.913C3.79399 19.116 3.00099 16.813 3.00099 14.429C3.00099 13.946 3.04299 13.467 3.10799 12.992C3.95399 12.97 4.80199 12.691 5.50899 12.189C5.80699 11.977 6.19299 11.974 6.49399 12.189C7.96699 13.234 10.034 13.235 11.509 12.189C11.807 11.977 12.193 11.974 12.494 12.189C13.967 13.234 16.034 13.235 17.509 12.189C17.807 11.977 18.193 11.974 18.494 12.189C19.2 12.69 20.047 12.968 20.894 12.991C20.959 13.466 21.001 13.946 21.001 14.429C21.001 16.814 20.208 19.117 18.768 20.913H18.766Z" fill="black"/>
</svg>
