<svg width="24" height="24" viewBox="0 0 24 24" fill="none" xmlns="http://www.w3.org/2000/svg">
<g clip-path="url(#clip0_2884_7360)">
<path d="M23.99 11.042C24.061 11.921 23.744 12.782 23.121 13.406C21.632 14.821 19.829 16.523 19.589 16.697C19.411 16.827 19.205 16.889 19.001 16.889C18.692 16.889 18.388 16.746 18.192 16.479C17.87 16.039 17.962 15.423 18.393 15.094C18.623 14.904 20.276 13.349 21.725 11.973C21.914 11.783 22.02 11.496 21.996 11.202C21.972 10.905 21.822 10.642 21.572 10.463C21.192 10.189 20.596 10.273 20.217 10.652C19.931 10.938 19.502 11.023 19.129 10.869C18.756 10.715 18.512 10.352 18.51 9.94801L18.49 3.74701C18.49 3.33201 18.155 2.99801 17.743 2.99801C17.543 2.99801 17.355 3.07601 17.213 3.21801C17.083 3.34901 17.014 3.52201 17.004 3.70501L17 5.99701C17 6.54901 16.552 6.99701 16 6.99701C15.448 6.99701 15 6.54901 15 5.99701L15.006 2.74101C15.006 2.33101 14.672 1.99701 14.26 1.99701C14.06 1.99701 13.872 2.07501 13.732 2.21701C13.591 2.35901 13.514 2.54701 13.515 2.74701L13.5 4.01001C13.494 4.47501 13.168 4.87601 12.713 4.97501C12.261 5.07601 11.795 4.84701 11.596 4.42501C11.5 4.22201 11.122 3.99501 10.76 3.99501C10.471 3.99501 10.204 4.16401 10.081 4.42501C9.84499 4.92501 9.24799 5.13701 8.74899 4.90101C8.24999 4.66501 8.03699 4.06801 8.27299 3.56901C8.84499 2.35901 10.312 1.74701 11.586 2.11101C11.7 1.62501 11.949 1.17301 12.314 0.806009C12.833 0.285009 13.524 -0.00299072 14.26 -0.00299072C15.231 -0.00299072 16.081 0.507009 16.57 1.26901C16.933 1.09701 17.329 0.997009 17.743 0.997009C19.258 0.997009 20.49 2.22801 20.49 3.74301L20.505 8.35001C21.28 8.21401 22.091 8.37001 22.742 8.83901C23.464 9.35901 23.919 10.161 23.99 11.04V11.042ZM15.199 8.80801C15.719 9.33001 16.004 10.024 16 10.761V18C16 21.309 13.309 24 9.99999 24H8.40799C6.60399 24 4.90799 23.298 3.63199 22.021L0.905987 19.422C0.265987 18.782 -0.0510126 17.92 0.0199874 17.041C0.0909874 16.163 0.544987 15.36 1.26799 14.84C1.91799 14.371 2.72799 14.216 3.50499 14.352L3.51999 9.74201C3.51999 8.23101 4.75199 6.99901 6.26699 6.99901C6.68099 6.99901 7.07699 7.09901 7.43999 7.27201C7.92799 6.50901 8.77799 5.99901 9.74999 5.99901C10.486 5.99901 11.177 6.28701 11.697 6.80901C12.066 7.18001 12.31 7.64001 12.422 8.13901C12.685 8.05501 12.96 7.99701 13.251 7.99701C13.988 7.99701 14.679 8.28501 15.199 8.80801ZM14 10.756C14 10.55 13.923 10.361 13.782 10.218C13.64 10.075 13.451 9.99701 13.25 9.99701C12.836 9.99701 12.5 10.333 12.5 10.746C12.5 10.755 12.495 10.763 12.495 10.772V14C12.495 14.552 12.048 15 11.495 15C10.942 15 10.495 14.553 10.495 14V8.75401C10.495 8.54901 10.419 8.36101 10.278 8.21901C10.137 8.07701 9.94899 7.99901 9.74999 7.99901C9.33899 7.99901 9.00399 8.33301 9.00399 8.74301L9.01399 13.999C9.01399 14.552 8.56599 14.999 8.01399 14.999C7.46199 14.999 7.01399 14.552 7.01399 13.999L7.00599 9.70901C6.99699 9.52501 6.92799 9.35101 6.79699 9.22001C6.65599 9.07801 6.46699 9.00001 6.26699 9.00001C5.85499 9.00001 5.51999 9.33401 5.51999 9.74601L5.49999 15.95C5.49899 16.354 5.25399 16.718 4.88099 16.872C4.50799 17.025 4.07799 16.94 3.79299 16.654C3.41199 16.273 2.81699 16.191 2.43699 16.465C2.18799 16.645 2.03799 16.907 2.01399 17.204C1.99099 17.498 2.09599 17.785 2.30399 17.993L5.02999 20.592C5.94499 21.507 7.13899 22.001 8.40899 22.001H10.001C12.207 22.001 14.001 20.207 14.001 18.001V10.757L14 10.756Z" fill="black"/>
</g>
<defs>
<clipPath id="clip0_2884_7360">
<rect width="24" height="24" fill="white"/>
</clipPath>
</defs>
</svg>
