<svg width="24" height="24" viewBox="0 0 24 24" fill="none" xmlns="http://www.w3.org/2000/svg">
<g clip-path="url(#clip0_2898_8937)">
<path d="M23.02 8.79001C22.43 8.25 21.66 7.98001 20.85 8.01001C20.05 8.05001 19.31 8.4 18.76 8.99L15.54 12.52C14.99 11.61 13.99 11 12.85 11H4C1.79 11 0 12.79 0 15V20C0 22.21 1.79 24 4 24H8.96C11.81 24 14.53 22.78 16.43 20.65L23.24 13.01C24.33 11.78 24.23 9.89 23.02 8.78V8.79001ZM21.75 11.69L14.94 19.33C13.42 21.03 11.25 22.01 8.97 22.01H4C2.9 22.01 2 21.11 2 20.01V15.01C2 13.91 2.9 13.01 4 13.01H12.86C13.49 13.01 14 13.52 14 14.15C14 14.71 13.58 15.2 13.02 15.28L7.86 16.02C7.31 16.1 6.93 16.6 7.01 17.15C7.09 17.7 7.6 18.08 8.14 18L13.3 17.26C14.48 17.09 15.43 16.27 15.81 15.2L20.24 10.34C20.42 10.14 20.67 10.02 20.94 10.01C21.21 10.01 21.47 10.09 21.67 10.27C22.08 10.64 22.11 11.28 21.74 11.69H21.75Z" fill="black"/>
<path d="M10.1128 0.640452C10.4009 0.711622 10.5828 1.00206 10.5116 1.29023L10.4375 1.58982C11.5425 2.03012 12.1914 3.21203 11.9032 4.37831C11.7631 4.94486 11.4254 5.41022 10.9827 5.72614C11.6958 6.29015 12.0609 7.22886 11.8309 8.15985C11.5157 9.43455 10.2002 10.2073 8.90524 9.88737L8.417 9.76672L8.34859 10.0436C8.27722 10.3315 7.98123 10.503 7.69333 10.4319C7.40545 10.3607 7.22339 10.0711 7.29436 9.78305L7.36277 9.50622L6.79299 9.36542L6.72459 9.64225C6.65324 9.93011 6.35713 10.1015 6.06933 10.0306C5.78143 9.95944 5.59844 9.66957 5.66941 9.38152L5.73945 9.09805C4.84904 8.813 4.31269 7.89853 4.53713 6.99027L5.7169 2.2159C5.94137 1.30765 6.84211 0.747237 7.76282 0.909766L7.83239 0.628196C7.9036 0.340021 8.20082 0.167983 8.48883 0.239153C8.77668 0.310452 8.95875 0.600861 8.88757 0.888935L8.8194 1.16482L9.38917 1.30561L9.45735 1.02973C9.52855 0.741562 9.82483 0.569297 10.1128 0.640452ZM5.59231 7.251C5.50132 7.61922 5.73386 8.00202 6.11569 8.09656L9.16176 8.84926C9.88069 9.02684 10.603 8.59746 10.7757 7.89911C10.9483 7.20059 10.5091 6.48434 9.79007 6.3066L6.05381 5.38335L5.59231 7.251ZM7.62882 1.97312C7.24693 1.87894 6.86309 2.10847 6.77207 2.47664L6.31057 4.34429L9.23435 5.06677C9.95328 5.24442 10.6752 4.8159 10.848 4.11757C11.0207 3.41901 10.5815 2.70274 9.86241 2.52506L7.62882 1.97312Z" fill="black" stroke="black" stroke-width="0.25"/>
</g>
<defs>
<clipPath id="clip0_2898_8937">
<rect width="24" height="24" fill="white"/>
</clipPath>
</defs>
</svg>
