<svg width="24" height="24" viewBox="0 0 24 24" fill="none" xmlns="http://www.w3.org/2000/svg">
<g clip-path="url(#clip0_2898_7378)">
<path d="M21 3C19.346 3 18 4.346 18 6V11.184C17.734 11.09 17.458 11.02 17.168 11.004C16.375 10.962 15.601 11.23 14.995 11.773L11.986 14.542C11.903 14.458 11.826 14.37 11.739 14.289L8.995 11.764C8.398 11.23 7.621 10.963 6.832 11.004C6.542 11.02 6.266 11.09 6 11.184V6C6 4.346 4.654 3 3 3C1.346 3 0 4.346 0 6V16.101C0 18.238 0.832 20.247 2.343 21.758L4.293 23.708C4.488 23.903 4.744 24.001 5 24.001C5.256 24.001 5.512 23.903 5.707 23.708C6.098 23.317 6.098 22.684 5.707 22.294L3.757 20.344C2.624 19.211 2 17.704 2 16.101V6C2 5.449 2.448 5 3 5C3.552 5 4 5.449 4 6C4 6 3.995 14.076 4 14.116C4.03 14.771 4.285 15.425 4.746 15.973L7.362 18.694C7.745 19.091 8.377 19.105 8.776 18.721C9.173 18.338 9.186 17.705 8.803 17.307L6.232 14.637C5.916 14.26 5.925 13.699 6.254 13.332C6.431 13.134 6.675 13.017 6.941 13.002C7.204 12.984 7.462 13.077 7.651 13.246L10.384 15.762C11.41 16.706 11.999 18.048 11.999 19.442V23.001C11.999 23.553 12.446 24.001 12.999 24.001C13.552 24.001 13.999 23.553 13.999 23.001V19.442C13.999 18.29 13.705 17.167 13.175 16.166L16.338 13.255C16.536 13.077 16.792 12.984 17.058 13.002C17.324 13.017 17.568 13.134 17.745 13.332C17.905 13.51 17.986 13.734 18 13.955V14V14.002C18.003 14.219 17.942 14.429 17.812 14.586L15.279 17.22C14.896 17.618 14.909 18.251 15.306 18.634C15.5 18.821 15.749 18.913 15.999 18.913C16.262 18.913 16.523 18.81 16.72 18.606L19.298 15.921C19.748 15.385 19.984 14.726 19.999 14.064C20.001 14.041 19.999 5.999 19.999 5.999C19.999 5.448 20.447 4.999 20.999 4.999C21.551 4.999 21.999 5.448 21.999 5.999V16.1C21.999 17.703 21.375 19.209 20.242 20.343L18.292 22.293C17.901 22.683 17.901 23.316 18.292 23.707C18.487 23.902 18.743 24 18.999 24C19.255 24 19.511 23.902 19.706 23.707L21.656 21.757C23.167 20.246 23.999 18.237 23.999 16.1V6C23.999 4.346 22.654 3 21 3Z" fill="black"/>
<path d="M13.8214 0.664719C14.1162 0.737699 14.3022 1.03497 14.2294 1.32987L14.1523 1.64178C15.2917 2.09402 15.9616 3.31172 15.6649 4.51328C15.5203 5.09826 15.1711 5.57945 14.7134 5.90477C15.4497 6.48513 15.8267 7.45302 15.5895 8.41278C15.2651 9.72497 13.911 10.5208 12.5778 10.1915L12.0706 10.0661L11.9994 10.3543C11.9265 10.6492 11.6234 10.8256 11.3285 10.7529C11.0336 10.68 10.8467 10.3825 10.9196 10.0875L10.9908 9.7993L10.3964 9.65241L10.3251 9.94062C10.2523 10.2356 9.94828 10.4118 9.65333 10.3389C9.35848 10.266 9.17244 9.9687 9.24531 9.67379L9.31817 9.37894C8.39949 9.0872 7.84567 8.14502 8.07683 7.20921L9.29338 2.286C9.52475 1.35029 10.4539 0.773462 11.4027 0.943221L11.4753 0.649326C11.5482 0.354417 11.8513 0.178008 12.1462 0.250769C12.4411 0.323654 12.628 0.621184 12.5551 0.916156L12.4839 1.20436L13.0783 1.35125L13.1496 1.06304C13.2224 0.768069 13.5264 0.591834 13.8214 0.664719ZM9.15666 7.47604C9.06238 7.85791 9.30488 8.25404 9.70073 8.35186L12.8407 9.12775C13.584 9.31135 14.3311 8.86819 14.5097 8.14595C14.6882 7.42358 14.2336 6.68257 13.4903 6.49881L9.63363 5.54582L9.15666 7.47604ZM11.2626 2.03123C10.8668 1.93342 10.4677 2.17108 10.3732 2.55283L9.89624 4.48306L12.9158 5.2292C13.659 5.41264 14.4056 4.96849 14.5841 4.24621C14.7623 3.52404 14.3085 2.7841 13.5654 2.60026L11.2626 2.03123Z" fill="black" stroke="black" stroke-width="0.25"/>
</g>
<defs>
<clipPath id="clip0_2898_7378">
<rect width="24" height="24" fill="white"/>
</clipPath>
</defs>
</svg>
