<svg width="24" height="24" viewBox="0 0 24 24" fill="none" xmlns="http://www.w3.org/2000/svg">
<g clip-path="url(#clip0_2898_8942)">
<path d="M9 12C10.1867 12 11.3467 11.6481 12.3334 10.9888C13.3201 10.3295 14.0892 9.39246 14.5433 8.2961C14.9974 7.19975 15.1162 5.99335 14.8847 4.82946C14.6532 3.66558 14.0818 2.59648 13.2426 1.75736C12.4035 0.918247 11.3344 0.346802 10.1705 0.115291C9.00666 -0.11622 7.80026 0.00259972 6.7039 0.456726C5.60754 0.910851 4.67047 1.67989 4.01118 2.66658C3.35189 3.65328 3 4.81331 3 6C3.00159 7.59081 3.63424 9.11602 4.75911 10.2409C5.88399 11.3658 7.40919 11.9984 9 12ZM9 2C9.79113 2 10.5645 2.2346 11.2223 2.67412C11.8801 3.11365 12.3928 3.73836 12.6955 4.46927C12.9983 5.20017 13.0775 6.00444 12.9231 6.78036C12.7688 7.55629 12.3878 8.26902 11.8284 8.82843C11.269 9.38784 10.5563 9.7688 9.78036 9.92314C9.00444 10.0775 8.20017 9.99827 7.46927 9.69552C6.73836 9.39277 6.11365 8.88008 5.67412 8.22228C5.2346 7.56449 5 6.79113 5 6C5 4.93914 5.42143 3.92172 6.17157 3.17158C6.92172 2.42143 7.93913 2 9 2Z" fill="black"/>
<path d="M9 14C6.61395 14.0029 4.32645 14.9521 2.63925 16.6393C0.952057 18.3265 0.00291096 20.6139 0 23C0 23.2652 0.105357 23.5196 0.292893 23.7071C0.48043 23.8946 0.734784 24 1 24C1.26522 24 1.51957 23.8946 1.70711 23.7071C1.89464 23.5196 2 23.2652 2 23C2 21.1435 2.7375 19.363 4.05025 18.0503C5.36301 16.7375 7.14348 16 9 16C10.8565 16 12.637 16.7375 13.9497 18.0503C15.2625 19.363 16 21.1435 16 23C16 23.2652 16.1054 23.5196 16.2929 23.7071C16.4804 23.8946 16.7348 24 17 24C17.2652 24 17.5196 23.8946 17.7071 23.7071C17.8946 23.5196 18 23.2652 18 23C17.9971 20.6139 17.0479 18.3265 15.3607 16.6393C13.6735 14.9521 11.3861 14.0029 9 14Z" fill="black"/>
<path d="M22.0443 6.78175C22.3323 6.85292 22.5143 7.14336 22.443 7.43153L22.369 7.73111C23.4739 8.17142 24.1229 9.35332 23.8347 10.5196C23.6946 11.0862 23.3569 11.5515 22.9142 11.8674C23.6273 12.4315 23.9924 13.3702 23.7623 14.3011C23.4472 15.5758 22.1317 16.3486 20.8367 16.0287L20.3485 15.908L20.2801 16.1848C20.2087 16.4728 19.9127 16.6443 19.6248 16.5732C19.3369 16.502 19.1549 16.2124 19.2258 15.9243L19.2942 15.6475L18.7245 15.5067L18.6561 15.7836C18.5847 16.0714 18.2886 16.2428 18.0008 16.1719C17.7129 16.1007 17.5299 15.8109 17.6009 15.5228L17.6709 15.2393C16.7805 14.9543 16.2442 14.0398 16.4686 13.1316L17.6484 8.3572C17.8728 7.44894 18.7736 6.88853 19.6943 7.05106L19.7639 6.76949C19.8351 6.48132 20.1323 6.30928 20.4203 6.38045C20.7081 6.45175 20.8902 6.74216 20.819 7.03023L20.7509 7.30611L21.3206 7.44691L21.3888 7.17103C21.46 6.88286 21.7563 6.71059 22.0443 6.78175ZM17.5238 13.3923C17.4328 13.7605 17.6653 14.1433 18.0472 14.2379L21.0932 14.9906C21.8122 15.1681 22.5344 14.7388 22.7072 14.0404C22.8798 13.3419 22.4405 12.6256 21.7215 12.4479L17.9853 11.5246L17.5238 13.3923ZM19.5603 8.11442C19.1784 8.02024 18.7946 8.24976 18.7035 8.61794L18.242 10.4856L21.1658 11.2081C21.8848 11.3857 22.6067 10.9572 22.7795 10.2589C22.9521 9.56031 22.513 8.84404 21.7939 8.66635L19.5603 8.11442Z" fill="black" stroke="black" stroke-width="0.25"/>
</g>
<defs>
<clipPath id="clip0_2898_8942">
<rect width="24" height="24" fill="white"/>
</clipPath>
</defs>
</svg>
