<svg width="24" height="24" viewBox="0 0 24 24" fill="none" xmlns="http://www.w3.org/2000/svg">
<path d="M18.278 1.30503C15.952 0.571025 12.994 1.36503 12 1.67603C11.008 1.36703 8.05099 0.579025 5.72199 1.31103C1.78099 2.55503 1.27299 5.68503 1.55499 7.16503C1.61999 7.51003 1.86199 7.79502 2.19099 7.91703C2.28099 7.95003 3.52699 8.39803 5.16599 8.46403C4.50799 11.22 5.98999 13.133 7.01199 13.827C7.17999 13.941 7.37699 14 7.57399 14C7.71699 14 7.85999 13.97 7.99399 13.907C8.08899 13.863 9.49599 13.199 10.802 11.884C10.912 12.599 11 13.356 11 13.987C11 17.009 9.03199 19.463 8.44999 20.121C4.70099 20.392 2.78399 21.018 2.68299 21.052C2.15999 21.227 1.87799 21.791 2.05199 22.315C2.22499 22.837 2.78999 23.122 3.31499 22.95C3.34399 22.94 6.27499 21.999 12.001 21.999C17.727 21.999 20.658 22.94 20.687 22.95C20.791 22.984 20.897 23.001 21.001 23.001C21.419 23.001 21.81 22.736 21.95 22.317C22.125 21.794 21.842 21.227 21.318 21.052C21.242 21.027 20.134 20.665 17.987 20.372C17.946 18.982 17.764 15.792 16.968 12.747C16.477 10.869 15.715 9.13403 14.96 7.70503C16.123 8.28203 17.348 8.46602 18.437 8.46602C20.27 8.46602 21.712 7.94502 21.81 7.91003C22.139 7.78802 22.381 7.50303 22.446 7.15803C22.728 5.67803 22.219 2.54803 18.279 1.30403L18.278 1.30503ZM6.32399 3.21903C7.68899 2.78703 9.48299 3.08903 10.605 3.36503C10.178 4.14203 9.43799 5.20603 8.35299 5.81403C6.62499 6.78103 4.52299 6.46303 3.50199 6.21603C3.56299 5.39403 4.01699 3.94503 6.32399 3.21803V3.21903ZM7.71699 11.779C7.23499 11.22 6.62199 10.08 7.30799 8.30203C7.98299 8.16303 8.66999 7.92903 9.32999 7.56003C9.99999 7.18503 10.565 6.70302 11.035 6.19303C11.085 6.78303 11.059 7.42203 10.882 8.04503C10.339 9.95903 8.61899 11.228 7.71699 11.778V11.779ZM15.975 20.155C14.833 20.061 13.508 19.999 11.999 19.999C11.673 19.999 11.355 20.002 11.046 20.008C11.958 18.625 12.999 16.498 12.999 13.989C12.999 12.632 12.673 10.906 12.479 9.87502L12.428 9.60203C12.576 9.28403 12.704 8.94803 12.805 8.59403C12.849 8.44003 12.885 8.28603 12.917 8.13203C13.695 9.52903 14.524 11.312 15.032 13.255C15.722 15.896 15.919 18.733 15.975 20.155ZM15.646 5.80903C14.555 5.19903 13.817 4.14003 13.392 3.36503C14.513 3.08803 16.309 2.78203 17.675 3.21503C19.986 3.94403 20.438 5.39503 20.498 6.21303C19.475 6.46003 17.373 6.77603 15.645 5.81003L15.646 5.80903Z" fill="black"/>
</svg>
