<?xml version="1.0" encoding="UTF-8"?>
<svg xmlns="http://www.w3.org/2000/svg" id="Layer_1" data-name="Layer 1" viewBox="0 0 24 24">
  <path d="m16,17.5c0,.828-.672,1.5-1.5,1.5s-1.5-.672-1.5-1.5.672-1.5,1.5-1.5,1.5.672,1.5,1.5Zm8-.999v2.499c0,2.757-2.243,5-5,5H6c-3.309,0-6-2.691-6-6v-2.727c0-3.369.987-6.629,2.855-9.43l.503-.754C1.385,4.247,0,2.278,0,0c4.122,0,5.5,2.776,5.5,2.776,0,0,1.327-2.776,5.5-2.776,0,2.564-1.755,4.737-4.129,5.352l-.466,2.765c-.183,1.082-.304,2.179-.363,3.279,2.332-1.741,5.363-3.396,8.458-3.396.041,0,1.009,0,1.009,0,4.682.004,8.491,3.817,8.491,8.5Zm-2,0c0-3.581-2.913-6.497-6.493-6.5,0,0-.967,0-1.007,0-4.307,0-8.774,4.093-10.5,5.857v-2.917c0-1.724.146-3.458.432-5.156l.158-.937c-1.648,2.471-2.59,5.453-2.59,8.426v2.727c0,2.206,1.794,4,4,4h13c1.654,0,3-1.346,3-3v-2.499Z"/>
</svg>
